<?xml version="1.0" encoding="UTF-8"?>
<!DOCTYPE svg PUBLIC "-//W3C//DTD SVG 1.1//EN" "http://www.w3.org/Graphics/SVG/1.1/DTD/svg11.dtd">
<svg version="1.1" xmlns="http://www.w3.org/2000/svg" xmlns:xlink="http://www.w3.org/1999/xlink" x="0" y="0" width="332" height="263" viewBox="0, 0, 332, 263">
  <g id="Layer_1">
    <g>
      <g>
        <path d="M145.164,4.52 C155.814,2.2 166.784,3.51 177.584,3.14 C183.674,2.85 189.484,5.22 195.554,5.04 C201.574,5.04 207.544,5.91 213.494,6.66 C221.434,8.59 229.704,8.79 237.554,11.17 C245.214,12.16 252.184,15.57 259.654,17.33 C268.624,20.31 277.844,22.91 285.984,27.87 C295.104,31.9 304.044,36.65 311.444,43.46 C321.214,51.24 328.474,62.69 329.454,75.31 C329.664,78.45 328.534,81.43 327.534,84.35 C328.104,80.62 328.324,76.85 328.434,73.08 C325.064,77.07 322.654,82.07 318.004,84.79 C313.264,87.69 308.234,90.43 302.684,91.34 C293.654,92.72 284.714,94.77 275.584,95.4 C263.674,97.34 251.604,98.16 239.544,98.39 C233.514,98.5 227.654,100.18 221.624,100.27 C193.954,100.26 166.274,101.07 138.594,100.38 C126.414,99.89 114.124,101.24 102.054,99.04 C94.964,97.86 87.754,98.64 80.624,98.04 C72.854,97.33 64.994,97.47 57.304,95.96 C44.004,94.06 29.094,94.62 17.904,86.01 C13.314,82.89 11.214,77.57 8.664,72.88 C8.414,73.26 7.914,74.02 7.664,74.4 C9.324,68.4 10.584,62.11 14.144,56.86 C19.904,47.71 28.774,41.28 37.564,35.27 C43.504,31.37 50.084,28.59 56.194,24.98 C63.614,20.65 71.894,18.16 80.034,15.59 C90.534,11.09 101.954,9.47 113.144,7.58 C118.494,6.14 124.064,6.07 129.534,5.35 C134.724,4.73 139.994,5.43 145.164,4.52 M196.664,14.51 C196.434,15.94 195.824,17.39 196.104,18.85 C197.134,20.83 199.334,21.67 201.224,22.61 C201.324,19.9 201.334,17.19 201.304,14.48 C199.754,14.49 198.204,14.5 196.664,14.51 M152.724,17.33 C152.764,19.38 152.804,21.43 152.874,23.49 C156.654,23.12 159.884,20.34 159.664,16.31 C157.304,16.31 154.974,16.64 152.724,17.33 M104.534,17.56 C104.134,20.54 104.964,23.34 107.294,25.3 C108.734,22.96 109.484,20.32 109.594,17.58 C107.894,17.56 106.214,17.55 104.534,17.56 M124.304,20.01 C123.864,21.14 123.514,22.3 123.274,23.5 C125.974,22.98 128.244,21.46 129.754,19.16 C127.924,19.33 126.014,19.25 124.304,20.01 M224.484,20.23 C225.174,23.03 226.324,25.67 227.734,28.18 C228.994,27.8 230.274,27.43 231.554,27.06 C231.454,24.95 231.344,22.84 231.224,20.73 C228.984,20.51 226.734,20.35 224.484,20.23 M176.674,28.4 C174.664,29.74 174.894,32.35 174.564,34.45 C176.904,34.12 179.234,33.71 181.534,33.18 C181.614,31.62 181.654,30.07 181.634,28.52 C180.264,27.35 178.024,27.07 176.674,28.4 M266.444,28.55 C266.174,30.5 266.234,32.47 266.614,34.41 C267.784,33.91 268.994,33.45 270.124,32.82 C271.444,31.76 270.794,29.97 270.744,28.56 C269.304,28.55 267.874,28.55 266.444,28.55 M207.474,34.31 C209.064,36.43 210.964,38.32 213.304,39.61 C213.264,36.75 215.234,31.69 211.534,30.51 C209.924,31.47 208.734,32.96 207.474,34.31 M245.524,31.49 C246.534,35.94 248.834,41.03 253.514,42.55 C252.974,38.91 252.784,34.71 249.794,32.11 C248.724,30.93 246.704,29.78 245.524,31.49 M132.674,33.42 C132.514,36.36 132.954,39.38 135.364,41.36 C136.834,39.05 138.964,36.63 138.354,33.68 C136.884,31.73 134.544,33.06 132.674,33.42 M81.414,44.37 C85.914,44.18 89.574,41.43 93.064,38.89 C93.144,38.27 93.304,37.03 93.384,36.41 C88.264,36.27 81.364,38.03 81.414,44.37 M49.464,42.47 C49.514,44.02 49.574,45.57 49.654,47.12 C51.904,47.12 54.164,47.12 56.424,47.1 C56.824,45.61 57.214,44.11 57.594,42.62 C54.884,42.52 52.174,42.47 49.464,42.47 M118.734,48.34 C118.384,51.06 121.004,52.25 123.264,52.48 C123.734,50.09 124.174,47.7 124.534,45.3 C122.374,45.49 118.264,44.97 118.734,48.34 M195.384,45.52 C195.734,51.18 201.564,57.74 207.484,54.6 C204.524,50.33 200.154,47.41 195.384,45.52 M274.954,45.64 C274.824,47.92 274.714,50.21 274.634,52.5 C277.174,52.86 279.724,52.52 282.204,51.86 C282.264,49.74 282.954,47.25 281.174,45.61 C279.184,44.69 277.004,45.46 274.954,45.64 M153.994,49.71 C152.104,51.43 152.994,54.32 152.694,56.57 C157.004,56.56 160.214,52.78 159.394,48.53 C157.594,48.81 155.294,48.1 153.994,49.71 M82.384,60.95 C85.044,62.26 87.974,62.75 90.914,62.32 C90.344,59.68 88.504,57 85.684,56.59 C83.724,57.15 83.234,59.38 82.384,60.95 M246.704,59.31 C246.764,61.41 246.834,63.52 246.924,65.63 C248.324,65.1 249.834,64.77 251.084,63.9 C252.734,62.45 252.424,60.05 252.754,58.1 C250.724,58.46 248.714,58.86 246.704,59.31 M63.494,66.29 C63.934,68.09 63.444,70.52 65.234,71.68 C66.984,72.34 68.904,72.1 70.734,72.23 C70.554,68.5 67.594,64.45 63.494,66.29 M269.074,70.8 C267.274,72.59 268.724,75.33 268.844,77.47 C270.344,76.83 272.284,76.49 273.004,74.8 C273.344,73.3 273.384,71.76 273.544,70.25 C272.054,70.14 270.224,69.45 269.074,70.8 M36.914,74.66 C35.304,76.2 35.894,78.7 35.504,80.69 C37.354,80.15 40.174,80.89 41.034,78.67 C42.034,77.06 41.574,75.08 41.644,73.3 C40.074,73.67 38.104,73.34 36.914,74.66 M120.694,75.53 C119.894,78.96 123.134,81.25 126.214,81.31 C126.304,78.7 126.304,76.1 126.244,73.49 C124.324,73.7 120.984,72.71 120.694,75.53 M177.444,79.32 C179.894,78.91 182.274,78.22 184.594,77.32 C184.594,76.5 184.614,74.86 184.624,74.05 C181.594,74.83 178.704,76.27 177.444,79.32 M287.934,76.7 C286.604,80.1 290.264,82.03 292.554,83.61 C293.394,80.92 293.534,78.09 293.414,75.29 C291.434,74.89 289.024,74.53 287.934,76.7 M146.824,75.07 C146.844,76.98 146.674,78.92 147.124,80.8 C148.064,82.81 150.344,83.06 152.274,83.38 C152.394,81.71 152.504,80.04 152.634,78.38 C150.754,77.17 148.834,76.03 146.824,75.07 M222.494,77.3 C220.824,79.17 223.044,81.31 223.734,83.1 C224.414,83.11 225.754,83.14 226.424,83.15 C227.324,80.57 227.734,77.87 227.664,75.14 C225.834,75.52 223.574,75.47 222.494,77.3 M89.024,83.63 C88.964,84.27 88.844,85.55 88.784,86.19 C91.834,88 95.274,87.71 98.354,86.16 C98.294,85.56 98.174,84.34 98.114,83.73 C95.114,83.03 92.024,82.95 89.024,83.63 z" fill="#E5A258"/>
        <path d="M145.164,4.52 C155.814,2.2 166.784,3.51 177.584,3.14 C183.674,2.85 189.484,5.22 195.554,5.04 C201.574,5.04 207.544,5.91 213.494,6.66 C221.434,8.59 229.704,8.79 237.554,11.17 C245.214,12.16 252.184,15.57 259.654,17.33 C268.624,20.31 277.844,22.91 285.984,27.87 C295.104,31.9 304.044,36.65 311.444,43.46 C321.214,51.24 328.474,62.69 329.454,75.31 C329.664,78.45 328.534,81.43 327.534,84.35 C328.104,80.62 328.324,76.85 328.434,73.08 C325.064,77.07 322.654,82.07 318.004,84.79 C313.264,87.69 308.234,90.43 302.684,91.34 C293.654,92.72 284.714,94.77 275.584,95.4 C263.674,97.34 251.604,98.16 239.544,98.39 C233.514,98.5 227.654,100.18 221.624,100.27 C193.954,100.26 166.274,101.07 138.594,100.38 C126.414,99.89 114.124,101.24 102.054,99.04 C94.964,97.86 87.754,98.64 80.624,98.04 C72.854,97.33 64.994,97.47 57.304,95.96 C44.004,94.06 29.094,94.62 17.904,86.01 C13.314,82.89 11.214,77.57 8.664,72.88 C8.414,73.26 7.914,74.02 7.664,74.4 C9.324,68.4 10.584,62.11 14.144,56.86 C19.904,47.71 28.774,41.28 37.564,35.27 C43.504,31.37 50.084,28.59 56.194,24.98 C63.614,20.65 71.894,18.16 80.034,15.59 C90.534,11.09 101.954,9.47 113.144,7.58 C118.494,6.14 124.064,6.07 129.534,5.35 C134.724,4.73 139.994,5.43 145.164,4.52 M196.664,14.51 C196.434,15.94 195.824,17.39 196.104,18.85 C197.134,20.83 199.334,21.67 201.224,22.61 C201.324,19.9 201.334,17.19 201.304,14.48 C199.754,14.49 198.204,14.5 196.664,14.51 M152.724,17.33 C152.764,19.38 152.804,21.43 152.874,23.49 C156.654,23.12 159.884,20.34 159.664,16.31 C157.304,16.31 154.974,16.64 152.724,17.33 M104.534,17.56 C104.134,20.54 104.964,23.34 107.294,25.3 C108.734,22.96 109.484,20.32 109.594,17.58 C107.894,17.56 106.214,17.55 104.534,17.56 M124.304,20.01 C123.864,21.14 123.514,22.3 123.274,23.5 C125.974,22.98 128.244,21.46 129.754,19.16 C127.924,19.33 126.014,19.25 124.304,20.01 M224.484,20.23 C225.174,23.03 226.324,25.67 227.734,28.18 C228.994,27.8 230.274,27.43 231.554,27.06 C231.454,24.95 231.344,22.84 231.224,20.73 C228.984,20.51 226.734,20.35 224.484,20.23 M176.674,28.4 C174.664,29.74 174.894,32.35 174.564,34.45 C176.904,34.12 179.234,33.71 181.534,33.18 C181.614,31.62 181.654,30.07 181.634,28.52 C180.264,27.35 178.024,27.07 176.674,28.4 M266.444,28.55 C266.174,30.5 266.234,32.47 266.614,34.41 C267.784,33.91 268.994,33.45 270.124,32.82 C271.444,31.76 270.794,29.97 270.744,28.56 C269.304,28.55 267.874,28.55 266.444,28.55 M207.474,34.31 C209.064,36.43 210.964,38.32 213.304,39.61 C213.264,36.75 215.234,31.69 211.534,30.51 C209.924,31.47 208.734,32.96 207.474,34.31 M245.524,31.49 C246.534,35.94 248.834,41.03 253.514,42.55 C252.974,38.91 252.784,34.71 249.794,32.11 C248.724,30.93 246.704,29.78 245.524,31.49 M132.674,33.42 C132.514,36.36 132.954,39.38 135.364,41.36 C136.834,39.05 138.964,36.63 138.354,33.68 C136.884,31.73 134.544,33.06 132.674,33.42 M81.414,44.37 C85.914,44.18 89.574,41.43 93.064,38.89 C93.144,38.27 93.304,37.03 93.384,36.41 C88.264,36.27 81.364,38.03 81.414,44.37 M49.464,42.47 C49.514,44.02 49.574,45.57 49.654,47.12 C51.904,47.12 54.164,47.12 56.424,47.1 C56.824,45.61 57.214,44.11 57.594,42.62 C54.884,42.52 52.174,42.47 49.464,42.47 M118.734,48.34 C118.384,51.06 121.004,52.25 123.264,52.48 C123.734,50.09 124.174,47.7 124.534,45.3 C122.374,45.49 118.264,44.97 118.734,48.34 M195.384,45.52 C195.734,51.18 201.564,57.74 207.484,54.6 C204.524,50.33 200.154,47.41 195.384,45.52 M274.954,45.64 C274.824,47.92 274.714,50.21 274.634,52.5 C277.174,52.86 279.724,52.52 282.204,51.86 C282.264,49.74 282.954,47.25 281.174,45.61 C279.184,44.69 277.004,45.46 274.954,45.64 M153.994,49.71 C152.104,51.43 152.994,54.32 152.694,56.57 C157.004,56.56 160.214,52.78 159.394,48.53 C157.594,48.81 155.294,48.1 153.994,49.71 M82.384,60.95 C85.044,62.26 87.974,62.75 90.914,62.32 C90.344,59.68 88.504,57 85.684,56.59 C83.724,57.15 83.234,59.38 82.384,60.95 M246.704,59.31 C246.764,61.41 246.834,63.52 246.924,65.63 C248.324,65.1 249.834,64.77 251.084,63.9 C252.734,62.45 252.424,60.05 252.754,58.1 C250.724,58.46 248.714,58.86 246.704,59.31 M63.494,66.29 C63.934,68.09 63.444,70.52 65.234,71.68 C66.984,72.34 68.904,72.1 70.734,72.23 C70.554,68.5 67.594,64.45 63.494,66.29 M269.074,70.8 C267.274,72.59 268.724,75.33 268.844,77.47 C270.344,76.83 272.284,76.49 273.004,74.8 C273.344,73.3 273.384,71.76 273.544,70.25 C272.054,70.14 270.224,69.45 269.074,70.8 M36.914,74.66 C35.304,76.2 35.894,78.7 35.504,80.69 C37.354,80.15 40.174,80.89 41.034,78.67 C42.034,77.06 41.574,75.08 41.644,73.3 C40.074,73.67 38.104,73.34 36.914,74.66 M120.694,75.53 C119.894,78.96 123.134,81.25 126.214,81.31 C126.304,78.7 126.304,76.1 126.244,73.49 C124.324,73.7 120.984,72.71 120.694,75.53 M177.444,79.32 C179.894,78.91 182.274,78.22 184.594,77.32 C184.594,76.5 184.614,74.86 184.624,74.05 C181.594,74.83 178.704,76.27 177.444,79.32 M287.934,76.7 C286.604,80.1 290.264,82.03 292.554,83.61 C293.394,80.92 293.534,78.09 293.414,75.29 C291.434,74.89 289.024,74.53 287.934,76.7 M146.824,75.07 C146.844,76.98 146.674,78.92 147.124,80.8 C148.064,82.81 150.344,83.06 152.274,83.38 C152.394,81.71 152.504,80.04 152.634,78.38 C150.754,77.17 148.834,76.03 146.824,75.07 M222.494,77.3 C220.824,79.17 223.044,81.31 223.734,83.1 C224.414,83.11 225.754,83.14 226.424,83.15 C227.324,80.57 227.734,77.87 227.664,75.14 C225.834,75.52 223.574,75.47 222.494,77.3 M89.024,83.63 C88.964,84.27 88.844,85.55 88.784,86.19 C91.834,88 95.274,87.71 98.354,86.16 C98.294,85.56 98.174,84.34 98.114,83.73 C95.114,83.03 92.024,82.95 89.024,83.63 z" fill-opacity="0" stroke="#E5A258" stroke-width="0.5"/>
      </g>
      <g>
        <path d="M196.664,14.51 C198.204,14.5 199.754,14.49 201.304,14.48 C201.334,17.19 201.324,19.9 201.224,22.61 C199.334,21.67 197.134,20.83 196.104,18.85 C195.824,17.39 196.434,15.94 196.664,14.51 z" fill="#FEF3CE"/>
        <path d="M196.664,14.51 C198.204,14.5 199.754,14.49 201.304,14.48 C201.334,17.19 201.324,19.9 201.224,22.61 C199.334,21.67 197.134,20.83 196.104,18.85 C195.824,17.39 196.434,15.94 196.664,14.51 z" fill-opacity="0" stroke="#FEF3CE" stroke-width="0.5"/>
      </g>
      <g>
        <path d="M152.724,17.33 C154.974,16.64 157.304,16.31 159.664,16.31 C159.884,20.34 156.654,23.12 152.874,23.49 C152.804,21.43 152.764,19.38 152.724,17.33 z" fill="#FEF0CA"/>
        <path d="M152.724,17.33 C154.974,16.64 157.304,16.31 159.664,16.31 C159.884,20.34 156.654,23.12 152.874,23.49 C152.804,21.43 152.764,19.38 152.724,17.33 z" fill-opacity="0" stroke="#FEF0CA" stroke-width="0.5"/>
      </g>
      <g>
        <path d="M104.534,17.56 C106.214,17.55 107.894,17.56 109.594,17.58 C109.484,20.32 108.734,22.96 107.294,25.3 C104.964,23.34 104.134,20.54 104.534,17.56 z" fill="#FFF4D0"/>
        <path d="M104.534,17.56 C106.214,17.55 107.894,17.56 109.594,17.58 C109.484,20.32 108.734,22.96 107.294,25.3 C104.964,23.34 104.134,20.54 104.534,17.56 z" fill-opacity="0" stroke="#FFF4D0" stroke-width="0.5"/>
      </g>
      <g>
        <path d="M124.304,20.01 C126.014,19.25 127.924,19.33 129.754,19.16 C128.244,21.46 125.974,22.98 123.274,23.5 C123.514,22.3 123.864,21.14 124.304,20.01 z" fill="#F6DCAE"/>
        <path d="M124.304,20.01 C126.014,19.25 127.924,19.33 129.754,19.16 C128.244,21.46 125.974,22.98 123.274,23.5 C123.514,22.3 123.864,21.14 124.304,20.01 z" fill-opacity="0" stroke="#F6DCAE" stroke-width="0.5"/>
      </g>
      <g>
        <path d="M224.484,20.23 C226.734,20.35 228.984,20.51 231.224,20.73 C231.344,22.84 231.454,24.95 231.554,27.06 C230.274,27.43 228.994,27.8 227.734,28.18 C226.324,25.67 225.174,23.03 224.484,20.23 z" fill="#FEF0C9"/>
        <path d="M224.484,20.23 C226.734,20.35 228.984,20.51 231.224,20.73 C231.344,22.84 231.454,24.95 231.554,27.06 C230.274,27.43 228.994,27.8 227.734,28.18 C226.324,25.67 225.174,23.03 224.484,20.23 z" fill-opacity="0" stroke="#FEF0C9" stroke-width="0.5"/>
      </g>
      <g>
        <path d="M176.674,28.4 C178.024,27.07 180.264,27.35 181.634,28.52 C181.654,30.07 181.614,31.62 181.534,33.18 C179.234,33.71 176.904,34.12 174.564,34.45 C174.894,32.35 174.664,29.74 176.674,28.4 z" fill="#FEF0C9"/>
        <path d="M176.674,28.4 C178.024,27.07 180.264,27.35 181.634,28.52 C181.654,30.07 181.614,31.62 181.534,33.18 C179.234,33.71 176.904,34.12 174.564,34.45 C174.894,32.35 174.664,29.74 176.674,28.4 z" fill-opacity="0" stroke="#FEF0C9" stroke-width="0.5"/>
      </g>
      <g>
        <path d="M266.444,28.55 C267.874,28.55 269.304,28.55 270.744,28.56 C270.794,29.97 271.444,31.76 270.124,32.82 C268.994,33.45 267.784,33.91 266.614,34.41 C266.234,32.47 266.174,30.5 266.444,28.55 z" fill="#FEF3CE"/>
        <path d="M266.444,28.55 C267.874,28.55 269.304,28.55 270.744,28.56 C270.794,29.97 271.444,31.76 270.124,32.82 C268.994,33.45 267.784,33.91 266.614,34.41 C266.234,32.47 266.174,30.5 266.444,28.55 z" fill-opacity="0" stroke="#FEF3CE" stroke-width="0.5"/>
      </g>
      <g>
        <path d="M207.474,34.31 C208.734,32.96 209.924,31.47 211.534,30.51 C215.234,31.69 213.264,36.75 213.304,39.61 C210.964,38.32 209.064,36.43 207.474,34.31 z" fill="#FDEEC6"/>
        <path d="M207.474,34.31 C208.734,32.96 209.924,31.47 211.534,30.51 C215.234,31.69 213.264,36.75 213.304,39.61 C210.964,38.32 209.064,36.43 207.474,34.31 z" fill-opacity="0" stroke="#FDEEC6" stroke-width="0.5"/>
      </g>
      <g>
        <path d="M245.524,31.49 C246.704,29.78 248.724,30.93 249.794,32.11 C252.784,34.71 252.974,38.91 253.514,42.55 C248.834,41.03 246.534,35.94 245.524,31.49 z" fill="#FEEFC9"/>
        <path d="M245.524,31.49 C246.704,29.78 248.724,30.93 249.794,32.11 C252.784,34.71 252.974,38.91 253.514,42.55 C248.834,41.03 246.534,35.94 245.524,31.49 z" fill-opacity="0" stroke="#FEEFC9" stroke-width="0.5"/>
      </g>
      <g>
        <path d="M132.674,33.42 C134.544,33.06 136.884,31.73 138.354,33.68 C138.964,36.63 136.834,39.05 135.364,41.36 C132.954,39.38 132.514,36.36 132.674,33.42 z" fill="#FEF0C9"/>
        <path d="M132.674,33.42 C134.544,33.06 136.884,31.73 138.354,33.68 C138.964,36.63 136.834,39.05 135.364,41.36 C132.954,39.38 132.514,36.36 132.674,33.42 z" fill-opacity="0" stroke="#FEF0C9" stroke-width="0.5"/>
      </g>
      <g>
        <path d="M81.414,44.37 C81.364,38.03 88.264,36.27 93.384,36.41 C93.304,37.03 93.144,38.27 93.064,38.89 C89.574,41.43 85.914,44.18 81.414,44.37 z" fill="#FEF0C9"/>
        <path d="M81.414,44.37 C81.364,38.03 88.264,36.27 93.384,36.41 C93.304,37.03 93.144,38.27 93.064,38.89 C89.574,41.43 85.914,44.18 81.414,44.37 z" fill-opacity="0" stroke="#FEF0C9" stroke-width="0.5"/>
      </g>
      <g>
        <path d="M49.464,42.47 C52.174,42.47 54.884,42.52 57.594,42.62 C57.214,44.11 56.824,45.61 56.424,47.1 C54.164,47.12 51.904,47.12 49.654,47.12 C49.574,45.57 49.514,44.02 49.464,42.47 z" fill="#FEF3CE"/>
        <path d="M49.464,42.47 C52.174,42.47 54.884,42.52 57.594,42.62 C57.214,44.11 56.824,45.61 56.424,47.1 C54.164,47.12 51.904,47.12 49.654,47.12 C49.574,45.57 49.514,44.02 49.464,42.47 z" fill-opacity="0" stroke="#FEF3CE" stroke-width="0.5"/>
      </g>
      <g>
        <path d="M118.734,48.34 C118.264,44.97 122.374,45.49 124.534,45.3 C124.174,47.7 123.734,50.09 123.264,52.48 C121.004,52.25 118.384,51.06 118.734,48.34 z" fill="#FEF1CA"/>
        <path d="M118.734,48.34 C118.264,44.97 122.374,45.49 124.534,45.3 C124.174,47.7 123.734,50.09 123.264,52.48 C121.004,52.25 118.384,51.06 118.734,48.34 z" fill-opacity="0" stroke="#FEF1CA" stroke-width="0.5"/>
      </g>
      <g>
        <path d="M195.384,45.52 C200.154,47.41 204.524,50.33 207.484,54.6 C201.564,57.74 195.734,51.18 195.384,45.52 z" fill="#FEEFC8"/>
        <path d="M195.384,45.52 C200.154,47.41 204.524,50.33 207.484,54.6 C201.564,57.74 195.734,51.18 195.384,45.52 z" fill-opacity="0" stroke="#FEEFC8" stroke-width="0.5"/>
      </g>
      <g>
        <path d="M274.954,45.64 C277.004,45.46 279.184,44.69 281.174,45.61 C282.954,47.25 282.264,49.74 282.204,51.86 C279.724,52.52 277.174,52.86 274.634,52.5 C274.714,50.21 274.824,47.92 274.954,45.64 z" fill="#FEF0C9"/>
        <path d="M274.954,45.64 C277.004,45.46 279.184,44.69 281.174,45.61 C282.954,47.25 282.264,49.74 282.204,51.86 C279.724,52.52 277.174,52.86 274.634,52.5 C274.714,50.21 274.824,47.92 274.954,45.64 z" fill-opacity="0" stroke="#FEF0C9" stroke-width="0.5"/>
      </g>
      <g>
        <path d="M153.994,49.71 C155.294,48.1 157.594,48.81 159.394,48.53 C160.214,52.78 157.004,56.56 152.694,56.57 C152.994,54.32 152.104,51.43 153.994,49.71 z" fill="#FEF1CB"/>
        <path d="M153.994,49.71 C155.294,48.1 157.594,48.81 159.394,48.53 C160.214,52.78 157.004,56.56 152.694,56.57 C152.994,54.32 152.104,51.43 153.994,49.71 z" fill-opacity="0" stroke="#FEF1CB" stroke-width="0.5"/>
      </g>
      <g>
        <path d="M82.384,60.95 C83.234,59.38 83.724,57.15 85.684,56.59 C88.504,57 90.344,59.68 90.914,62.32 C87.974,62.75 85.044,62.26 82.384,60.95 z" fill="#FEEEC7"/>
        <path d="M82.384,60.95 C83.234,59.38 83.724,57.15 85.684,56.59 C88.504,57 90.344,59.68 90.914,62.32 C87.974,62.75 85.044,62.26 82.384,60.95 z" fill-opacity="0" stroke="#FEEEC7" stroke-width="0.5"/>
      </g>
      <g>
        <path d="M246.704,59.31 C248.714,58.86 250.724,58.46 252.754,58.1 C252.424,60.05 252.734,62.45 251.084,63.9 C249.834,64.77 248.324,65.1 246.924,65.63 C246.834,63.52 246.764,61.41 246.704,59.31 z" fill="#FEF0C9"/>
        <path d="M246.704,59.31 C248.714,58.86 250.724,58.46 252.754,58.1 C252.424,60.05 252.734,62.45 251.084,63.9 C249.834,64.77 248.324,65.1 246.924,65.63 C246.834,63.52 246.764,61.41 246.704,59.31 z" fill-opacity="0" stroke="#FEF0C9" stroke-width="0.5"/>
      </g>
      <g>
        <path d="M63.494,66.29 C67.594,64.45 70.554,68.5 70.734,72.23 C68.904,72.1 66.984,72.34 65.234,71.68 C63.444,70.52 63.934,68.09 63.494,66.29 z" fill="#FEF0CA"/>
        <path d="M63.494,66.29 C67.594,64.45 70.554,68.5 70.734,72.23 C68.904,72.1 66.984,72.34 65.234,71.68 C63.444,70.52 63.934,68.09 63.494,66.29 z" fill-opacity="0" stroke="#FEF0CA" stroke-width="0.5"/>
      </g>
      <g>
        <path d="M269.074,70.8 C270.224,69.45 272.054,70.14 273.544,70.25 C273.384,71.76 273.344,73.3 273.004,74.8 C272.284,76.49 270.344,76.83 268.844,77.47 C268.724,75.33 267.274,72.59 269.074,70.8 z" fill="#FEF4D0"/>
        <path d="M269.074,70.8 C270.224,69.45 272.054,70.14 273.544,70.25 C273.384,71.76 273.344,73.3 273.004,74.8 C272.284,76.49 270.344,76.83 268.844,77.47 C268.724,75.33 267.274,72.59 269.074,70.8 z" fill-opacity="0" stroke="#FEF4D0" stroke-width="0.5"/>
      </g>
      <g>
        <path d="M8.664,72.88 C11.214,77.57 13.314,82.89 17.904,86.01 C29.094,94.62 44.004,94.06 57.304,95.96 C64.994,97.47 72.854,97.33 80.624,98.04 C87.754,98.64 94.964,97.86 102.054,99.04 C114.124,101.24 126.414,99.89 138.594,100.38 C166.274,101.07 193.954,100.26 221.624,100.27 C227.654,100.18 233.514,98.5 239.544,98.39 C251.604,98.16 263.674,97.34 275.584,95.4 C284.714,94.77 293.654,92.72 302.684,91.34 C308.234,90.43 313.264,87.69 318.004,84.79 C322.654,82.07 325.064,77.07 328.434,73.08 C328.324,76.85 328.104,80.62 327.534,84.35 C326.234,90.32 321.734,95.11 316.634,98.2 C306.434,104.96 293.694,104.86 282.064,107.08 C271.834,109.26 261.274,108.6 251.024,110.54 C243.694,111.8 236.224,111.07 228.844,111.77 C216.114,112.91 203.334,112.13 190.584,112.36 C164.784,112.79 138.974,112.13 113.164,112.4 C102.694,110.99 92.114,111.74 81.624,110.83 C73.284,109.17 64.764,109.22 56.324,108.57 C44.084,106.77 31.494,105.82 19.984,100.95 C19.784,100.82 19.394,100.56 19.194,100.43 C16.464,97.76 13.904,94.9 11.754,91.75 C10.394,88.79 9.314,85.72 8.304,82.63 C7.524,79.99 6.974,77.11 7.664,74.4 C7.914,74.02 8.414,73.26 8.664,72.88 z" fill="#C27636"/>
        <path d="M8.664,72.88 C11.214,77.57 13.314,82.89 17.904,86.01 C29.094,94.62 44.004,94.06 57.304,95.96 C64.994,97.47 72.854,97.33 80.624,98.04 C87.754,98.64 94.964,97.86 102.054,99.04 C114.124,101.24 126.414,99.89 138.594,100.38 C166.274,101.07 193.954,100.26 221.624,100.27 C227.654,100.18 233.514,98.5 239.544,98.39 C251.604,98.16 263.674,97.34 275.584,95.4 C284.714,94.77 293.654,92.72 302.684,91.34 C308.234,90.43 313.264,87.69 318.004,84.79 C322.654,82.07 325.064,77.07 328.434,73.08 C328.324,76.85 328.104,80.62 327.534,84.35 C326.234,90.32 321.734,95.11 316.634,98.2 C306.434,104.96 293.694,104.86 282.064,107.08 C271.834,109.26 261.274,108.6 251.024,110.54 C243.694,111.8 236.224,111.07 228.844,111.77 C216.114,112.91 203.334,112.13 190.584,112.36 C164.784,112.79 138.974,112.13 113.164,112.4 C102.694,110.99 92.114,111.74 81.624,110.83 C73.284,109.17 64.764,109.22 56.324,108.57 C44.084,106.77 31.494,105.82 19.984,100.95 C19.784,100.82 19.394,100.56 19.194,100.43 C16.464,97.76 13.904,94.9 11.754,91.75 C10.394,88.79 9.314,85.72 8.304,82.63 C7.524,79.99 6.974,77.11 7.664,74.4 C7.914,74.02 8.414,73.26 8.664,72.88 z" fill-opacity="0" stroke="#C27636" stroke-width="0.5"/>
      </g>
      <g>
        <path d="M36.914,74.66 C38.104,73.34 40.074,73.67 41.644,73.3 C41.574,75.08 42.034,77.06 41.034,78.67 C40.174,80.89 37.354,80.15 35.504,80.69 C35.894,78.7 35.304,76.2 36.914,74.66 z" fill="#FEF1CB"/>
        <path d="M36.914,74.66 C38.104,73.34 40.074,73.67 41.644,73.3 C41.574,75.08 42.034,77.06 41.034,78.67 C40.174,80.89 37.354,80.15 35.504,80.69 C35.894,78.7 35.304,76.2 36.914,74.66 z" fill-opacity="0" stroke="#FEF1CB" stroke-width="0.5"/>
      </g>
      <g>
        <path d="M120.694,75.53 C120.984,72.71 124.324,73.7 126.244,73.49 C126.304,76.1 126.304,78.7 126.214,81.31 C123.134,81.25 119.894,78.96 120.694,75.53 z" fill="#FEF1CA"/>
        <path d="M120.694,75.53 C120.984,72.71 124.324,73.7 126.244,73.49 C126.304,76.1 126.304,78.7 126.214,81.31 C123.134,81.25 119.894,78.96 120.694,75.53 z" fill-opacity="0" stroke="#FEF1CA" stroke-width="0.5"/>
      </g>
      <g>
        <path d="M177.444,79.32 C178.704,76.27 181.594,74.83 184.624,74.05 C184.614,74.86 184.594,76.5 184.594,77.32 C182.274,78.22 179.894,78.91 177.444,79.32 z" fill="#F5D6A7"/>
        <path d="M177.444,79.32 C178.704,76.27 181.594,74.83 184.624,74.05 C184.614,74.86 184.594,76.5 184.594,77.32 C182.274,78.22 179.894,78.91 177.444,79.32 z" fill-opacity="0" stroke="#F5D6A7" stroke-width="0.5"/>
      </g>
      <g>
        <path d="M287.934,76.7 C289.024,74.53 291.434,74.89 293.414,75.29 C293.534,78.09 293.394,80.92 292.554,83.61 C290.264,82.03 286.604,80.1 287.934,76.7 z" fill="#FEF0C9"/>
        <path d="M287.934,76.7 C289.024,74.53 291.434,74.89 293.414,75.29 C293.534,78.09 293.394,80.92 292.554,83.61 C290.264,82.03 286.604,80.1 287.934,76.7 z" fill-opacity="0" stroke="#FEF0C9" stroke-width="0.5"/>
      </g>
      <g>
        <path d="M146.824,75.07 C148.834,76.03 150.754,77.17 152.634,78.38 C152.504,80.04 152.394,81.71 152.274,83.38 C150.344,83.06 148.064,82.81 147.124,80.8 C146.674,78.92 146.844,76.98 146.824,75.07 z" fill="#FEF1CA"/>
        <path d="M146.824,75.07 C148.834,76.03 150.754,77.17 152.634,78.38 C152.504,80.04 152.394,81.71 152.274,83.38 C150.344,83.06 148.064,82.81 147.124,80.8 C146.674,78.92 146.844,76.98 146.824,75.07 z" fill-opacity="0" stroke="#FEF1CA" stroke-width="0.5"/>
      </g>
      <g>
        <path d="M222.494,77.3 C223.574,75.47 225.834,75.52 227.664,75.14 C227.734,77.87 227.324,80.57 226.424,83.15 C225.754,83.14 224.414,83.11 223.734,83.1 C223.044,81.31 220.824,79.17 222.494,77.3 z" fill="#FEEFC8"/>
        <path d="M222.494,77.3 C223.574,75.47 225.834,75.52 227.664,75.14 C227.734,77.87 227.324,80.57 226.424,83.15 C225.754,83.14 224.414,83.11 223.734,83.1 C223.044,81.31 220.824,79.17 222.494,77.3 z" fill-opacity="0" stroke="#FEEFC8" stroke-width="0.5"/>
      </g>
      <g>
        <path d="M4.854,83.51 C5.724,83.29 7.444,82.85 8.304,82.63 C9.314,85.72 10.394,88.79 11.754,91.75 C8.994,91.59 6.234,91.37 3.484,91.14 L2.464,91.05 C3.284,88.54 4.134,86.04 4.854,83.51 z" fill="#FEDB3B"/>
        <path d="M4.854,83.51 C5.724,83.29 7.444,82.85 8.304,82.63 C9.314,85.72 10.394,88.79 11.754,91.75 C8.994,91.59 6.234,91.37 3.484,91.14 L2.464,91.05 C3.284,88.54 4.134,86.04 4.854,83.51 z" fill-opacity="0" stroke="#FEDB3B" stroke-width="0.5"/>
      </g>
      <g>
        <path d="M89.024,83.63 C92.024,82.95 95.114,83.03 98.114,83.73 C98.174,84.34 98.294,85.56 98.354,86.16 C95.274,87.71 91.834,88 88.784,86.19 C88.844,85.55 88.964,84.27 89.024,83.63 z" fill="#FEEEC6"/>
        <path d="M89.024,83.63 C92.024,82.95 95.114,83.03 98.114,83.73 C98.174,84.34 98.294,85.56 98.354,86.16 C95.274,87.71 91.834,88 88.784,86.19 C88.844,85.55 88.964,84.27 89.024,83.63 z" fill-opacity="0" stroke="#FEEEC6" stroke-width="0.5"/>
      </g>
      <g>
        <path d="M3.484,91.14 C6.234,91.37 8.994,91.59 11.754,91.75 C13.904,94.9 16.464,97.76 19.194,100.43 C13.804,98.19 8.064,97.05 2.584,95.09 C2.854,93.76 3.154,92.44 3.484,91.14 z" fill="#F3A84F"/>
        <path d="M3.484,91.14 C6.234,91.37 8.994,91.59 11.754,91.75 C13.904,94.9 16.464,97.76 19.194,100.43 C13.804,98.19 8.064,97.05 2.584,95.09 C2.854,93.76 3.154,92.44 3.484,91.14 z" fill-opacity="0" stroke="#F3A84F" stroke-width="0.5"/>
      </g>
      <g>
        <path d="M282.064,107.08 C293.694,104.86 306.434,104.96 316.634,98.2 C316.784,98.74 317.084,99.83 317.234,100.38 C315.504,102.28 313.424,103.91 310.944,104.67 C300.954,107.86 290.454,108.67 280.214,110.65 C271.404,112.23 262.364,111.63 253.584,113.37 C246.294,114.89 238.784,113.88 231.474,115.22 C221.274,117.05 210.884,116.1 200.594,116.34 C179.584,116.25 158.584,116.81 137.584,116.29 C130.614,116.24 123.644,116.44 116.674,116.32 C115.454,115.05 114.304,113.73 113.164,112.4 C138.974,112.13 164.784,112.79 190.584,112.36 C203.334,112.13 216.114,112.91 228.844,111.77 C236.224,111.07 243.694,111.8 251.024,110.54 C261.274,108.6 271.834,109.26 282.064,107.08 z" fill="#60892C"/>
        <path d="M282.064,107.08 C293.694,104.86 306.434,104.96 316.634,98.2 C316.784,98.74 317.084,99.83 317.234,100.38 C315.504,102.28 313.424,103.91 310.944,104.67 C300.954,107.86 290.454,108.67 280.214,110.65 C271.404,112.23 262.364,111.63 253.584,113.37 C246.294,114.89 238.784,113.88 231.474,115.22 C221.274,117.05 210.884,116.1 200.594,116.34 C179.584,116.25 158.584,116.81 137.584,116.29 C130.614,116.24 123.644,116.44 116.674,116.32 C115.454,115.05 114.304,113.73 113.164,112.4 C138.974,112.13 164.784,112.79 190.584,112.36 C203.334,112.13 216.114,112.91 228.844,111.77 C236.224,111.07 243.694,111.8 251.024,110.54 C261.274,108.6 271.834,109.26 282.064,107.08 z" fill-opacity="0" stroke="#60892C" stroke-width="0.5"/>
      </g>
      <g>
        <path d="M19.984,100.95 C31.494,105.82 44.084,106.77 56.324,108.57 C56.914,109.41 57.524,110.25 58.154,111.08 C54.234,111.33 50.284,111.28 46.444,110.48 C39.044,108.99 31.514,108.2 24.174,106.44 C21.854,105.48 20.734,103.18 19.984,100.95 z" fill="#62892D"/>
        <path d="M19.984,100.95 C31.494,105.82 44.084,106.77 56.324,108.57 C56.914,109.41 57.524,110.25 58.154,111.08 C54.234,111.33 50.284,111.28 46.444,110.48 C39.044,108.99 31.514,108.2 24.174,106.44 C21.854,105.48 20.734,103.18 19.984,100.95 z" fill-opacity="0" stroke="#62892D" stroke-width="0.5"/>
      </g>
      <g>
        <path d="M317.234,100.38 C318.474,102.65 319.564,105 320.744,107.31 C319.014,108.92 317.404,110.66 315.504,112.07 C308.884,117.08 300.634,118.89 292.604,120.11 C289.084,118.1 286.144,115.32 283.014,112.79 C281.924,111.93 280.704,112.97 279.774,113.51 C275.894,116.15 272.154,119.36 267.374,120.14 C261.694,121.5 255.944,119.74 250.734,117.54 C249.864,118.29 249.004,119.04 248.134,119.79 C247.284,120.49 246.414,121.18 245.534,121.84 C241.914,124.84 237.304,126.6 232.564,125.91 C224.474,125.78 217.874,120.6 210.474,118.15 C199.624,118.92 189.274,122.65 178.494,123.9 C177.464,124.24 176.434,124.59 175.424,124.95 C173.074,125.26 170.714,125.35 168.374,125.65 C166.644,124.28 164.894,122.93 163.034,121.76 C158.934,119.74 154.554,117.37 149.864,117.65 C144.364,119.71 140.284,124.45 134.684,126.39 C130.154,128.14 125.044,127.86 120.604,126 C120.874,124.36 122.344,122.46 120.924,120.98 C119.704,119.25 118.124,117.83 116.674,116.32 C123.644,116.44 130.614,116.24 137.584,116.29 C158.584,116.81 179.584,116.25 200.594,116.34 C210.884,116.1 221.274,117.05 231.474,115.22 C238.784,113.88 246.294,114.89 253.584,113.37 C262.364,111.63 271.404,112.23 280.214,110.65 C290.454,108.67 300.954,107.86 310.944,104.67 C313.424,103.91 315.504,102.28 317.234,100.38 z" fill="#97AF32"/>
        <path d="M317.234,100.38 C318.474,102.65 319.564,105 320.744,107.31 C319.014,108.92 317.404,110.66 315.504,112.07 C308.884,117.08 300.634,118.89 292.604,120.11 C289.084,118.1 286.144,115.32 283.014,112.79 C281.924,111.93 280.704,112.97 279.774,113.51 C275.894,116.15 272.154,119.36 267.374,120.14 C261.694,121.5 255.944,119.74 250.734,117.54 C249.864,118.29 249.004,119.04 248.134,119.79 C247.284,120.49 246.414,121.18 245.534,121.84 C241.914,124.84 237.304,126.6 232.564,125.91 C224.474,125.78 217.874,120.6 210.474,118.15 C199.624,118.92 189.274,122.65 178.494,123.9 C177.464,124.24 176.434,124.59 175.424,124.95 C173.074,125.26 170.714,125.35 168.374,125.65 C166.644,124.28 164.894,122.93 163.034,121.76 C158.934,119.74 154.554,117.37 149.864,117.65 C144.364,119.71 140.284,124.45 134.684,126.39 C130.154,128.14 125.044,127.86 120.604,126 C120.874,124.36 122.344,122.46 120.924,120.98 C119.704,119.25 118.124,117.83 116.674,116.32 C123.644,116.44 130.614,116.24 137.584,116.29 C158.584,116.81 179.584,116.25 200.594,116.34 C210.884,116.1 221.274,117.05 231.474,115.22 C238.784,113.88 246.294,114.89 253.584,113.37 C262.364,111.63 271.404,112.23 280.214,110.65 C290.454,108.67 300.954,107.86 310.944,104.67 C313.424,103.91 315.504,102.28 317.234,100.38 z" fill-opacity="0" stroke="#97AF32" stroke-width="0.5"/>
      </g>
      <g>
        <path d="M24.174,106.44 C31.514,108.2 39.044,108.99 46.444,110.48 C50.284,111.28 54.234,111.33 58.154,111.08 C63.704,115.72 70.094,119.29 76.804,121.97 C74.824,122.35 72.874,122.84 70.904,123.23 C67.964,123.62 65.004,123.81 62.044,123.98 C50.394,121.26 41.804,110.57 29.264,110.87 C27.604,109.35 25.774,108.01 24.174,106.44 z" fill="#97AF32"/>
        <path d="M24.174,106.44 C31.514,108.2 39.044,108.99 46.444,110.48 C50.284,111.28 54.234,111.33 58.154,111.08 C63.704,115.72 70.094,119.29 76.804,121.97 C74.824,122.35 72.874,122.84 70.904,123.23 C67.964,123.62 65.004,123.81 62.044,123.98 C50.394,121.26 41.804,110.57 29.264,110.87 C27.604,109.35 25.774,108.01 24.174,106.44 z" fill-opacity="0" stroke="#97AF32" stroke-width="0.5"/>
      </g>
      <g>
        <path d="M56.324,108.57 C64.764,109.22 73.284,109.17 81.624,110.83 C92.114,111.74 102.694,110.99 113.164,112.4 C114.304,113.73 115.454,115.05 116.674,116.32 C118.124,117.83 119.704,119.25 120.924,120.98 C122.344,122.46 120.874,124.36 120.604,126 C113.654,127.33 106.574,127.32 99.534,127.19 C91.614,127.31 84.394,123.62 76.804,121.97 C70.094,119.29 63.704,115.72 58.154,111.08 C57.524,110.25 56.914,109.41 56.324,108.57 z" fill="#C6282D"/>
        <path d="M56.324,108.57 C64.764,109.22 73.284,109.17 81.624,110.83 C92.114,111.74 102.694,110.99 113.164,112.4 C114.304,113.73 115.454,115.05 116.674,116.32 C118.124,117.83 119.704,119.25 120.924,120.98 C122.344,122.46 120.874,124.36 120.604,126 C113.654,127.33 106.574,127.32 99.534,127.19 C91.614,127.31 84.394,123.62 76.804,121.97 C70.094,119.29 63.704,115.72 58.154,111.08 C57.524,110.25 56.914,109.41 56.324,108.57 z" fill-opacity="0" stroke="#C6282D" stroke-width="0.5"/>
      </g>
      <g>
        <path d="M21.604,113.33 C23.594,111.34 26.574,110.93 29.264,110.87 C41.804,110.57 50.394,121.26 62.044,123.98 C70.254,129.93 79.784,133.59 88.694,138.32 C92.394,140.19 96.214,142.48 100.524,142.27 C108.074,141.91 115.034,138.63 122.384,137.21 C132.254,135.28 141.914,132.39 151.744,130.27 C157.374,129.05 162.904,127.43 168.374,125.65 C170.714,125.35 173.074,125.26 175.424,124.95 C177.584,127.05 180.074,128.85 182.944,129.86 C191.174,132.75 199.834,134.53 208.574,134.5 C218.224,134.46 228.134,135.22 237.464,132.24 C241.704,131 245.744,129.17 249.854,127.59 C254.064,125.81 258.354,128.4 262.424,129.41 C269.774,131.42 278.304,133.13 285.264,129 C288.374,127.39 290.204,124.31 291.844,121.35 C292.034,121.04 292.414,120.42 292.604,120.11 C300.634,118.89 308.884,117.08 315.504,112.07 C318.054,114.62 320.974,116.87 323.054,119.86 C324.714,122.79 324.964,126.21 324.964,129.51 C318.544,132.55 314.044,138.74 307.004,140.64 C296.464,143.58 285.524,145.05 274.594,145.28 C268.194,145.4 262.004,147.37 255.604,147.32 C249.834,147.29 244.074,147.42 238.334,147.95 C225.764,149.01 213.114,147.49 200.584,149.13 C190.644,150.49 180.584,150.11 170.584,150.23 C161.224,150.17 151.824,150.57 142.534,149.21 C131.804,147.55 120.924,148.99 110.154,147.84 C102.644,147.05 95.014,147.88 87.574,146.35 C80.664,144.96 73.584,145.23 66.614,144.51 C60.404,143.95 54.324,142.53 48.134,141.86 C40.014,141.02 32.344,137.98 24.804,135.03 C19.904,133.16 16.374,129.08 14.344,124.35 C14.384,127.58 14.344,130.81 14.704,134.03 L13.424,134.19 C13.574,129.76 12.504,124.86 15.074,120.91 C16.484,117.8 19.254,115.7 21.604,113.33 z" fill="#783C29"/>
        <path d="M21.604,113.33 C23.594,111.34 26.574,110.93 29.264,110.87 C41.804,110.57 50.394,121.26 62.044,123.98 C70.254,129.93 79.784,133.59 88.694,138.32 C92.394,140.19 96.214,142.48 100.524,142.27 C108.074,141.91 115.034,138.63 122.384,137.21 C132.254,135.28 141.914,132.39 151.744,130.27 C157.374,129.05 162.904,127.43 168.374,125.65 C170.714,125.35 173.074,125.26 175.424,124.95 C177.584,127.05 180.074,128.85 182.944,129.86 C191.174,132.75 199.834,134.53 208.574,134.5 C218.224,134.46 228.134,135.22 237.464,132.24 C241.704,131 245.744,129.17 249.854,127.59 C254.064,125.81 258.354,128.4 262.424,129.41 C269.774,131.42 278.304,133.13 285.264,129 C288.374,127.39 290.204,124.31 291.844,121.35 C292.034,121.04 292.414,120.42 292.604,120.11 C300.634,118.89 308.884,117.08 315.504,112.07 C318.054,114.62 320.974,116.87 323.054,119.86 C324.714,122.79 324.964,126.21 324.964,129.51 C318.544,132.55 314.044,138.74 307.004,140.64 C296.464,143.58 285.524,145.05 274.594,145.28 C268.194,145.4 262.004,147.37 255.604,147.32 C249.834,147.29 244.074,147.42 238.334,147.95 C225.764,149.01 213.114,147.49 200.584,149.13 C190.644,150.49 180.584,150.11 170.584,150.23 C161.224,150.17 151.824,150.57 142.534,149.21 C131.804,147.55 120.924,148.99 110.154,147.84 C102.644,147.05 95.014,147.88 87.574,146.35 C80.664,144.96 73.584,145.23 66.614,144.51 C60.404,143.95 54.324,142.53 48.134,141.86 C40.014,141.02 32.344,137.98 24.804,135.03 C19.904,133.16 16.374,129.08 14.344,124.35 C14.384,127.58 14.344,130.81 14.704,134.03 L13.424,134.19 C13.574,129.76 12.504,124.86 15.074,120.91 C16.484,117.8 19.254,115.7 21.604,113.33 z" fill-opacity="0" stroke="#783C29" stroke-width="0.5"/>
      </g>
      <g>
        <path d="M279.774,113.51 C280.704,112.97 281.924,111.93 283.014,112.79 C286.144,115.32 289.084,118.1 292.604,120.11 C292.414,120.42 292.034,121.04 291.844,121.35 C288.794,124.14 285.714,127.44 281.524,128.34 C269.894,129.96 257.304,127.38 248.134,119.79 C249.004,119.04 249.864,118.29 250.734,117.54 C255.944,119.74 261.694,121.5 267.374,120.14 C272.154,119.36 275.894,116.15 279.774,113.51 z" fill="#F1F1F2"/>
        <path d="M279.774,113.51 C280.704,112.97 281.924,111.93 283.014,112.79 C286.144,115.32 289.084,118.1 292.604,120.11 C292.414,120.42 292.034,121.04 291.844,121.35 C288.794,124.14 285.714,127.44 281.524,128.34 C269.894,129.96 257.304,127.38 248.134,119.79 C249.004,119.04 249.864,118.29 250.734,117.54 C255.944,119.74 261.694,121.5 267.374,120.14 C272.154,119.36 275.894,116.15 279.774,113.51 z" fill-opacity="0" stroke="#F1F1F2" stroke-width="0.5"/>
      </g>
      <g>
        <path d="M134.684,126.39 C140.284,124.45 144.364,119.71 149.864,117.65 C154.554,117.37 158.934,119.74 163.034,121.76 C156.464,123.19 150.174,125.59 143.684,127.29 C133.064,129.81 122.444,132.33 111.784,134.69 C106.904,135.76 101.784,137.86 96.814,136.12 C91.284,134.3 86.184,131.43 80.824,129.2 C77.234,127.72 73.834,125.8 70.904,123.23 C72.874,122.84 74.824,122.35 76.804,121.97 C84.394,123.62 91.614,127.31 99.534,127.19 C106.574,127.32 113.654,127.33 120.604,126 C125.044,127.86 130.154,128.14 134.684,126.39 z" fill="#FEDA3D"/>
        <path d="M134.684,126.39 C140.284,124.45 144.364,119.71 149.864,117.65 C154.554,117.37 158.934,119.74 163.034,121.76 C156.464,123.19 150.174,125.59 143.684,127.29 C133.064,129.81 122.444,132.33 111.784,134.69 C106.904,135.76 101.784,137.86 96.814,136.12 C91.284,134.3 86.184,131.43 80.824,129.2 C77.234,127.72 73.834,125.8 70.904,123.23 C72.874,122.84 74.824,122.35 76.804,121.97 C84.394,123.62 91.614,127.31 99.534,127.19 C106.574,127.32 113.654,127.33 120.604,126 C125.044,127.86 130.154,128.14 134.684,126.39 z" fill-opacity="0" stroke="#FEDA3D" stroke-width="0.5"/>
      </g>
      <g>
        <path d="M178.494,123.9 C189.274,122.65 199.624,118.92 210.474,118.15 C217.874,120.6 224.474,125.78 232.564,125.91 C237.304,126.6 241.914,124.84 245.534,121.84 C246.984,122.78 248.754,123.49 249.614,125.11 C241.264,130.1 231.404,131.32 221.894,132.13 C214.794,133.48 207.704,131.62 200.604,131.24 C192.844,130.72 185.384,128.26 178.334,125.07 C178.374,124.78 178.454,124.19 178.494,123.9 z" fill="#F1F1F2"/>
        <path d="M178.494,123.9 C189.274,122.65 199.624,118.92 210.474,118.15 C217.874,120.6 224.474,125.78 232.564,125.91 C237.304,126.6 241.914,124.84 245.534,121.84 C246.984,122.78 248.754,123.49 249.614,125.11 C241.264,130.1 231.404,131.32 221.894,132.13 C214.794,133.48 207.704,131.62 200.604,131.24 C192.844,130.72 185.384,128.26 178.334,125.07 C178.374,124.78 178.454,124.19 178.494,123.9 z" fill-opacity="0" stroke="#F1F1F2" stroke-width="0.5"/>
      </g>
      <g>
        <path d="M245.534,121.84 C246.414,121.18 247.284,120.49 248.134,119.79 C257.304,127.38 269.894,129.96 281.524,128.34 C285.714,127.44 288.794,124.14 291.844,121.35 C290.204,124.31 288.374,127.39 285.264,129 C278.304,133.13 269.774,131.42 262.424,129.41 C258.354,128.4 254.064,125.81 249.854,127.59 C245.744,129.17 241.704,131 237.464,132.24 C228.134,135.22 218.224,134.46 208.574,134.5 C199.834,134.53 191.174,132.75 182.944,129.86 C180.074,128.85 177.584,127.05 175.424,124.95 C176.434,124.59 177.464,124.24 178.494,123.9 C178.454,124.19 178.374,124.78 178.334,125.07 C185.384,128.26 192.844,130.72 200.604,131.24 C207.704,131.62 214.794,133.48 221.894,132.13 C231.404,131.32 241.264,130.1 249.614,125.11 C248.754,123.49 246.984,122.78 245.534,121.84 z" fill="#9CABB1"/>
        <path d="M245.534,121.84 C246.414,121.18 247.284,120.49 248.134,119.79 C257.304,127.38 269.894,129.96 281.524,128.34 C285.714,127.44 288.794,124.14 291.844,121.35 C290.204,124.31 288.374,127.39 285.264,129 C278.304,133.13 269.774,131.42 262.424,129.41 C258.354,128.4 254.064,125.81 249.854,127.59 C245.744,129.17 241.704,131 237.464,132.24 C228.134,135.22 218.224,134.46 208.574,134.5 C199.834,134.53 191.174,132.75 182.944,129.86 C180.074,128.85 177.584,127.05 175.424,124.95 C176.434,124.59 177.464,124.24 178.494,123.9 C178.454,124.19 178.374,124.78 178.334,125.07 C185.384,128.26 192.844,130.72 200.604,131.24 C207.704,131.62 214.794,133.48 221.894,132.13 C231.404,131.32 241.264,130.1 249.614,125.11 C248.754,123.49 246.984,122.78 245.534,121.84 z" fill-opacity="0" stroke="#9CABB1" stroke-width="0.5"/>
      </g>
      <g>
        <path d="M143.684,127.29 C150.174,125.59 156.464,123.19 163.034,121.76 C164.894,122.93 166.644,124.28 168.374,125.65 C162.904,127.43 157.374,129.05 151.744,130.27 C141.914,132.39 132.254,135.28 122.384,137.21 C115.034,138.63 108.074,141.91 100.524,142.27 C96.214,142.48 92.394,140.19 88.694,138.32 C79.784,133.59 70.254,129.93 62.044,123.98 C65.004,123.81 67.964,123.62 70.904,123.23 C73.834,125.8 77.234,127.72 80.824,129.2 C86.184,131.43 91.284,134.3 96.814,136.12 C101.784,137.86 106.904,135.76 111.784,134.69 C122.444,132.33 133.064,129.81 143.684,127.29 z" fill="#F4AA51"/>
        <path d="M143.684,127.29 C150.174,125.59 156.464,123.19 163.034,121.76 C164.894,122.93 166.644,124.28 168.374,125.65 C162.904,127.43 157.374,129.05 151.744,130.27 C141.914,132.39 132.254,135.28 122.384,137.21 C115.034,138.63 108.074,141.91 100.524,142.27 C96.214,142.48 92.394,140.19 88.694,138.32 C79.784,133.59 70.254,129.93 62.044,123.98 C65.004,123.81 67.964,123.62 70.904,123.23 C73.834,125.8 77.234,127.72 80.824,129.2 C86.184,131.43 91.284,134.3 96.814,136.12 C101.784,137.86 106.904,135.76 111.784,134.69 C122.444,132.33 133.064,129.81 143.684,127.29 z" fill-opacity="0" stroke="#F4AA51" stroke-width="0.5"/>
      </g>
      <g>
        <path d="M14.344,124.35 C16.374,129.08 19.904,133.16 24.804,135.03 C32.344,137.98 40.014,141.02 48.134,141.86 C54.324,142.53 60.404,143.95 66.614,144.51 C73.584,145.23 80.664,144.96 87.574,146.35 C95.014,147.88 102.644,147.05 110.154,147.84 C120.924,148.99 131.804,147.55 142.534,149.21 C151.824,150.57 161.224,150.17 170.584,150.23 C180.584,150.11 190.644,150.49 200.584,149.13 C213.114,147.49 225.764,149.01 238.334,147.95 C244.074,147.42 249.834,147.29 255.604,147.32 C262.004,147.37 268.194,145.4 274.594,145.28 C285.524,145.05 296.464,143.58 307.004,140.64 C314.044,138.74 318.544,132.55 324.964,129.51 C325.084,133.9 322.774,137.75 320.504,141.32 C318.554,143.01 316.314,144.34 314.104,145.64 C308.304,148.77 301.694,149.79 295.594,152.16 C286.844,153.17 277.924,152.72 269.304,154.7 C260.454,155.54 251.534,155.12 242.724,156.38 C231.924,156.83 221.024,155.53 210.304,157.33 C206.674,157.89 203.024,158.32 199.364,158.49 C184.764,158.59 170.174,157.77 155.584,158.32 C148.094,158.62 140.524,158.64 133.114,157.32 C124.324,155.72 115.354,157.21 106.514,156.18 C99.574,155.46 92.594,155.37 85.644,154.94 C74.654,152.88 63.314,153.52 52.384,150.91 C41.584,148.42 30.174,147.14 20.524,141.23 C17.504,139.9 15.484,137.19 14.704,134.03 C14.344,130.81 14.384,127.58 14.344,124.35 z" fill="#522417"/>
        <path d="M14.344,124.35 C16.374,129.08 19.904,133.16 24.804,135.03 C32.344,137.98 40.014,141.02 48.134,141.86 C54.324,142.53 60.404,143.95 66.614,144.51 C73.584,145.23 80.664,144.96 87.574,146.35 C95.014,147.88 102.644,147.05 110.154,147.84 C120.924,148.99 131.804,147.55 142.534,149.21 C151.824,150.57 161.224,150.17 170.584,150.23 C180.584,150.11 190.644,150.49 200.584,149.13 C213.114,147.49 225.764,149.01 238.334,147.95 C244.074,147.42 249.834,147.29 255.604,147.32 C262.004,147.37 268.194,145.4 274.594,145.28 C285.524,145.05 296.464,143.58 307.004,140.64 C314.044,138.74 318.544,132.55 324.964,129.51 C325.084,133.9 322.774,137.75 320.504,141.32 C318.554,143.01 316.314,144.34 314.104,145.64 C308.304,148.77 301.694,149.79 295.594,152.16 C286.844,153.17 277.924,152.72 269.304,154.7 C260.454,155.54 251.534,155.12 242.724,156.38 C231.924,156.83 221.024,155.53 210.304,157.33 C206.674,157.89 203.024,158.32 199.364,158.49 C184.764,158.59 170.174,157.77 155.584,158.32 C148.094,158.62 140.524,158.64 133.114,157.32 C124.324,155.72 115.354,157.21 106.514,156.18 C99.574,155.46 92.594,155.37 85.644,154.94 C74.654,152.88 63.314,153.52 52.384,150.91 C41.584,148.42 30.174,147.14 20.524,141.23 C17.504,139.9 15.484,137.19 14.704,134.03 C14.344,130.81 14.384,127.58 14.344,124.35 z" fill-opacity="0" stroke="#522417" stroke-width="0.5"/>
      </g>
      <g>
        <path d="M12.814,142.62 C15.324,142.06 17.914,140.33 20.524,141.23 C30.174,147.14 41.584,148.42 52.384,150.91 C63.314,153.52 74.654,152.88 85.644,154.94 C92.594,155.37 99.574,155.46 106.514,156.18 C115.354,157.21 124.324,155.72 133.114,157.32 C140.524,158.64 148.094,158.62 155.584,158.32 C170.174,157.77 184.764,158.59 199.364,158.49 C202.114,161.17 204.934,163.79 207.914,166.22 C204.204,165.73 200.514,165.06 196.924,163.98 C189.594,161.78 181.884,161.01 174.264,161.48 C179.434,167.2 187.344,169.01 194.654,170.21 C201.324,170.86 208.314,173.65 214.804,170.61 C214.064,169.59 213.324,168.58 212.574,167.58 C220.724,170.36 229.364,171.23 237.834,172.51 C229.954,175.28 221.524,179.71 213.014,177.05 C200.054,174.04 186.854,172.18 173.734,170.05 C166.034,169.54 158.544,167.48 150.854,166.89 C139.124,166.03 127.734,162.7 115.994,161.85 C111.584,161.52 107.194,161 102.854,160.19 C95.074,158.74 87.094,158.91 79.314,157.45 C70.204,155.72 60.864,155.94 51.754,154.27 C43.104,152.65 34.224,153 25.594,151.26 C21.214,150.39 16.754,150.15 12.304,150.17 C12.404,147.65 12.594,145.13 12.814,142.62 z" fill="#FFDB3D"/>
        <path d="M12.814,142.62 C15.324,142.06 17.914,140.33 20.524,141.23 C30.174,147.14 41.584,148.42 52.384,150.91 C63.314,153.52 74.654,152.88 85.644,154.94 C92.594,155.37 99.574,155.46 106.514,156.18 C115.354,157.21 124.324,155.72 133.114,157.32 C140.524,158.64 148.094,158.62 155.584,158.32 C170.174,157.77 184.764,158.59 199.364,158.49 C202.114,161.17 204.934,163.79 207.914,166.22 C204.204,165.73 200.514,165.06 196.924,163.98 C189.594,161.78 181.884,161.01 174.264,161.48 C179.434,167.2 187.344,169.01 194.654,170.21 C201.324,170.86 208.314,173.65 214.804,170.61 C214.064,169.59 213.324,168.58 212.574,167.58 C220.724,170.36 229.364,171.23 237.834,172.51 C229.954,175.28 221.524,179.71 213.014,177.05 C200.054,174.04 186.854,172.18 173.734,170.05 C166.034,169.54 158.544,167.48 150.854,166.89 C139.124,166.03 127.734,162.7 115.994,161.85 C111.584,161.52 107.194,161 102.854,160.19 C95.074,158.74 87.094,158.91 79.314,157.45 C70.204,155.72 60.864,155.94 51.754,154.27 C43.104,152.65 34.224,153 25.594,151.26 C21.214,150.39 16.754,150.15 12.304,150.17 C12.404,147.65 12.594,145.13 12.814,142.62 z" fill-opacity="0" stroke="#FFDB3D" stroke-width="0.5"/>
      </g>
      <g>
        <path d="M295.594,152.16 C301.694,149.79 308.304,148.77 314.104,145.64 C316.134,146.66 318.294,147.47 320.204,148.74 C321.854,150.45 321.424,153.08 321.604,155.26 C315.164,155.86 308.724,156.48 302.414,157.94 C298.104,158.94 293.644,159.21 289.254,158.7 C291.434,156.59 293.444,154.31 295.594,152.16 z" fill="#FFDA3D"/>
        <path d="M295.594,152.16 C301.694,149.79 308.304,148.77 314.104,145.64 C316.134,146.66 318.294,147.47 320.204,148.74 C321.854,150.45 321.424,153.08 321.604,155.26 C315.164,155.86 308.724,156.48 302.414,157.94 C298.104,158.94 293.644,159.21 289.254,158.7 C291.434,156.59 293.444,154.31 295.594,152.16 z" fill-opacity="0" stroke="#FFDA3D" stroke-width="0.5"/>
      </g>
      <g>
        <path d="M12.304,150.17 C16.754,150.15 21.214,150.39 25.594,151.26 C34.224,153 43.104,152.65 51.754,154.27 C60.864,155.94 70.204,155.72 79.314,157.45 C87.094,158.91 95.074,158.74 102.854,160.19 C107.194,161 111.584,161.52 115.994,161.85 C127.734,162.7 139.124,166.03 150.854,166.89 C158.544,167.48 166.034,169.54 173.734,170.05 C186.854,172.18 200.054,174.04 213.014,177.05 C221.524,179.71 229.954,175.28 237.834,172.51 C243.494,172.16 249.224,172.52 254.824,171.44 C257.904,170.83 261.044,170.71 264.184,170.68 C256.894,173.84 248.914,174.74 241.424,177.25 C235.124,179.43 228.744,181.42 222.244,182.89 C216.734,184.1 211.414,181.65 206.034,180.91 C199.104,179.97 192.414,177.9 185.534,176.73 C174.514,175.38 163.634,173.18 152.574,172.14 C142.094,170.17 131.424,169.61 120.914,167.86 C119.014,167.66 117.114,167.53 115.214,167.35 C105.244,166.19 95.304,164.72 85.414,162.97 C78.334,162.01 71.164,161.75 64.104,160.63 C57.244,159.28 50.234,158.95 43.274,158.59 C42.504,158.51 40.954,158.35 40.184,158.27 C33.434,156.58 26.494,156.12 19.564,155.77 C17.184,155.6 14.824,155.35 12.464,155.1 C12.404,153.45 12.344,151.81 12.304,150.17 z" fill="#F3A951"/>
        <path d="M12.304,150.17 C16.754,150.15 21.214,150.39 25.594,151.26 C34.224,153 43.104,152.65 51.754,154.27 C60.864,155.94 70.204,155.72 79.314,157.45 C87.094,158.91 95.074,158.74 102.854,160.19 C107.194,161 111.584,161.52 115.994,161.85 C127.734,162.7 139.124,166.03 150.854,166.89 C158.544,167.48 166.034,169.54 173.734,170.05 C186.854,172.18 200.054,174.04 213.014,177.05 C221.524,179.71 229.954,175.28 237.834,172.51 C243.494,172.16 249.224,172.52 254.824,171.44 C257.904,170.83 261.044,170.71 264.184,170.68 C256.894,173.84 248.914,174.74 241.424,177.25 C235.124,179.43 228.744,181.42 222.244,182.89 C216.734,184.1 211.414,181.65 206.034,180.91 C199.104,179.97 192.414,177.9 185.534,176.73 C174.514,175.38 163.634,173.18 152.574,172.14 C142.094,170.17 131.424,169.61 120.914,167.86 C119.014,167.66 117.114,167.53 115.214,167.35 C105.244,166.19 95.304,164.72 85.414,162.97 C78.334,162.01 71.164,161.75 64.104,160.63 C57.244,159.28 50.234,158.95 43.274,158.59 C42.504,158.51 40.954,158.35 40.184,158.27 C33.434,156.58 26.494,156.12 19.564,155.77 C17.184,155.6 14.824,155.35 12.464,155.1 C12.404,153.45 12.344,151.81 12.304,150.17 z" fill-opacity="0" stroke="#F3A951" stroke-width="0.5"/>
      </g>
      <g>
        <path d="M269.304,154.7 C277.924,152.72 286.844,153.17 295.594,152.16 C293.444,154.31 291.434,156.59 289.254,158.7 C284.094,163.56 277.304,165.9 271.144,169.15 L270.494,169.43 C268.814,168.69 266.914,168.96 265.584,170.22 C265.234,170.34 264.534,170.57 264.184,170.68 C261.044,170.71 257.904,170.83 254.824,171.44 C249.224,172.52 243.494,172.16 237.834,172.51 C229.364,171.23 220.724,170.36 212.574,167.58 C211.024,167.1 209.464,166.66 207.914,166.22 C204.934,163.79 202.114,161.17 199.364,158.49 C203.024,158.32 206.674,157.89 210.304,157.33 C221.024,155.53 231.924,156.83 242.724,156.38 C234.554,157.59 226.284,156.38 218.114,157.48 C225.494,161.74 234.294,161.57 242.534,162.22 C255.914,162.09 269.724,160.31 281.794,154.2 C277.614,154.08 273.444,154.22 269.304,154.7 z" fill="#CB2D1D"/>
        <path d="M269.304,154.7 C277.924,152.72 286.844,153.17 295.594,152.16 C293.444,154.31 291.434,156.59 289.254,158.7 C284.094,163.56 277.304,165.9 271.144,169.15 L270.494,169.43 C268.814,168.69 266.914,168.96 265.584,170.22 C265.234,170.34 264.534,170.57 264.184,170.68 C261.044,170.71 257.904,170.83 254.824,171.44 C249.224,172.52 243.494,172.16 237.834,172.51 C229.364,171.23 220.724,170.36 212.574,167.58 C211.024,167.1 209.464,166.66 207.914,166.22 C204.934,163.79 202.114,161.17 199.364,158.49 C203.024,158.32 206.674,157.89 210.304,157.33 C221.024,155.53 231.924,156.83 242.724,156.38 C234.554,157.59 226.284,156.38 218.114,157.48 C225.494,161.74 234.294,161.57 242.534,162.22 C255.914,162.09 269.724,160.31 281.794,154.2 C277.614,154.08 273.444,154.22 269.304,154.7 z" fill-opacity="0" stroke="#CB2D1D" stroke-width="0.5"/>
      </g>
      <g>
        <path d="M269.304,154.7 C273.444,154.22 277.614,154.08 281.794,154.2 C269.724,160.31 255.914,162.09 242.534,162.22 C234.294,161.57 225.494,161.74 218.114,157.48 C226.284,156.38 234.554,157.59 242.724,156.38 C251.534,155.12 260.454,155.54 269.304,154.7 z" fill="#EF4C2B"/>
        <path d="M269.304,154.7 C273.444,154.22 277.614,154.08 281.794,154.2 C269.724,160.31 255.914,162.09 242.534,162.22 C234.294,161.57 225.494,161.74 218.114,157.48 C226.284,156.38 234.554,157.59 242.724,156.38 C251.534,155.12 260.454,155.54 269.304,154.7 z" fill-opacity="0" stroke="#EF4C2B" stroke-width="0.5"/>
      </g>
      <g>
        <path d="M19.564,155.77 C26.494,156.12 33.434,156.58 40.184,158.27 C43.614,162.13 47.764,165.41 52.574,167.37 C60.224,170.54 68.314,172.68 76.554,173.59 C82.514,174.58 88.564,175.74 94.634,174.94 C103.624,173.59 112.804,172.23 120.914,167.86 C131.424,169.61 142.094,170.17 152.574,172.14 C163.634,173.18 174.514,175.38 185.534,176.73 C192.414,177.9 199.104,179.97 206.034,180.91 C211.414,181.65 216.734,184.1 222.244,182.89 C228.744,181.42 235.124,179.43 241.424,177.25 C248.914,174.74 256.894,173.84 264.184,170.68 C264.534,170.57 265.234,170.34 265.584,170.22 C267.244,170.98 269.164,170.71 270.494,169.43 L271.144,169.15 C285.394,166.98 299.174,162.23 313.594,161.16 C316.194,161 318.784,161.36 321.344,161.8 C322.974,165.92 324.714,170.38 323.494,174.86 C323.254,175.41 322.764,176.49 322.524,177.03 C322.774,173.76 322.774,170.47 322.854,167.19 C319.754,175.16 312.504,180.99 304.274,182.97 C294.544,185.23 284.644,187.06 274.624,187.25 C267.214,187.27 260.014,189.47 252.604,189.29 C247.604,189.2 242.604,189.49 237.684,190.42 C229.394,191.95 220.944,191.06 212.574,191.26 C200.564,191.22 188.594,192.35 176.584,192.24 C165.204,192.17 153.804,192.49 142.434,191.73 C134.494,191.19 126.534,191.21 118.584,191.34 C111.504,191.53 104.674,189.14 97.594,189.3 C90.164,189.52 82.944,187.42 75.544,187.2 C69.964,186.94 64.374,186.61 58.854,185.71 C49.394,184.01 39.674,183.44 30.534,180.25 C23.764,178.23 18.124,173.87 12.304,170.06 C12.274,168.49 12.294,166.93 12.394,165.37 C13.634,161.48 16.264,158.14 19.564,155.77 z" fill="#783C29"/>
        <path d="M19.564,155.77 C26.494,156.12 33.434,156.58 40.184,158.27 C43.614,162.13 47.764,165.41 52.574,167.37 C60.224,170.54 68.314,172.68 76.554,173.59 C82.514,174.58 88.564,175.74 94.634,174.94 C103.624,173.59 112.804,172.23 120.914,167.86 C131.424,169.61 142.094,170.17 152.574,172.14 C163.634,173.18 174.514,175.38 185.534,176.73 C192.414,177.9 199.104,179.97 206.034,180.91 C211.414,181.65 216.734,184.1 222.244,182.89 C228.744,181.42 235.124,179.43 241.424,177.25 C248.914,174.74 256.894,173.84 264.184,170.68 C264.534,170.57 265.234,170.34 265.584,170.22 C267.244,170.98 269.164,170.71 270.494,169.43 L271.144,169.15 C285.394,166.98 299.174,162.23 313.594,161.16 C316.194,161 318.784,161.36 321.344,161.8 C322.974,165.92 324.714,170.38 323.494,174.86 C323.254,175.41 322.764,176.49 322.524,177.03 C322.774,173.76 322.774,170.47 322.854,167.19 C319.754,175.16 312.504,180.99 304.274,182.97 C294.544,185.23 284.644,187.06 274.624,187.25 C267.214,187.27 260.014,189.47 252.604,189.29 C247.604,189.2 242.604,189.49 237.684,190.42 C229.394,191.95 220.944,191.06 212.574,191.26 C200.564,191.22 188.594,192.35 176.584,192.24 C165.204,192.17 153.804,192.49 142.434,191.73 C134.494,191.19 126.534,191.21 118.584,191.34 C111.504,191.53 104.674,189.14 97.594,189.3 C90.164,189.52 82.944,187.42 75.544,187.2 C69.964,186.94 64.374,186.61 58.854,185.71 C49.394,184.01 39.674,183.44 30.534,180.25 C23.764,178.23 18.124,173.87 12.304,170.06 C12.274,168.49 12.294,166.93 12.394,165.37 C13.634,161.48 16.264,158.14 19.564,155.77 z" fill-opacity="0" stroke="#783C29" stroke-width="0.5"/>
      </g>
      <g>
        <path d="M302.414,157.94 C308.724,156.48 315.164,155.86 321.604,155.26 C321.454,157.43 321.374,159.61 321.344,161.8 C318.784,161.36 316.194,161 313.594,161.16 C299.174,162.23 285.394,166.98 271.144,169.15 C277.304,165.9 284.094,163.56 289.254,158.7 C293.644,159.21 298.104,158.94 302.414,157.94 z" fill="#F4AA51"/>
        <path d="M302.414,157.94 C308.724,156.48 315.164,155.86 321.604,155.26 C321.454,157.43 321.374,159.61 321.344,161.8 C318.784,161.36 316.194,161 313.594,161.16 C299.174,162.23 285.394,166.98 271.144,169.15 C277.304,165.9 284.094,163.56 289.254,158.7 C293.644,159.21 298.104,158.94 302.414,157.94 z" fill-opacity="0" stroke="#F4AA51" stroke-width="0.5"/>
      </g>
      <g>
        <path d="M40.184,158.27 C40.954,158.35 42.504,158.51 43.274,158.59 C47.884,161.41 52.284,164.72 57.484,166.43 C71.404,171.21 86.354,173.57 101.024,171.66 C105.884,170.75 111.064,170.31 115.214,167.35 C117.114,167.53 119.014,167.66 120.914,167.86 C112.804,172.23 103.624,173.59 94.634,174.94 C88.564,175.74 82.514,174.58 76.554,173.59 C68.314,172.68 60.224,170.54 52.574,167.37 C47.764,165.41 43.614,162.13 40.184,158.27 z" fill="#9FB0B6"/>
        <path d="M40.184,158.27 C40.954,158.35 42.504,158.51 43.274,158.59 C47.884,161.41 52.284,164.72 57.484,166.43 C71.404,171.21 86.354,173.57 101.024,171.66 C105.884,170.75 111.064,170.31 115.214,167.35 C117.114,167.53 119.014,167.66 120.914,167.86 C112.804,172.23 103.624,173.59 94.634,174.94 C88.564,175.74 82.514,174.58 76.554,173.59 C68.314,172.68 60.224,170.54 52.574,167.37 C47.764,165.41 43.614,162.13 40.184,158.27 z" fill-opacity="0" stroke="#9FB0B6" stroke-width="0.5"/>
      </g>
      <g>
        <path d="M43.274,158.59 C50.234,158.95 57.244,159.28 64.104,160.63 C71.164,161.75 78.334,162.01 85.414,162.97 C95.304,164.72 105.244,166.19 115.214,167.35 C111.064,170.31 105.884,170.75 101.024,171.66 C86.354,173.57 71.404,171.21 57.484,166.43 C52.284,164.72 47.884,161.41 43.274,158.59 z" fill="#F1F2F3"/>
        <path d="M43.274,158.59 C50.234,158.95 57.244,159.28 64.104,160.63 C71.164,161.75 78.334,162.01 85.414,162.97 C95.304,164.72 105.244,166.19 115.214,167.35 C111.064,170.31 105.884,170.75 101.024,171.66 C86.354,173.57 71.404,171.21 57.484,166.43 C52.284,164.72 47.884,161.41 43.274,158.59 z" fill-opacity="0" stroke="#F1F2F3" stroke-width="0.5"/>
      </g>
      <g>
        <path d="M174.264,161.48 C181.884,161.01 189.594,161.78 196.924,163.98 C200.514,165.06 204.204,165.73 207.914,166.22 C209.464,166.66 211.024,167.1 212.574,167.58 C213.324,168.58 214.064,169.59 214.804,170.61 C208.314,173.65 201.324,170.86 194.654,170.21 C187.344,169.01 179.434,167.2 174.264,161.48 z" fill="#FFF79B"/>
        <path d="M174.264,161.48 C181.884,161.01 189.594,161.78 196.924,163.98 C200.514,165.06 204.204,165.73 207.914,166.22 C209.464,166.66 211.024,167.1 212.574,167.58 C213.324,168.58 214.064,169.59 214.804,170.61 C208.314,173.65 201.324,170.86 194.654,170.21 C187.344,169.01 179.434,167.2 174.264,161.48 z" fill-opacity="0" stroke="#FFF79B" stroke-width="0.5"/>
      </g>
      <g>
        <path d="M10.244,178.98 C12.054,174.66 12.194,169.97 12.394,165.37 C12.294,166.93 12.274,168.49 12.304,170.06 C12.504,173.32 12.604,176.78 14.224,179.71 C16.014,181.91 18.604,183.22 21.094,184.46 C21.064,184.92 20.994,185.83 20.954,186.29 C20.754,190.44 19.794,195.56 23.214,198.72 C28.154,203 34.534,206.29 41.234,205.92 C45.624,205.63 48.924,202.4 52.474,200.17 C52.544,205.81 56.034,210.44 59.004,214.92 C56.234,215.96 53.324,215.02 50.544,214.55 C44.564,213.33 38.524,212.43 32.554,211.19 C26.544,209.95 21.114,206.93 15.244,205.23 C14.484,203.74 13.594,202.31 12.724,200.89 C8.304,194.57 8.374,186.16 10.244,178.98 z" fill="#F8D97B"/>
        <path d="M10.244,178.98 C12.054,174.66 12.194,169.97 12.394,165.37 C12.294,166.93 12.274,168.49 12.304,170.06 C12.504,173.32 12.604,176.78 14.224,179.71 C16.014,181.91 18.604,183.22 21.094,184.46 C21.064,184.92 20.994,185.83 20.954,186.29 C20.754,190.44 19.794,195.56 23.214,198.72 C28.154,203 34.534,206.29 41.234,205.92 C45.624,205.63 48.924,202.4 52.474,200.17 C52.544,205.81 56.034,210.44 59.004,214.92 C56.234,215.96 53.324,215.02 50.544,214.55 C44.564,213.33 38.524,212.43 32.554,211.19 C26.544,209.95 21.114,206.93 15.244,205.23 C14.484,203.74 13.594,202.31 12.724,200.89 C8.304,194.57 8.374,186.16 10.244,178.98 z" fill-opacity="0" stroke="#F8D97B" stroke-width="0.5"/>
      </g>
      <g>
        <path d="M304.274,182.97 C312.504,180.99 319.754,175.16 322.854,167.19 C322.774,170.47 322.774,173.76 322.524,177.03 C321.124,180.96 318.204,184.05 314.714,186.23 C302.194,194.83 286.354,194.48 271.864,196.03 C263.714,197.68 255.374,196.92 247.154,197.83 C235.444,199.15 223.624,197.91 211.904,199.03 C195.864,200.9 179.684,200 163.584,200.23 C150.934,200.04 138.214,200.79 125.654,199.03 C120.654,198.41 115.604,198.5 110.584,198.47 C104.224,198.45 97.934,197.36 91.584,197.26 C84.184,197.2 76.934,195.42 69.534,195.24 C61.534,194.9 53.644,193.44 45.744,192.21 C37.124,191.17 29.064,187.72 21.094,184.46 C18.604,183.22 16.014,181.91 14.224,179.71 C12.604,176.78 12.504,173.32 12.304,170.06 C18.124,173.87 23.764,178.23 30.534,180.25 C39.674,183.44 49.394,184.01 58.854,185.71 C64.374,186.61 69.964,186.94 75.544,187.2 C82.944,187.42 90.164,189.52 97.594,189.3 C104.674,189.14 111.504,191.53 118.584,191.34 C126.534,191.21 134.494,191.19 142.434,191.73 C153.804,192.49 165.204,192.17 176.584,192.24 C188.594,192.35 200.564,191.22 212.574,191.26 C220.944,191.06 229.394,191.95 237.684,190.42 C242.604,189.49 247.604,189.2 252.604,189.29 C260.014,189.47 267.214,187.27 274.624,187.25 C284.644,187.06 294.544,185.23 304.274,182.97 z" fill="#532417"/>
        <path d="M304.274,182.97 C312.504,180.99 319.754,175.16 322.854,167.19 C322.774,170.47 322.774,173.76 322.524,177.03 C321.124,180.96 318.204,184.05 314.714,186.23 C302.194,194.83 286.354,194.48 271.864,196.03 C263.714,197.68 255.374,196.92 247.154,197.83 C235.444,199.15 223.624,197.91 211.904,199.03 C195.864,200.9 179.684,200 163.584,200.23 C150.934,200.04 138.214,200.79 125.654,199.03 C120.654,198.41 115.604,198.5 110.584,198.47 C104.224,198.45 97.934,197.36 91.584,197.26 C84.184,197.2 76.934,195.42 69.534,195.24 C61.534,194.9 53.644,193.44 45.744,192.21 C37.124,191.17 29.064,187.72 21.094,184.46 C18.604,183.22 16.014,181.91 14.224,179.71 C12.604,176.78 12.504,173.32 12.304,170.06 C18.124,173.87 23.764,178.23 30.534,180.25 C39.674,183.44 49.394,184.01 58.854,185.71 C64.374,186.61 69.964,186.94 75.544,187.2 C82.944,187.42 90.164,189.52 97.594,189.3 C104.674,189.14 111.504,191.53 118.584,191.34 C126.534,191.21 134.494,191.19 142.434,191.73 C153.804,192.49 165.204,192.17 176.584,192.24 C188.594,192.35 200.564,191.22 212.574,191.26 C220.944,191.06 229.394,191.95 237.684,190.42 C242.604,189.49 247.604,189.2 252.604,189.29 C260.014,189.47 267.214,187.27 274.624,187.25 C284.644,187.06 294.544,185.23 304.274,182.97 z" fill-opacity="0" stroke="#532417" stroke-width="0.5"/>
      </g>
      <g>
        <path d="M265.584,170.22 C266.914,168.96 268.814,168.69 270.494,169.43 C269.164,170.71 267.244,170.98 265.584,170.22 z" fill="#D38342"/>
        <path d="M265.584,170.22 C266.914,168.96 268.814,168.69 270.494,169.43 C269.164,170.71 267.244,170.98 265.584,170.22 z" fill-opacity="0" stroke="#D38342" stroke-width="0.5"/>
      </g>
      <g>
        <path d="M323.494,174.86 C331.294,184.24 327.574,198.86 318.574,206 C317.444,206.64 316.304,207.26 315.154,207.84 C306.674,211.2 297.614,212.62 288.794,214.75 C282.174,216.43 275.344,216.85 268.564,217.35 C261.254,218.42 253.954,219.6 246.534,219.51 C230.594,221.06 214.564,220 198.584,220.37 C188.804,220.1 178.934,221.19 169.224,219.62 C174.044,216.52 178.014,212.24 181.284,207.57 C184.684,208 188.304,208.53 190.814,211.1 C195.384,215.47 201.234,218.74 207.674,219.01 C220.734,218.38 232.414,210.48 245.614,210.93 C254.114,211.17 261.994,215.81 270.644,214.71 C279.624,214.54 286.054,207.23 294.434,205.08 C301.304,203.03 309.524,203.19 314.644,197.36 C316.554,195.74 316.224,193.14 315.834,190.95 C315.494,189.36 315.104,187.79 314.714,186.23 C318.204,184.05 321.124,180.96 322.524,177.03 C322.764,176.49 323.254,175.41 323.494,174.86 z" fill="#F8D97B"/>
        <path d="M323.494,174.86 C331.294,184.24 327.574,198.86 318.574,206 C317.444,206.64 316.304,207.26 315.154,207.84 C306.674,211.2 297.614,212.62 288.794,214.75 C282.174,216.43 275.344,216.85 268.564,217.35 C261.254,218.42 253.954,219.6 246.534,219.51 C230.594,221.06 214.564,220 198.584,220.37 C188.804,220.1 178.934,221.19 169.224,219.62 C174.044,216.52 178.014,212.24 181.284,207.57 C184.684,208 188.304,208.53 190.814,211.1 C195.384,215.47 201.234,218.74 207.674,219.01 C220.734,218.38 232.414,210.48 245.614,210.93 C254.114,211.17 261.994,215.81 270.644,214.71 C279.624,214.54 286.054,207.23 294.434,205.08 C301.304,203.03 309.524,203.19 314.644,197.36 C316.554,195.74 316.224,193.14 315.834,190.95 C315.494,189.36 315.104,187.79 314.714,186.23 C318.204,184.05 321.124,180.96 322.524,177.03 C322.764,176.49 323.254,175.41 323.494,174.86 z" fill-opacity="0" stroke="#F8D97B" stroke-width="0.5"/>
      </g>
      <g>
        <path d="M21.094,184.46 C29.064,187.72 37.124,191.17 45.744,192.21 C53.644,193.44 61.534,194.9 69.534,195.24 C76.934,195.42 84.184,197.2 91.584,197.26 C97.934,197.36 104.224,198.45 110.584,198.47 C115.604,198.5 120.654,198.41 125.654,199.03 C138.214,200.79 150.934,200.04 163.584,200.23 C179.684,200 195.864,200.9 211.904,199.03 C223.624,197.91 235.444,199.15 247.154,197.83 C255.374,196.92 263.714,197.68 271.864,196.03 C286.354,194.48 302.194,194.83 314.714,186.23 C315.104,187.79 315.494,189.36 315.834,190.95 C307.184,194.77 298.054,197.64 288.574,198.23 C274.324,200.27 259.944,201.41 245.554,201.4 C238.514,201.5 231.644,203.49 224.594,203.35 C210.734,203.38 196.864,203.23 183.044,204.3 C174.414,204.95 165.704,205.17 157.084,204.22 C149.224,203.47 141.304,203.92 133.434,203.37 C132.164,203.21 130.904,203.21 129.654,203.38 C120.574,204.09 111.584,202.45 102.584,201.63 C87.494,201.62 72.574,199.15 57.554,198.1 C55.864,197.9 54.174,197.65 52.494,197.41 C43.464,195.85 34.354,194.27 25.734,191.09 C23.404,190.39 21.824,188.48 20.954,186.29 C20.994,185.83 21.064,184.92 21.094,184.46 z" fill="#5B832A"/>
        <path d="M21.094,184.46 C29.064,187.72 37.124,191.17 45.744,192.21 C53.644,193.44 61.534,194.9 69.534,195.24 C76.934,195.42 84.184,197.2 91.584,197.26 C97.934,197.36 104.224,198.45 110.584,198.47 C115.604,198.5 120.654,198.41 125.654,199.03 C138.214,200.79 150.934,200.04 163.584,200.23 C179.684,200 195.864,200.9 211.904,199.03 C223.624,197.91 235.444,199.15 247.154,197.83 C255.374,196.92 263.714,197.68 271.864,196.03 C286.354,194.48 302.194,194.83 314.714,186.23 C315.104,187.79 315.494,189.36 315.834,190.95 C307.184,194.77 298.054,197.64 288.574,198.23 C274.324,200.27 259.944,201.41 245.554,201.4 C238.514,201.5 231.644,203.49 224.594,203.35 C210.734,203.38 196.864,203.23 183.044,204.3 C174.414,204.95 165.704,205.17 157.084,204.22 C149.224,203.47 141.304,203.92 133.434,203.37 C132.164,203.21 130.904,203.21 129.654,203.38 C120.574,204.09 111.584,202.45 102.584,201.63 C87.494,201.62 72.574,199.15 57.554,198.1 C55.864,197.9 54.174,197.65 52.494,197.41 C43.464,195.85 34.354,194.27 25.734,191.09 C23.404,190.39 21.824,188.48 20.954,186.29 C20.994,185.83 21.064,184.92 21.094,184.46 z" fill-opacity="0" stroke="#5B832A" stroke-width="0.5"/>
      </g>
      <g>
        <path d="M23.214,198.72 C19.794,195.56 20.754,190.44 20.954,186.29 C21.824,188.48 23.404,190.39 25.734,191.09 C34.354,194.27 43.464,195.85 52.494,197.41 C52.494,198.1 52.484,199.48 52.474,200.17 C48.924,202.4 45.624,205.63 41.234,205.92 C34.534,206.29 28.154,203 23.214,198.72 z" fill="#97AF32"/>
        <path d="M23.214,198.72 C19.794,195.56 20.754,190.44 20.954,186.29 C21.824,188.48 23.404,190.39 25.734,191.09 C34.354,194.27 43.464,195.85 52.494,197.41 C52.494,198.1 52.484,199.48 52.474,200.17 C48.924,202.4 45.624,205.63 41.234,205.92 C34.534,206.29 28.154,203 23.214,198.72 z" fill-opacity="0" stroke="#97AF32" stroke-width="0.5"/>
      </g>
      <g>
        <path d="M288.574,198.23 C298.054,197.64 307.184,194.77 315.834,190.95 C316.224,193.14 316.554,195.74 314.644,197.36 C309.524,203.19 301.304,203.03 294.434,205.08 C286.054,207.23 279.624,214.54 270.644,214.71 C261.994,215.81 254.114,211.17 245.614,210.93 C232.414,210.48 220.734,218.38 207.674,219.01 C201.234,218.74 195.384,215.47 190.814,211.1 C188.304,208.53 184.684,208 181.284,207.57 C181.504,207.17 181.954,206.35 182.174,205.95 C182.394,205.54 182.824,204.71 183.044,204.3 C196.864,203.23 210.734,203.38 224.594,203.35 C231.644,203.49 238.514,201.5 245.554,201.4 C259.944,201.41 274.324,200.27 288.574,198.23 z" fill="#97AF32"/>
        <path d="M288.574,198.23 C298.054,197.64 307.184,194.77 315.834,190.95 C316.224,193.14 316.554,195.74 314.644,197.36 C309.524,203.19 301.304,203.03 294.434,205.08 C286.054,207.23 279.624,214.54 270.644,214.71 C261.994,215.81 254.114,211.17 245.614,210.93 C232.414,210.48 220.734,218.38 207.674,219.01 C201.234,218.74 195.384,215.47 190.814,211.1 C188.304,208.53 184.684,208 181.284,207.57 C181.504,207.17 181.954,206.35 182.174,205.95 C182.394,205.54 182.824,204.71 183.044,204.3 C196.864,203.23 210.734,203.38 224.594,203.35 C231.644,203.49 238.514,201.5 245.554,201.4 C259.944,201.41 274.324,200.27 288.574,198.23 z" fill-opacity="0" stroke="#97AF32" stroke-width="0.5"/>
      </g>
      <g>
        <path d="M52.494,197.41 C54.174,197.65 55.864,197.9 57.554,198.1 C59.064,201.71 61.204,205.17 64.564,207.34 C69.834,210.88 75.294,214.37 81.374,216.34 C89.544,218.72 98.014,220.42 106.574,220.19 C119.864,219.9 133.364,221.33 146.454,218.22 C154.324,216.75 161.784,213.53 168.484,209.19 C171.094,207.64 173.534,205.57 176.554,204.93 C178.464,205.02 180.314,205.51 182.174,205.95 C181.954,206.35 181.504,207.17 181.284,207.57 C178.014,212.24 174.044,216.52 169.224,219.62 C159.244,224.83 148.154,227.32 137.234,229.67 C127.434,230.54 117.574,231.6 107.734,230.88 C100.984,230.3 94.094,230.46 87.564,228.44 C77.334,225.84 66.554,222.79 59.004,214.92 C56.034,210.44 52.544,205.81 52.474,200.17 C52.484,199.48 52.494,198.1 52.494,197.41 z" fill="#CB2C1D"/>
        <path d="M52.494,197.41 C54.174,197.65 55.864,197.9 57.554,198.1 C59.064,201.71 61.204,205.17 64.564,207.34 C69.834,210.88 75.294,214.37 81.374,216.34 C89.544,218.72 98.014,220.42 106.574,220.19 C119.864,219.9 133.364,221.33 146.454,218.22 C154.324,216.75 161.784,213.53 168.484,209.19 C171.094,207.64 173.534,205.57 176.554,204.93 C178.464,205.02 180.314,205.51 182.174,205.95 C181.954,206.35 181.504,207.17 181.284,207.57 C178.014,212.24 174.044,216.52 169.224,219.62 C159.244,224.83 148.154,227.32 137.234,229.67 C127.434,230.54 117.574,231.6 107.734,230.88 C100.984,230.3 94.094,230.46 87.564,228.44 C77.334,225.84 66.554,222.79 59.004,214.92 C56.034,210.44 52.544,205.81 52.474,200.17 C52.484,199.48 52.494,198.1 52.494,197.41 z" fill-opacity="0" stroke="#CB2C1D" stroke-width="0.5"/>
      </g>
      <g>
        <path d="M57.554,198.1 C72.574,199.15 87.494,201.62 102.584,201.63 C111.584,202.45 120.574,204.09 129.654,203.38 C129.074,206.29 133.744,206.16 133.434,203.37 C141.304,203.92 149.224,203.47 157.084,204.22 C165.704,205.17 174.414,204.95 183.044,204.3 C182.824,204.71 182.394,205.54 182.174,205.95 C180.314,205.51 178.464,205.02 176.554,204.93 C173.534,205.57 171.094,207.64 168.484,209.19 C161.784,213.53 154.324,216.75 146.454,218.22 C133.364,221.33 119.864,219.9 106.574,220.19 C98.014,220.42 89.544,218.72 81.374,216.34 C75.294,214.37 69.834,210.88 64.564,207.34 C61.204,205.17 59.064,201.71 57.554,198.1 M101.904,203.64 C101.454,204.57 101.004,205.51 100.564,206.46 C101.904,206.43 103.244,206.4 104.594,206.38 C104.574,205.62 104.534,204.09 104.514,203.33 C103.864,203.41 102.554,203.56 101.904,203.64 M112.314,211.06 C115.074,211.16 117.844,211.16 120.614,211.1 C119.604,209.01 118.564,206.94 117.474,204.9 C115.334,206.57 113.574,208.66 112.314,211.06 M120.904,205.51 C119.734,206.98 122.334,208.55 123.324,207.12 C124.494,205.63 121.884,204.09 120.904,205.51 z" fill="#EF4C2B"/>
        <path d="M57.554,198.1 C72.574,199.15 87.494,201.62 102.584,201.63 C111.584,202.45 120.574,204.09 129.654,203.38 C129.074,206.29 133.744,206.16 133.434,203.37 C141.304,203.92 149.224,203.47 157.084,204.22 C165.704,205.17 174.414,204.95 183.044,204.3 C182.824,204.71 182.394,205.54 182.174,205.95 C180.314,205.51 178.464,205.02 176.554,204.93 C173.534,205.57 171.094,207.64 168.484,209.19 C161.784,213.53 154.324,216.75 146.454,218.22 C133.364,221.33 119.864,219.9 106.574,220.19 C98.014,220.42 89.544,218.72 81.374,216.34 C75.294,214.37 69.834,210.88 64.564,207.34 C61.204,205.17 59.064,201.71 57.554,198.1 M101.904,203.64 C101.454,204.57 101.004,205.51 100.564,206.46 C101.904,206.43 103.244,206.4 104.594,206.38 C104.574,205.62 104.534,204.09 104.514,203.33 C103.864,203.41 102.554,203.56 101.904,203.64 M112.314,211.06 C115.074,211.16 117.844,211.16 120.614,211.1 C119.604,209.01 118.564,206.94 117.474,204.9 C115.334,206.57 113.574,208.66 112.314,211.06 M120.904,205.51 C119.734,206.98 122.334,208.55 123.324,207.12 C124.494,205.63 121.884,204.09 120.904,205.51 z" fill-opacity="0" stroke="#EF4C2B" stroke-width="0.5"/>
      </g>
      <g>
        <path d="M12.724,200.89 C13.594,202.31 14.484,203.74 15.244,205.23 C16.254,209.07 17.114,213.08 19.514,216.34 C23.744,222.91 30.804,226.86 37.704,230.08 C50.104,234.91 63.424,236.53 76.254,239.82 C81.594,241.18 87.094,241.73 92.584,242.17 C98.944,242.62 105.174,244.26 111.574,244.3 C117.584,244.36 123.554,245.08 129.564,245.33 C154.904,245.33 180.244,245.65 205.584,245.3 C220.914,245.68 236.294,244.78 251.414,242.13 C259.834,241.51 267.684,238.27 275.854,236.43 C287.484,233.48 299.354,229.41 308.234,220.98 C311.944,217.5 313.664,212.57 315.154,207.84 C316.304,207.26 317.444,206.64 318.574,206 C319.324,209.9 317.464,213.53 316.794,217.29 C315.674,223.39 313.594,229.52 309.614,234.36 C304.544,240 297.994,244.22 290.794,246.6 C282.094,249.99 272.904,251.75 264.084,254.76 C250.044,257.36 235.904,260 221.554,259.6 C216.174,259.36 211.004,261.19 205.634,261.1 C187.624,261.21 169.604,261.13 151.594,261.15 C146.984,261.12 142.324,261.27 137.784,260.33 C129.864,258.74 121.734,260.33 113.764,259.2 C107.024,258.2 100.074,258.93 93.474,256.95 C83.324,256.15 73.194,254.75 63.444,251.75 C56.024,250.49 48.764,248.57 41.574,246.38 C35.484,243.85 28.784,241.73 24.304,236.62 C21.024,233.15 17.514,229.57 16.074,224.91 C13.274,217.29 11.484,209 12.724,200.89 z" fill="#C27636"/>
        <path d="M12.724,200.89 C13.594,202.31 14.484,203.74 15.244,205.23 C16.254,209.07 17.114,213.08 19.514,216.34 C23.744,222.91 30.804,226.86 37.704,230.08 C50.104,234.91 63.424,236.53 76.254,239.82 C81.594,241.18 87.094,241.73 92.584,242.17 C98.944,242.62 105.174,244.26 111.574,244.3 C117.584,244.36 123.554,245.08 129.564,245.33 C154.904,245.33 180.244,245.65 205.584,245.3 C220.914,245.68 236.294,244.78 251.414,242.13 C259.834,241.51 267.684,238.27 275.854,236.43 C287.484,233.48 299.354,229.41 308.234,220.98 C311.944,217.5 313.664,212.57 315.154,207.84 C316.304,207.26 317.444,206.64 318.574,206 C319.324,209.9 317.464,213.53 316.794,217.29 C315.674,223.39 313.594,229.52 309.614,234.36 C304.544,240 297.994,244.22 290.794,246.6 C282.094,249.99 272.904,251.75 264.084,254.76 C250.044,257.36 235.904,260 221.554,259.6 C216.174,259.36 211.004,261.19 205.634,261.1 C187.624,261.21 169.604,261.13 151.594,261.15 C146.984,261.12 142.324,261.27 137.784,260.33 C129.864,258.74 121.734,260.33 113.764,259.2 C107.024,258.2 100.074,258.93 93.474,256.95 C83.324,256.15 73.194,254.75 63.444,251.75 C56.024,250.49 48.764,248.57 41.574,246.38 C35.484,243.85 28.784,241.73 24.304,236.62 C21.024,233.15 17.514,229.57 16.074,224.91 C13.274,217.29 11.484,209 12.724,200.89 z" fill-opacity="0" stroke="#C27636" stroke-width="0.5"/>
      </g>
      <g>
        <path d="M101.904,203.64 C102.554,203.56 103.864,203.41 104.514,203.33 C104.534,204.09 104.574,205.62 104.594,206.38 C103.244,206.4 101.904,206.43 100.564,206.46 C101.004,205.51 101.454,204.57 101.904,203.64 z" fill="#F5943F"/>
        <path d="M101.904,203.64 C102.554,203.56 103.864,203.41 104.514,203.33 C104.534,204.09 104.574,205.62 104.594,206.38 C103.244,206.4 101.904,206.43 100.564,206.46 C101.004,205.51 101.454,204.57 101.904,203.64 z" fill-opacity="0" stroke="#F5943F" stroke-width="0.5"/>
      </g>
      <g>
        <path d="M129.654,203.38 C130.904,203.21 132.164,203.21 133.434,203.37 C133.744,206.16 129.074,206.29 129.654,203.38 z" fill="#E29B50"/>
        <path d="M129.654,203.38 C130.904,203.21 132.164,203.21 133.434,203.37 C133.744,206.16 129.074,206.29 129.654,203.38 z" fill-opacity="0" stroke="#E29B50" stroke-width="0.5"/>
      </g>
      <g>
        <path d="M15.244,205.23 C21.114,206.93 26.544,209.95 32.554,211.19 C38.524,212.43 44.564,213.33 50.544,214.55 C53.324,215.02 56.234,215.96 59.004,214.92 C66.554,222.79 77.334,225.84 87.564,228.44 C94.094,230.46 100.984,230.3 107.734,230.88 C117.574,231.6 127.434,230.54 137.234,229.67 C148.154,227.32 159.244,224.83 169.224,219.62 C178.934,221.19 188.804,220.1 198.584,220.37 C214.564,220 230.594,221.06 246.534,219.51 C253.954,219.6 261.254,218.42 268.564,217.35 C275.344,216.85 282.174,216.43 288.794,214.75 C297.614,212.62 306.674,211.2 315.154,207.84 C313.664,212.57 311.944,217.5 308.234,220.98 C299.354,229.41 287.484,233.48 275.854,236.43 C267.684,238.27 259.834,241.51 251.414,242.13 C236.294,244.78 220.914,245.68 205.584,245.3 C180.244,245.65 154.904,245.33 129.564,245.33 C123.554,245.08 117.584,244.36 111.574,244.3 C105.174,244.26 98.944,242.62 92.584,242.17 C87.094,241.73 81.594,241.18 76.254,239.82 C63.424,236.53 50.104,234.91 37.704,230.08 C30.804,226.86 23.744,222.91 19.514,216.34 C17.114,213.08 16.254,209.07 15.244,205.23 z" fill="#E5A258"/>
        <path d="M15.244,205.23 C21.114,206.93 26.544,209.95 32.554,211.19 C38.524,212.43 44.564,213.33 50.544,214.55 C53.324,215.02 56.234,215.96 59.004,214.92 C66.554,222.79 77.334,225.84 87.564,228.44 C94.094,230.46 100.984,230.3 107.734,230.88 C117.574,231.6 127.434,230.54 137.234,229.67 C148.154,227.32 159.244,224.83 169.224,219.62 C178.934,221.19 188.804,220.1 198.584,220.37 C214.564,220 230.594,221.06 246.534,219.51 C253.954,219.6 261.254,218.42 268.564,217.35 C275.344,216.85 282.174,216.43 288.794,214.75 C297.614,212.62 306.674,211.2 315.154,207.84 C313.664,212.57 311.944,217.5 308.234,220.98 C299.354,229.41 287.484,233.48 275.854,236.43 C267.684,238.27 259.834,241.51 251.414,242.13 C236.294,244.78 220.914,245.68 205.584,245.3 C180.244,245.65 154.904,245.33 129.564,245.33 C123.554,245.08 117.584,244.36 111.574,244.3 C105.174,244.26 98.944,242.62 92.584,242.17 C87.094,241.73 81.594,241.18 76.254,239.82 C63.424,236.53 50.104,234.91 37.704,230.08 C30.804,226.86 23.744,222.91 19.514,216.34 C17.114,213.08 16.254,209.07 15.244,205.23 z" fill-opacity="0" stroke="#E5A258" stroke-width="0.5"/>
      </g>
      <g>
        <path d="M112.314,211.06 C113.574,208.66 115.334,206.57 117.474,204.9 C118.564,206.94 119.604,209.01 120.614,211.1 C117.844,211.16 115.074,211.16 112.314,211.06 z" fill="#D13219"/>
        <path d="M112.314,211.06 C113.574,208.66 115.334,206.57 117.474,204.9 C118.564,206.94 119.604,209.01 120.614,211.1 C117.844,211.16 115.074,211.16 112.314,211.06 z" fill-opacity="0" stroke="#D13219" stroke-width="0.5"/>
      </g>
      <g>
        <path d="M120.904,205.51 C121.884,204.09 124.494,205.63 123.324,207.12 C122.334,208.55 119.734,206.98 120.904,205.51 z" fill="#F7AD56"/>
        <path d="M120.904,205.51 C121.884,204.09 124.494,205.63 123.324,207.12 C122.334,208.55 119.734,206.98 120.904,205.51 z" fill-opacity="0" stroke="#F7AD56" stroke-width="0.5"/>
      </g>
    </g>
  </g>
</svg>
