<?xml version="1.0"?>
<svg xmlns:rdf="http://www.w3.org/1999/02/22-rdf-syntax-ns#" xmlns="http://www.w3.org/2000/svg" xmlns:cc="http://web.resource.org/cc/" xmlns:xlink="http://www.w3.org/1999/xlink" xmlns:dc="http://purl.org/dc/elements/1.1/" xmlns:svg="http://www.w3.org/2000/svg" id="vectorportal.com" xml:space="preserve" overflow="visible" viewBox="0 0 277.431 278.547" baseProfile="basic" version="1.1" enable-background="new 0 0 277.431 278.547">
<switch>
	<g>
			<path stroke="#000" stroke-width="3.9224" d="m254.78 139.28c6.732 3.664 13.165 7.831 19.262 12.483-6.894 4.544-14.16 8.463-21.775 11.656 5.834 4.974 11.245 10.405 16.236 16.227-7.687 3.012-15.615 5.324-23.731 6.85 4.665 6.09 8.822 12.53 12.482 19.272-8.146 1.331-16.381 1.936-24.636 1.734 3.294 6.923 6.029 14.089 8.214 21.436-8.244-0.39-16.421-1.506-24.454-3.401 1.788 7.455 2.978 15.023 3.596 22.666-7.986-2.083-15.756-4.866-23.221-8.389 0.205 7.663-0.205 15.319-1.193 22.929-7.381-3.697-14.405-8.039-20.972-13.047-1.398 7.542-3.408 14.942-5.962 22.175-6.446-5.162-12.412-10.883-17.78-17.154-2.938 7.085-6.446 13.901-10.433 20.448-5.216-6.393-9.871-13.208-13.837-20.448-4.332 6.326-9.165 12.281-14.429 17.86-3.811-7.333-6.944-14.97-9.316-22.881-5.559 5.276-11.532 10.089-17.847 14.438-2.185-7.966-3.65-16.093-4.315-24.32-6.541 4-13.384 7.462-20.465 10.399-0.47-8.241-0.211-16.489 0.844-24.677-7.229 2.555-14.64 4.524-22.172 5.942 1.244-8.167 3.203-16.18 5.926-23.977-7.603 1.008-15.259 1.405-22.922 1.223 2.904-7.73 6.48-15.171 10.771-22.229-7.643-0.598-15.218-1.808-22.676-3.596 4.45-6.95 9.508-13.484 15.185-19.48-7.354-2.185-14.503-4.961-21.423-8.261 5.808-5.862 12.12-11.179 18.909-15.877-6.735-3.668-13.168-7.836-19.262-12.487 6.894-4.544 14.16-8.463 21.776-11.656-5.841-4.974-11.253-10.405-16.24-16.227 7.69-3.018 15.615-5.331 23.731-6.853-4.668-6.087-8.822-12.526-12.486-19.265 8.147-1.337 16.385-1.939 24.636-1.741-3.293-6.924-6.022-14.086-8.214-21.433 8.248 0.39 16.428 1.502 24.461 3.405-1.794-7.455-2.981-15.03-3.603-22.673 7.989 2.087 15.756 4.863 23.225 8.393-0.208-7.663 0.205-15.323 1.189-22.929 7.384 3.697 14.412 8.036 20.973 13.047 1.401-7.542 3.408-14.943 5.969-22.172 6.446 5.159 12.409 10.873 17.776 17.151 2.941-7.082 6.443-13.897 10.429-20.448 5.223 6.393 9.875 13.208 13.84 20.448 4.336-6.332 9.169-12.288 14.432-17.856 3.805 7.327 6.94 14.966 9.31 22.878 5.565-5.28 11.535-10.086 17.85-14.436 2.188 7.959 3.646 16.086 4.319 24.317 6.54-4 13.38-7.458 20.461-10.402 0.474 8.245 0.215 16.489-0.84 24.683 7.226-2.558 14.634-4.527 22.169-5.942-1.243 8.161-3.199 16.18-5.929 23.97 7.603-1.005 15.259-1.398 22.925-1.216-2.907 7.727-6.483 15.168-10.771 22.223 7.643 0.598 15.219 1.815 22.673 3.596-4.45 6.954-9.505 13.484-15.178 19.483 7.347 2.188 14.499 4.964 21.419 8.261-5.8 5.87-12.12 11.18-18.9 15.89z" fill="#FF7F00"/>
			<path d="m29.611 139.28c0 60.162 48.942 109.1 109.1 109.1 60.161 0 109.1-48.935 109.1-109.1 0-60.163-48.939-109.11-109.1-109.11-60.156-0.003-109.1 48.942-109.1 109.11z"/>
			<path d="m83.747 84.305c-14.701 14.701-22.797 34.225-22.797 54.97 0 42.879 34.883 77.759 77.766 77.759 42.879 0 77.763-34.88 77.763-77.759 0-42.881-34.884-77.768-77.763-77.768-20.75-0.004-40.269 8.092-54.973 22.793z" fill="#FF7F00"/>
			<path d="m88.738 89.3c-13.367 13.37-20.73 31.116-20.73 49.976 0 38.987 31.721 70.701 70.708 70.701 38.98 0 70.701-31.714 70.701-70.701 0-38.989-31.721-70.706-70.701-70.706-18.87-0.005-36.61 7.356-49.982 20.726z"/>
			<path d="m91.735 92.294c-12.57 12.57-19.49 29.25-19.49 46.981 0 36.648 29.822 66.467 66.47 66.467s66.466-29.819 66.466-66.467c0-36.653-29.818-66.472-66.466-66.472-17.73-0.004-34.41 6.92-46.985 19.486z" fill="#FF7F00"/>
			<g fill="#fff">
				<path d="m58.617 78.091l8.846 3.522-5.099-8.07 4.259-5.163 1.344 1.109-0.098 0.154c-0.413 0.568-0.602 1.008-0.561 1.321 0.04 0.313 0.336 0.696 0.88 1.146l5.66 4.665c0.527 0.437 0.931 0.656 1.21 0.652 0.165-0.007 0.363-0.091 0.605-0.239 0.242-0.151 0.464-0.343 0.665-0.568l0.125-0.131 1.351 1.116-4.776 5.794-1.358-1.116 0.135-0.182c0.171-0.225 0.309-0.47 0.41-0.736 0.101-0.262 0.141-0.474 0.121-0.635-0.054-0.269-0.346-0.625-0.877-1.062l-5.697-4.699 6.124 9.811-1.472 1.785-10.893-4.279 5.821 4.803c0.531 0.437 0.931 0.652 1.21 0.652 0.158-0.007 0.36-0.084 0.602-0.239s0.457-0.336 0.652-0.544l0.145-0.158 1.348 1.116-3.724 4.517-1.344-1.109 0.127-0.171c0.171-0.229 0.306-0.477 0.41-0.746 0.101-0.266 0.141-0.48 0.114-0.639-0.047-0.269-0.336-0.622-0.874-1.065l-5.656-4.665c-0.528-0.437-0.935-0.655-1.22-0.662-0.151 0.014-0.35 0.091-0.584 0.242-0.239 0.148-0.46 0.329-0.666 0.544l-0.145 0.158-1.341-1.109 4.221-5.12z"/>
				<path d="m77.488 59.034c1.67-1.26 3.458-1.838 5.357-1.731 2.148 0.127 3.936 1.136 5.361 3.028 1.069 1.412 1.586 2.971 1.553 4.682-0.014 1.264-0.309 2.434-0.874 3.509-0.571 1.076-1.385 2.013-2.45 2.816-1.458 1.103-3.048 1.65-4.762 1.644-2.379-0.006-4.322-1.005-5.825-3.001-0.938-1.24-1.479-2.591-1.623-4.054-0.148-1.556 0.208-3.052 1.072-4.494 0.535-0.883 1.267-1.683 2.191-2.399zm1.298 1.694c-0.816 0.622-1.253 1.422-1.294 2.403-0.074 1.418 0.437 2.857 1.546 4.322 0.478 0.629 1.008 1.177 1.6 1.647 0.588 0.467 1.16 0.793 1.708 0.975 0.474 0.158 0.975 0.185 1.505 0.087 0.528-0.097 1.008-0.306 1.432-0.628 0.924-0.696 1.351-1.644 1.284-2.847-0.074-1.277-0.598-2.568-1.58-3.869-1.042-1.375-2.114-2.242-3.227-2.604-1.055-0.339-2.043-0.172-2.974 0.514z"/>
				<path d="m94.75 48.938l7.949 5.546-2.01-4.346c-0.289-0.625-0.558-0.998-0.813-1.123-0.141-0.057-0.353-0.071-0.632-0.041s-0.558 0.101-0.833 0.205l-0.202 0.077-0.729-1.58 5.226-2.417 0.733 1.583-0.195 0.098c-0.599 0.319-0.948 0.632-1.045 0.934-0.098 0.306 0.003 0.783 0.302 1.425l4.588 9.921-2.406 1.113-10.74-7.369 3.193 6.917c0.296 0.629 0.564 0.999 0.81 1.113 0.148 0.064 0.363 0.081 0.652 0.05 0.286-0.034 0.558-0.101 0.823-0.205l0.195-0.081 0.732 1.583-5.226 2.413-0.729-1.58 0.188-0.101c0.249-0.131 0.477-0.296 0.692-0.491 0.208-0.201 0.333-0.376 0.379-0.531 0.071-0.259-0.033-0.706-0.326-1.338l-3.085-6.668c-0.292-0.628-0.565-1.005-0.813-1.123-0.141-0.061-0.356-0.074-0.635-0.047-0.279 0.03-0.555 0.097-0.83 0.211l-0.202 0.081-0.729-1.583 5.726-2.646z"/>
				<path d="m118.4 44.552l1.502 6.459-1.62 0.376c-0.158-0.437-0.336-0.81-0.534-1.126-0.202-0.313-0.403-0.527-0.605-0.648-0.289-0.188-0.981-0.151-2.07 0.107l0.571 2.443c0.249 1.083 0.427 1.697 0.538 1.845 0.212 0.299 0.767 0.346 1.66 0.138 1.284-0.299 2.333-0.847 3.149-1.644 0.82-0.8 1.533-1.973 2.138-3.519l1.62 0.353-1.153 5.417-12.462 2.897-0.397-1.697 0.276-0.084c0.238-0.064 0.477-0.171 0.719-0.326s0.396-0.299 0.467-0.43c0.124-0.242 0.111-0.699-0.044-1.375l-1.667-7.152c-0.155-0.679-0.343-1.099-0.564-1.267-0.121-0.087-0.323-0.145-0.592-0.171-0.269-0.03-0.541-0.02-0.807 0.027l-0.282 0.047-0.396-1.697 12.113-2.82 3.068 3.815-1.253 1.025c-1.922-1.764-3.896-2.41-5.922-1.936-1.056 0.242-1.654 0.528-1.795 0.847-0.094 0.205-0.037 0.739 0.165 1.6l0.407 1.758 0.578-0.128c0.605-0.138 1.015-0.269 1.23-0.39 0.215-0.118 0.36-0.295 0.437-0.531 0.125-0.39 0.094-1.005-0.094-1.838l1.59-0.375z"/>
				<path d="m136.91 47.627l0.071 2.548c0.017 0.686 0.118 1.136 0.299 1.341 0.111 0.118 0.303 0.218 0.575 0.299s0.548 0.125 0.82 0.131l0.239 0.003 0.047 1.754-7.529 0.205-0.047-1.751 0.222-0.021c0.289-0.02 0.558-0.077 0.827-0.175 0.269-0.097 0.45-0.205 0.551-0.329 0.175-0.215 0.249-0.669 0.235-1.358l-0.067-2.376-3.059-4.494c-0.544-0.8-1.008-1.338-1.392-1.617-0.376-0.276-0.894-0.454-1.549-0.535l-0.047-1.724 8.096-0.222 0.047 1.741c-0.107 0.006-0.195 0.01-0.269 0.01-0.924 0.023-1.385 0.215-1.371 0.568 0 0.071 0.114 0.319 0.346 0.747l1.842 3.112 1.583-2.783c0.37-0.666 0.555-1.082 0.551-1.247-0.007-0.141-0.125-0.255-0.356-0.339-0.235-0.084-0.538-0.125-0.921-0.114-0.074 0.003-0.175 0.01-0.309 0.02l-0.047-1.741 6.51-0.182 0.047 1.741c-0.756 0.081-1.368 0.289-1.832 0.632s-0.961 0.955-1.492 1.832l-2.62 4.324z"/>
				<path d="m164.51 49.741c0.615 0.396 1.072 0.843 1.368 1.337 0.504 0.84 0.628 1.761 0.38 2.759-0.249 1.012-0.776 1.805-1.57 2.386-0.618 0.454-1.297 0.706-2.043 0.76s-1.761-0.077-3.045-0.393l-8.476-2.098 0.417-1.69 0.255 0.051c0.249 0.047 0.518 0.057 0.813 0.03 0.289-0.027 0.498-0.081 0.619-0.168 0.222-0.158 0.417-0.571 0.584-1.247l1.765-7.139c0.165-0.676 0.188-1.14 0.067-1.385-0.071-0.128-0.226-0.269-0.467-0.431-0.242-0.158-0.484-0.272-0.719-0.346l-0.269-0.078 0.42-1.69 8.049 1.99c2.084 0.514 3.435 1.22 4.06 2.121 0.591 0.86 0.766 1.785 0.521 2.766-0.158 0.632-0.474 1.167-0.955 1.603-0.48 0.435-1.07 0.724-1.77 0.862zm-6.27-0.497l-0.911 3.697c-0.097 0.394-0.087 0.672 0.034 0.827 0.208 0.282 0.723 0.524 1.546 0.729 0.981 0.242 1.781 0.185 2.41-0.168 0.581-0.329 0.971-0.877 1.156-1.63 0.199-0.8 0.108-1.432-0.265-1.906-0.376-0.471-1.076-0.83-2.101-1.085l-1.88-0.464zm0.47-1.879l1.805 0.447c0.857 0.212 1.563 0.222 2.11 0.03 0.548-0.191 0.891-0.568 1.032-1.129 0.148-0.615 0.027-1.143-0.37-1.583-0.396-0.44-1.055-0.773-1.976-1.002-0.592-0.145-1.055-0.201-1.388-0.165-0.158 0.014-0.272 0.078-0.346 0.188-0.077 0.114-0.155 0.329-0.235 0.645l-0.63 2.569z"/>
				<path d="m183.11 50.147l-0.79 11.152c-0.081 1.119-0.074 1.812 0.02 2.081 0.098 0.266 0.478 0.642 1.143 1.136l-0.76 1.566-6.998-3.408 0.766-1.566c0.629 0.242 1.083 0.376 1.358 0.4 0.276 0.023 0.457-0.054 0.544-0.232 0.084-0.171 0.151-0.477 0.202-0.917l0.202-1.902-4.127-2.01-1.402 1.327c-0.249 0.235-0.406 0.427-0.484 0.582-0.111 0.229-0.091 0.43 0.054 0.605 0.148 0.175 0.582 0.508 1.294 0.999l-0.763 1.566-5.922-2.887 0.763-1.566c0.776 0.218 1.385 0.262 1.829 0.125 0.447-0.138 1.075-0.562 1.885-1.271l8.214-7.226 2.98 1.446zm-7.01 4.928l2.887 1.408 0.4-4.41-3.29 3.002z"/>
				<path d="m197.36 70.804l0.843 1.781c-0.921 0.582-1.983 0.914-3.193 1.005-1.855 0.131-3.579-0.414-5.183-1.644-1.519-1.163-2.487-2.622-2.904-4.376-0.524-2.205-0.02-4.305 1.506-6.302 1.015-1.324 2.231-2.255 3.65-2.803 1.116-0.437 2.259-0.554 3.415-0.353 1.16 0.202 2.272 0.709 3.337 1.522 1.012 0.776 1.768 1.728 2.269 2.857l0.679-0.484 1.022 0.783-1.741 5.384-1.67-0.531c0.182-1.486 0.232-2.521 0.158-3.106-0.175-1.361-0.672-2.362-1.506-3.001-0.85-0.652-1.788-0.824-2.81-0.518-1.25 0.37-2.44 1.284-3.563 2.749-1.273 1.664-1.768 3.2-1.485 4.615 0.188 0.917 0.645 1.654 1.364 2.208 0.424 0.323 0.928 0.565 1.52 0.726 0.584 0.165 1.176 0.222 1.768 0.178 0.65-0.058 1.49-0.286 2.51-0.69z"/>
				<path d="m211.05 78.988l-1.664 5.519c-0.39 1.287-0.578 2.181-0.568 2.679 0.01 0.501 0.229 1.082 0.655 1.741l-1.321 1.136-5.263-6.127 1.321-1.133c0.417 0.464 0.739 0.76 0.975 0.894 0.229 0.131 0.427 0.131 0.585-0.01 0.084-0.067 0.161-0.198 0.229-0.386 0.006-0.037 0.047-0.178 0.121-0.43 0.047-0.141 0.084-0.262 0.114-0.363l1.317-4.02-2.279-0.339-1.513 1.304c-0.544 0.464-0.833 0.837-0.867 1.119s0.154 0.726 0.564 1.337l0.047 0.071-1.324 1.136-4.803-5.599 1.321-1.136 0.148 0.155c0.202 0.211 0.423 0.39 0.666 0.534 0.249 0.145 0.45 0.215 0.612 0.219 0.269 0 0.669-0.222 1.196-0.676l5.573-4.786c0.521-0.447 0.807-0.81 0.86-1.089 0.013-0.151-0.034-0.359-0.138-0.618s-0.246-0.511-0.424-0.75l-0.131-0.168 1.324-1.133 4.806 5.593-1.324 1.136-0.061-0.057c-0.564-0.498-0.981-0.75-1.253-0.759-0.272-0.01-0.683 0.218-1.224 0.686l-2.185 1.875 4.904 0.494c0.477 0.051 0.759 0.074 0.854 0.067 0.091-0.003 0.182-0.04 0.262-0.111 0.114-0.101 0.148-0.242 0.087-0.417-0.061-0.178-0.219-0.417-0.471-0.713-0.04-0.047-0.107-0.124-0.202-0.235l1.324-1.132 4.679 5.448-1.217 1.045c-0.77-0.635-1.485-1.072-2.138-1.314-0.659-0.239-1.65-0.434-2.984-0.575l-1.22-0.112z"/>
			</g>
				<path d="m95.459 123.58v23.021c0 0.793 0.047 1.358 0.145 1.707 0.091 0.343 0.286 0.639 0.582 0.888 0.423 0.383 1.23 0.618 2.42 0.699l1.123 0.047 0.944 0.047 0.528 0.041v3.583h-18.976v-3.583l0.726-0.021c2.521-0.114 3.993-0.484 4.417-1.102 0.235-0.323 0.356-1.029 0.356-2.131v-15.045c0-0.951-0.041-1.556-0.111-1.812-0.078-0.259-0.279-0.474-0.615-0.652-0.383-0.218-0.77-0.359-1.156-0.427-0.39-0.067-1.425-0.158-3.112-0.275l-0.504-0.044v-3.408c2.521-0.061 4.295-0.162 5.331-0.299 1.035-0.141 2.958-0.551 5.774-1.233h2.129z"/>
				<path d="m117.8 122.87c3.842 0 6.934 1.291 9.27 3.872 2.655 2.934 3.983 6.866 3.983 11.792 0 3.415-0.652 6.426-1.959 9.021-1.257 2.554-3.112 4.403-5.559 5.565-1.788 0.847-3.774 1.277-5.956 1.277-3.785 0-6.88-1.217-9.28-3.657-2.773-2.783-4.157-6.749-4.157-11.898 0-3.067 0.558-5.853 1.67-8.36 1.314-2.934 3.297-5.031 5.949-6.292 1.78-0.85 3.79-1.29 6.05-1.32zm-0.22 4.19c-1.17 0-2.151 0.494-2.944 1.476-0.686 0.864-1.163 1.838-1.425 2.924-0.558 2.242-0.837 4.578-0.837 7.009 0 4.954 0.756 8.375 2.262 10.265 0.793 0.981 1.774 1.472 2.944 1.472 1.203 0 2.191-0.491 2.968-1.472 1.509-1.902 2.262-5.257 2.262-10.063 0-2.378-0.191-4.431-0.582-6.169-0.386-1.734-0.948-3.059-1.68-3.966-0.79-0.97-1.78-1.46-2.97-1.48z"/>
				<path d="m147.22 122.87c3.848 0 6.934 1.291 9.27 3.872 2.655 2.934 3.983 6.866 3.983 11.792 0 3.415-0.652 6.426-1.956 9.021-1.257 2.554-3.112 4.403-5.559 5.565-1.788 0.847-3.778 1.277-5.959 1.277-3.781 0-6.873-1.217-9.28-3.657-2.77-2.783-4.154-6.749-4.154-11.898 0-3.067 0.558-5.853 1.667-8.36 1.321-2.934 3.304-5.031 5.953-6.292 1.78-0.85 3.79-1.29 6.04-1.32zm-0.21 4.19c-1.17 0-2.151 0.494-2.944 1.476-0.686 0.864-1.163 1.838-1.429 2.924-0.554 2.242-0.837 4.578-0.837 7.009 0 4.954 0.756 8.375 2.266 10.265 0.793 0.981 1.774 1.472 2.944 1.472 1.203 0 2.191-0.491 2.967-1.472 1.509-1.902 2.262-5.257 2.262-10.063 0-2.378-0.195-4.431-0.578-6.169-0.393-1.734-0.955-3.059-1.684-3.966-0.8-0.97-1.78-1.46-2.97-1.48z"/>
				<path d="m171.16 122.87c2.265 0 4.181 0.776 5.754 2.33 1.512 1.505 2.272 3.351 2.272 5.529 0 2.121-0.686 3.905-2.05 5.354-1.56 1.653-3.556 2.479-5.996 2.479-2.071 0-3.879-0.613-5.418-1.843-1.913-1.52-2.867-3.502-2.867-5.946 0-2.094 0.713-3.899 2.141-5.421 1.55-1.62 3.61-2.45 6.18-2.48zm-0.13 3.62c-1.855 0-2.783 1.378-2.783 4.127 0 2.833 0.928 4.252 2.783 4.252 1.838 0 2.756-1.395 2.756-4.188-0.01-2.78-0.92-4.17-2.76-4.19zm22.22-2.91l-20.189 30.032h-3.916l20.082-30.032h4.03zm-1.88 15.06c2.245 0 4.147 0.78 5.713 2.333 1.506 1.52 2.262 3.368 2.262 5.559 0 2.131-0.683 3.926-2.04 5.378-1.556 1.66-3.542 2.494-5.956 2.494-2.067 0-3.872-0.619-5.405-1.855-1.906-1.526-2.857-3.522-2.857-5.976 0-2.097 0.709-3.912 2.131-5.445 1.53-1.62 3.58-2.46 6.16-2.48zm-0.16 3.61c-1.822 0-2.732 1.391-2.732 4.161 0 2.864 0.911 4.289 2.732 4.289s2.736-1.405 2.736-4.221c0-2.8-0.91-4.21-2.74-4.23z"/>
			<g fill="#fff">
				<path d="m71.57 207.42l1.284-1.25 5.25 5.357-1.368 1.337-0.118-0.121c-0.138-0.142-0.356-0.283-0.652-0.417-0.296-0.141-0.521-0.215-0.672-0.215-0.289 0.014-0.706 0.283-1.253 0.82l-3.137 3.06-1.754-1.794 0.585-1.311c-0.84-0.222-1.418-0.39-1.734-0.504-0.951-0.356-1.855-0.968-2.716-1.849-0.941-0.961-1.586-2.077-1.929-3.348-0.386-1.418-0.272-2.89 0.356-4.423 0.497-1.237 1.244-2.333 2.238-3.307 1.217-1.19 2.578-1.977 4.087-2.366 1.563-0.403 3.092-0.289 4.591 0.329 1.021 0.424 1.936 1.056 2.742 1.875 0.471 0.484 0.897 1.069 1.277 1.748 0.383 0.679 0.635 1.311 0.756 1.889l0.716-0.222 1.021 1.042-2.763 4.699-1.566-0.78c0.343-1.156 0.518-2.09 0.518-2.816-0.007-1.626-0.44-2.884-1.308-3.771-0.521-0.531-1.2-0.813-2.04-0.847-0.736-0.027-1.56 0.181-2.48 0.638-0.917 0.458-1.788 1.083-2.608 1.889-1.217 1.196-1.936 2.413-2.158 3.67-0.232 1.311 0.067 2.386 0.897 3.233 0.716 0.733 1.58 1.062 2.591 0.995 0.652-0.047 1.19-0.282 1.62-0.706 0.735-0.71 0.644-1.55-0.273-2.53z"/>
				<path d="m87.561 213.61l-3.324 5.055c-0.396 0.605-0.666 1.109-0.803 1.505-0.138 0.397-0.182 0.793-0.125 1.183 0.05 0.37 0.188 0.733 0.42 1.089 0.229 0.356 0.511 0.646 0.847 0.867 0.343 0.222 0.739 0.41 1.19 0.551 0.45 0.141 0.843 0.202 1.169 0.195 0.417-0.02 0.813-0.181 1.19-0.491 0.376-0.302 0.78-0.786 1.223-1.458l3.361-5.109c0.423-0.645 0.611-1.116 0.568-1.411-0.05-0.289-0.376-0.699-0.992-1.23l-0.168-0.161 1.032-1.573 5.314 3.496-1.032 1.58-0.222-0.107c-0.723-0.35-1.227-0.484-1.516-0.41s-0.646 0.43-1.069 1.076l-3.297 5.015c-0.863 1.311-1.596 2.165-2.201 2.554-0.928 0.598-2.05 0.753-3.381 0.471-1.042-0.229-2.037-0.652-2.978-1.271-1.432-0.948-2.45-2.07-3.048-3.381-0.36-0.78-0.474-1.512-0.346-2.198 0.134-0.692 0.551-1.573 1.257-2.642l3.559-5.411c0.427-0.645 0.615-1.116 0.568-1.412-0.041-0.295-0.37-0.706-0.981-1.223l-0.182-0.162 1.035-1.573 6.769 4.45-1.032 1.573-0.212-0.094c-0.732-0.35-1.237-0.491-1.526-0.417-0.287 0.07-0.643 0.44-1.067 1.08z"/>
				<path d="m109.94 220.73l0.219 12.106c0.02 1.21 0.094 1.956 0.222 2.239 0.128 0.276 0.578 0.652 1.341 1.116l-0.668 1.761-7.861-2.998 0.668-1.761c0.706 0.202 1.204 0.296 1.502 0.296 0.299 0 0.487-0.094 0.568-0.296 0.071-0.195 0.114-0.531 0.125-1.015l0.05-2.097-4.638-1.768-1.398 1.6c-0.242 0.275-0.4 0.498-0.464 0.672-0.101 0.255-0.061 0.47 0.114 0.645s0.672 0.491 1.492 0.948l-0.672 1.761-6.662-2.534 0.676-1.768c0.857 0.168 1.516 0.154 1.983-0.041 0.467-0.188 1.103-0.706 1.906-1.546l8.16-8.591 3.34 1.28zm-7.09 6l3.244 1.237 0.006-4.793-3.25 3.55z"/>
				<path d="m128.3 233.57l2.336 4.114c0.38 0.679 0.716 1.136 1.012 1.371 0.289 0.229 0.773 0.431 1.445 0.599l-0.269 1.861-5.277-0.759-3.946-7.374-1.042-0.155-0.424 2.924c-0.101 0.719-0.074 1.217 0.091 1.479 0.162 0.269 0.548 0.464 1.16 0.592l0.491 0.107-0.266 1.861-8.036-1.149 0.266-1.868 0.514 0.04c0.622 0.047 1.045-0.033 1.274-0.242 0.225-0.208 0.393-0.679 0.498-1.404l1.149-7.999c0.104-0.72 0.077-1.21-0.084-1.479-0.162-0.269-0.545-0.464-1.153-0.592l-0.508-0.107 0.269-1.862 8.755 1.257c2.033 0.289 3.546 0.767 4.547 1.425 0.666 0.437 1.143 1.062 1.435 1.875 0.205 0.584 0.259 1.183 0.171 1.814-0.134 0.915-0.541 1.708-1.227 2.373-0.78 0.78-1.85 1.21-3.18 1.31zm-5.43-2.51l1.479 0.215c1.012 0.148 1.802 0.107 2.376-0.114 0.796-0.303 1.253-0.867 1.375-1.694 0.067-0.477 0-0.914-0.202-1.311-0.198-0.403-0.504-0.706-0.921-0.921-0.383-0.202-0.971-0.363-1.758-0.477-0.628-0.087-1.105-0.074-1.435 0.04-0.134 0.041-0.232 0.107-0.279 0.195-0.05 0.087-0.091 0.262-0.125 0.511l-0.51 3.55z"/>
				<path d="m147.03 225.17l5.357 10.863c0.538 1.089 0.921 1.734 1.156 1.929 0.235 0.202 0.8 0.343 1.687 0.438l0.145 1.882-8.389 0.639-0.145-1.882c0.723-0.114 1.217-0.235 1.489-0.363s0.4-0.303 0.379-0.511c-0.013-0.209-0.117-0.531-0.313-0.968l-0.85-1.923-4.951 0.376-0.582 2.044c-0.104 0.356-0.151 0.618-0.134 0.807 0.02 0.269 0.147 0.45 0.383 0.531 0.229 0.087 0.813 0.161 1.748 0.229l0.147 1.875-7.105 0.545-0.148-1.883c0.847-0.215 1.438-0.511 1.778-0.88 0.339-0.377 0.695-1.109 1.065-2.219l3.717-11.259 3.55-0.27zm-3.85 8.43l3.461-0.269-2.037-4.315-1.42 4.58z"/>
				<path d="m161.97 222.3l7.676 7.132-1.499-4.954c-0.215-0.712-0.45-1.156-0.702-1.324-0.145-0.087-0.367-0.128-0.672-0.141-0.306-0.007-0.615 0.027-0.924 0.094l-0.225 0.061-0.548-1.808 5.952-1.801 0.548 1.801-0.215 0.081c-0.692 0.249-1.116 0.531-1.264 0.847-0.148 0.309-0.114 0.833 0.107 1.566l3.428 11.313-2.736 0.826-10.399-9.504 2.393 7.885c0.218 0.719 0.45 1.157 0.699 1.318 0.147 0.087 0.376 0.141 0.686 0.147 0.316 0.014 0.618-0.02 0.914-0.094l0.225-0.061 0.544 1.808-5.952 1.802-0.544-1.802 0.215-0.08c0.289-0.101 0.562-0.242 0.813-0.424s0.417-0.35 0.491-0.511c0.118-0.269 0.067-0.76-0.148-1.479l-2.309-7.603c-0.218-0.719-0.45-1.163-0.702-1.324-0.145-0.087-0.37-0.135-0.672-0.142-0.302-0.013-0.612 0.021-0.924 0.094l-0.225 0.061-0.544-1.808 6.49-2z"/>
				<path d="m185.08 211.99l3.922 3.28-1.153 1.385c-1.001-0.591-1.771-0.961-2.316-1.109-1.153-0.33-2.087-0.296-2.806 0.101-0.208 0.114-0.313 0.208-0.313 0.289s0.104 0.303 0.306 0.672l4.295 7.804c0.363 0.652 0.679 1.035 0.948 1.143 0.161 0.061 0.396 0.061 0.706 0 0.31-0.054 0.592-0.148 0.833-0.269l0.39-0.208 0.914 1.667-7.394 4.073-0.914-1.66 0.343-0.208c0.249-0.141 0.477-0.329 0.692-0.564 0.218-0.235 0.35-0.43 0.383-0.605 0.06-0.282-0.088-0.76-0.451-1.418l-4.275-7.757c-0.171-0.31-0.299-0.498-0.383-0.551-0.084-0.061-0.202-0.041-0.356 0.04-0.611 0.336-1.105 0.928-1.479 1.768-0.4 0.894-0.538 1.896-0.414 3.011l-1.838 0.262-0.78-5.008 11.13-6.13z"/>
				<path d="m198.67 205.84l4.665 5.431-1.351 1.156c-0.37-0.336-0.729-0.605-1.075-0.807-0.347-0.202-0.646-0.309-0.901-0.323-0.37-0.04-1.005 0.336-1.913 1.129l1.765 2.05c0.77 0.901 1.244 1.392 1.418 1.479 0.349 0.175 0.9-0.061 1.653-0.699 1.069-0.921 1.802-1.97 2.188-3.139 0.387-1.163 0.484-2.635 0.292-4.403l1.734-0.477 1.617 5.787-10.476 8.994-1.23-1.432 0.222-0.222c0.202-0.175 0.376-0.403 0.527-0.672 0.155-0.269 0.232-0.484 0.232-0.646 0-0.295-0.242-0.726-0.732-1.291l-5.166-6.023c-0.487-0.564-0.88-0.874-1.173-0.927-0.162-0.021-0.38 0.02-0.655 0.134-0.276 0.107-0.528 0.255-0.756 0.43l-0.252 0.182-1.227-1.432 10.177-8.738 4.84 2.111-0.692 1.606c-2.682-0.699-4.874-0.316-6.574 1.149-0.884 0.753-1.317 1.317-1.297 1.687 0.014 0.235 0.319 0.706 0.921 1.405l1.271 1.479 0.491-0.403c0.504-0.43 0.827-0.753 0.975-0.975 0.145-0.222 0.195-0.464 0.148-0.726-0.081-0.437-0.417-1.008-1.015-1.721l1.33-1.15z"/>
				<path d="m211 191.93l5.68 4.356-1.089 1.418c-0.43-0.255-0.84-0.444-1.22-0.571-0.38-0.121-0.696-0.168-0.945-0.128-0.37 0.041-0.921 0.538-1.646 1.499l2.147 1.654c0.958 0.732 1.529 1.129 1.728 1.183 0.387 0.101 0.884-0.235 1.485-1.021 0.864-1.129 1.361-2.299 1.489-3.529 0.134-1.23-0.081-2.703-0.646-4.41l1.6-0.82 2.776 5.337-8.419 10.97-1.496-1.149 0.168-0.262c0.161-0.215 0.289-0.471 0.383-0.767 0.094-0.295 0.128-0.518 0.094-0.679-0.061-0.289-0.39-0.659-0.981-1.116l-6.285-4.827c-0.592-0.457-1.042-0.679-1.338-0.666-0.165 0.014-0.37 0.094-0.619 0.262-0.245 0.162-0.46 0.356-0.652 0.578l-0.208 0.229-1.492-1.149 8.181-10.654 5.149 1.056-0.346 1.714c-2.783-0.134-4.856 0.686-6.228 2.467-0.709 0.927-1.015 1.566-0.921 1.929 0.063 0.229 0.464 0.632 1.207 1.197l1.546 1.19 0.383-0.511c0.407-0.524 0.659-0.914 0.756-1.163 0.101-0.242 0.101-0.491 0-0.74-0.161-0.41-0.605-0.894-1.331-1.465l1.09-1.41z"/>
			</g>
			<polygon points="46.625 126.94 49.098 134.56 57.111 134.56 50.631 139.28 53.104 146.89 46.625 142.19 40.138 146.89 42.615 139.28 36.135 134.56 44.151 134.56" fill="#fff"/>
			<polygon points="230.93 126.94 233.41 134.56 241.42 134.56 234.94 139.28 237.41 146.89 230.93 142.19 224.45 146.89 226.92 139.28 220.44 134.56 228.45 134.56" fill="#fff"/>
			<g fill="#fff">
				<polygon points="115.91 87.74 118.38 95.359 126.39 95.359 119.91 100.07 122.39 107.69 115.91 102.98 109.43 107.69 111.9 100.07 105.42 95.359 113.43 95.359"/>
				<polygon points="139.47 87.74 141.94 95.359 149.96 95.359 143.47 100.07 145.96 107.69 139.47 102.98 132.99 107.69 135.46 100.07 128.98 95.359 136.99 95.359"/>
				<polygon points="163.03 87.74 165.51 95.359 173.52 95.359 167.04 100.07 169.52 107.69 163.03 102.98 156.55 107.69 159.02 100.07 152.54 95.359 160.56 95.359"/>
			</g>
			<g fill="#fff">
				<polygon points="115.91 168.94 118.38 176.56 126.39 176.56 119.91 181.27 122.39 188.89 115.91 184.18 109.43 188.89 111.9 181.27 105.42 176.56 113.43 176.56"/>
				<polygon points="139.47 168.94 141.94 176.56 149.96 176.56 143.47 181.27 145.96 188.89 139.47 184.18 132.99 188.89 135.46 181.27 128.98 176.56 136.99 176.56"/>
				<polygon points="163.03 168.94 165.51 176.56 173.52 176.56 167.04 181.27 169.52 188.89 163.03 184.18 156.55 188.89 159.02 181.27 152.54 176.56 160.56 176.56"/>
			</g>
	</g>
</switch>
<metadata><rdf:RDF><cc:Work><dc:format>image/svg+xml</dc:format><dc:type rdf:resource="http://purl.org/dc/dcmitype/StillImage"/><cc:license rdf:resource="http://creativecommons.org/licenses/publicdomain/"/><dc:publisher><cc:Agent rdf:about="http://openclipart.org/"><dc:title>Openclipart</dc:title></cc:Agent></dc:publisher><dc:title>Money Back Guarantee Sticker</dc:title><dc:date>2011-01-03T12:29:11</dc:date><dc:description>Money Back Guarantee Vector Sticker.</dc:description><dc:source>http://openclipart.org/detail/103339/money-back-guarantee-sticker-by-vectorportal</dc:source><dc:creator><cc:Agent><dc:title>vectorportal</dc:title></cc:Agent></dc:creator><dc:subject><rdf:Bag><rdf:li>100%</rdf:li><rdf:li>art</rdf:li><rdf:li>clip art</rdf:li><rdf:li>clipart</rdf:li><rdf:li>guarantee</rdf:li><rdf:li>money</rdf:li><rdf:li>sticker</rdf:li><rdf:li>vector</rdf:li></rdf:Bag></dc:subject></cc:Work><cc:License rdf:about="http://creativecommons.org/licenses/publicdomain/"><cc:permits rdf:resource="http://creativecommons.org/ns#Reproduction"/><cc:permits rdf:resource="http://creativecommons.org/ns#Distribution"/><cc:permits rdf:resource="http://creativecommons.org/ns#DerivativeWorks"/></cc:License></rdf:RDF></metadata></svg>
