<?xml version="1.0" encoding="UTF-8" standalone="no"?>
<!DOCTYPE svg PUBLIC "-//W3C//DTD SVG 1.1//EN" "http://www.w3.org/Graphics/SVG/1.1/DTD/svg11.dtd">
<svg viewBox="0 0 512 512" version="1.1" xmlns="http://www.w3.org/2000/svg" xmlns:xlink="http://www.w3.org/1999/xlink" xml:space="preserve" xmlns:serif="http://www.serif.com/" style="fill-rule:evenodd;clip-rule:evenodd;stroke-linecap:round;stroke-linejoin:round;stroke-miterlimit:1.5;">
    <g id="Background" transform="matrix(2.40217,0,0,1.2706,-202.815,23.3097)">
        <ellipse cx="191" cy="183.134" rx="92" ry="173.147" style="fill:none;stroke:rgb(178,226,140);stroke-width:24.98px;"/>
        <ellipse cx="191" cy="183.134" rx="92" ry="173.147" style="fill:rgb(234,239,206);"/>
    </g>
    <g id="Butterfly" transform="matrix(-2.56125,0.686284,0.686284,2.56125,346.45,67.7621)">
        <g transform="matrix(1.82677,0,0,1.3399,-51.0916,-12.748)">
            <path d="M33.375,38.347C33.252,38.355 33.054,38.368 32.931,38.376C17.053,39.528 16.581,46.717 16.635,48.075C16.64,48.198 16.695,48.386 16.753,48.494C21.37,57.121 44.52,51.092 47.752,49.382C50.124,48.13 49.928,45.91 49.801,45.211C49.779,45.09 49.838,44.944 49.943,44.881C50.67,44.437 53.212,42.785 53.085,41.515C52.936,40.04 50.953,37.169 33.375,38.347Z" style="fill:rgb(255,228,80);fill-rule:nonzero;"/>
        </g>
        <g transform="matrix(1.82677,0,0,1.3399,-51.0916,-12.748)">
            <path d="M11.655,46.002C12.865,46.319 13.662,46.148 14.014,46.026C14.13,45.987 14.191,45.846 14.164,45.725C12.106,37.18 22.274,25.126 23.624,23.572C23.705,23.48 23.794,23.309 23.816,23.188C23.991,22.258 24.432,18.55 20.956,16.296C16.636,13.496 15.185,11.115 14.832,10.426C14.775,10.316 14.734,10.125 14.727,10.002C14.65,8.487 13.992,-0.264 9.256,0.006C3.392,0.341 3.445,18.186 3.445,18.186C2.622,34.122 10.175,44.338 11.302,45.768C11.378,45.864 11.536,45.972 11.655,46.002Z" style="fill:rgb(255,228,80);fill-rule:nonzero;"/>
        </g>
        <g transform="matrix(1.82677,0,0,1.3399,-51.0916,-12.748)">
            <path d="M15.822,46.735C15.768,45.37 16.245,38.122 32.341,37.022C39.749,36.514 44.416,36.721 47.355,37.241C47.474,37.262 47.638,37.206 47.714,37.11C47.894,36.883 48.062,36.641 48.209,36.385C48.788,35.382 49.558,33.346 48.19,30.963C46.485,27.996 47.596,25.31 47.699,25.078C49.173,22.248 49.557,19.866 48.846,18C48.135,16.131 46.571,15.52 46.502,15.494C46.502,15.494 46.483,15.486 46.463,15.478C46.441,15.469 46.401,15.459 46.379,15.456L46.336,15.45C45.577,15.332 44.799,15.272 44.022,15.272C33.774,15.272 23.84,25.577 18.447,34.4C15.135,39.818 14.788,43.838 15.054,46.215C15.068,46.337 15.163,46.491 15.265,46.562L15.656,46.829C15.759,46.901 15.828,46.858 15.822,46.735Z" style="fill:rgb(254,204,74);fill-rule:nonzero;"/>
        </g>
        <g transform="matrix(1.82677,0,0,1.3399,-51.0916,-12.748)">
            <path d="M28.464,56.019C27.819,55.556 27.56,55.064 27.458,54.792C27.416,54.678 27.3,54.56 27.181,54.535C26.321,54.36 23.077,53.667 20.369,52.636C17.666,51.607 15.985,48.921 15.559,48.174C15.499,48.068 15.477,48.076 15.501,48.196C15.722,49.278 15.491,50.182 15.357,50.573C15.317,50.688 15.324,50.868 15.386,50.973C18.734,56.793 24.482,55.329 26.174,55.874C27.882,56.427 29.421,56.708 28.464,56.019Z" style="fill:rgb(89,89,89);fill-rule:nonzero;"/>
        </g>
        <g transform="matrix(1.82677,0,0,1.3399,-51.0916,-12.748)">
            <path d="M12.987,47.364C12.81,47.377 12.641,47.411 12.481,47.465C12.365,47.503 12.206,47.474 12.117,47.39C10.9,46.201 7.864,43.718 3.619,43.621C3.467,43.617 3.339,43.739 3.336,43.893C3.332,44.045 3.454,44.173 3.608,44.176C7.504,44.264 10.397,46.535 11.625,47.694C11.715,47.78 11.709,47.913 11.623,48.001C11.541,48.085 11.466,48.176 11.399,48.272C11.329,48.374 11.194,48.418 11.083,48.364C9.894,47.799 7.108,46.746 4.31,47.645C4.164,47.692 4.084,47.848 4.131,47.995C4.178,48.141 4.335,48.222 4.481,48.174C7.094,47.334 9.785,48.368 10.88,48.888C10.992,48.941 11.056,49.081 11.041,49.203C11.024,49.339 11.02,49.475 11.03,49.616C11.11,50.778 12.119,51.655 13.28,51.573C14.442,51.492 15.319,50.483 15.237,49.323C15.156,48.16 14.148,47.284 12.987,47.364Z" style="fill:rgb(89,89,89);fill-rule:nonzero;"/>
        </g>
    </g>
    <g transform="matrix(0.765495,0,0,0.630731,151.521,-25.8592)">
        <path d="M10.138,777.772L-68.084,698.227C-68.084,698.227 69.284,578.275 177.986,203.225C185.63,176.851 188.362,130.265 155.016,123.408C119.281,116.061 -121,234.306 -121,234.306C-121,234.306 7.642,169.557 88.835,112.367C132.127,81.874 138.712,73.78 170.773,92.769C202.834,111.758 238.719,159.167 243.723,248.051C246.043,289.273 248.793,529.071 280.996,575.371C312.14,620.145 436.944,525.846 436.944,525.846C436.944,525.846 263.357,683.421 243.868,666.186C211.665,637.707 227.447,313.533 220.753,292.254C168.539,393.425 103.712,545.263 59.861,615.38C23.969,672.77 10.138,777.772 10.138,777.772Z" style="fill:rgb(0,167,67);fill-rule:nonzero;stroke:rgb(0,167,67);stroke-width:17.11px;stroke-linecap:butt;stroke-miterlimit:2;"/>
    </g>
</svg>
