<?xml version="1.0" encoding="UTF-8"?>
<svg version="1.1" x="0" y="0" width="645.6" height="731.4" viewBox="0, 0, 645.6, 731.4">
  <defs>
    <clipPath id="Clip_1">
      <path d="M0.036,0.42 L645.186,0.42 L645.186,731.364 L0.036,731.364 z"/>
    </clipPath>
  </defs>
  <g id="Layer_1">
    <g clip-path="url(#Clip_1)">
      <path d="M408.961,380.585 C406.076,391.898 403.511,403.281 401.072,414.7 C399.426,422.408 395.823,429.532 393.277,436.982 C392.439,439.434 391.362,441.809 390.612,444.285 C390.124,445.895 389.383,445.945 388.039,445.391 C382.24,443.001 376.417,440.669 370.594,438.337 C369.83,438.032 369.197,437.702 368.825,436.878 C365.144,428.704 358.972,422.691 351.901,417.464 C351.75,417.352 351.665,417.149 351.467,416.876 C359.043,411.884 366.566,406.83 373.611,401.106 C380.924,395.163 387.381,388.43 393.483,381.228 C400.23,373.265 407.777,365.987 414.71,358.019 C412.794,365.542 410.879,373.064 408.961,380.585 z M634.308,2.319 C630.528,1.381 626.7,0.393 622.8,0.421 C607.302,0.53 592.23,3.083 577.606,8.377 C569.078,11.464 563.053,17.221 559.553,25.294 C552.371,41.858 545.381,58.516 538.794,75.325 C534.921,85.208 532.146,95.56 528.341,105.437 C513.134,144.917 497.257,184.138 481.623,223.452 C478.277,231.865 474.91,240.268 471.476,248.866 C469.1,246.412 466.589,244.604 464.065,242.818 C463.081,242.122 462.653,241.415 462.778,240.098 C464.17,225.311 463.842,210.557 461.948,195.818 C458.885,171.975 450.19,150.541 435.055,131.769 C397.691,85.427 333.488,69.568 282.885,79.202 C255.172,84.479 231.73,97.861 211.825,117.64 C210.187,119.267 208.769,119.824 206.386,119.354 C193.592,116.836 180.684,115.565 167.627,116.685 C160.639,117.285 153.76,118.458 147.136,120.836 C142.382,122.543 141.067,125.035 142.103,129.932 C142.262,130.687 142.103,131.514 142.054,132.305 C141.526,140.775 144.011,147.922 150.539,153.723 C157.198,159.641 165.072,162.646 173.528,164.598 C174.299,164.776 175.851,164.447 175.532,165.718 C174.859,168.401 174.955,171.286 171.995,173.238 C158.375,182.216 145.585,192.292 133.625,203.395 C126.732,209.793 119.968,216.331 114.731,224.225 C111.437,229.19 112.355,232.378 117.701,235.07 C118.499,235.472 119.348,235.777 120.19,236.083 C128.747,239.188 137.619,240.374 146.677,240.272 C148.433,240.253 148.928,240.517 148.265,242.378 C147.162,245.476 146.361,248.683 145.45,251.849 C138.235,276.91 134.157,302.336 136.625,328.508 C139.43,358.256 151.299,383.786 173.11,404.243 C192.333,422.272 214.877,434.137 241.235,437.975 C246.717,438.773 252.253,439.199 257.849,439.806 C255.124,444.818 251.968,448.849 246.111,450.08 C242.92,450.751 239.886,452.18 236.792,453.298 C230.699,455.499 224.471,457.395 218.555,460.001 C205.37,465.808 196.112,476.029 189.726,488.544 C185.748,496.34 180.58,502.98 174.832,509.354 C173.961,510.32 173.116,511.307 172.256,512.282 C166.328,519.011 160.399,525.739 154.357,532.595 C153.851,531.79 153.464,531.22 153.122,530.623 C145.81,517.901 138.537,505.159 131.163,492.474 C130.012,490.493 129.352,488.551 129.531,486.26 C130.278,476.684 130.144,467.085 130.301,457.492 C130.424,450.035 131.742,442.838 135.939,436.357 C138.004,433.167 139.13,429.494 139.387,425.62 C139.946,417.203 133.607,411.967 125.479,414.185 C120.322,415.593 116.596,418.988 113.367,423.044 C110.507,426.636 108.34,430.671 106.102,434.747 C92.119,422.191 76.805,411.766 60.951,402.099 C56.954,399.662 52.912,397.254 48.349,395.969 C41.303,393.985 35.963,395.744 31.926,401.683 C30.962,403.1 30.124,402.446 29.158,402.337 C20.112,401.322 14.639,406.639 15.807,415.559 C16.036,417.306 15.235,417.013 14.242,417.129 C3.882,418.337 -0.289,427.403 5.542,436.177 C6.377,437.435 6.553,437.846 5.08,438.782 C1.379,441.133 -0.816,446.468 0.285,449.9 C1.43,453.473 3.348,456.503 6.236,459.05 C20.026,471.212 34.601,482.485 47.464,495.698 C53.181,501.57 59.152,507.223 66.197,511.526 C68.11,512.695 69.238,514.177 70.1,516.176 C81.231,542.023 92.513,567.802 105.395,592.841 C110.019,601.83 114.887,610.638 122.228,617.82 C137.955,633.204 158.374,634.602 176.023,621.498 C181.781,617.226 186.997,612.33 192.515,607.326 C194.845,619.68 199.907,630.384 208.039,639.576 C208.708,640.332 208.684,641.214 208.796,642.09 C210.129,652.602 211.483,663.102 212.782,673.614 C213.431,678.87 214.549,684.144 214.444,689.388 C214.287,697.266 213.351,705.138 212.51,712.986 C212.246,715.458 212.875,715.956 215.262,715.944 C234.961,715.848 254.659,715.89 274.358,715.89 C275.431,715.89 276.503,715.89 277.913,715.89 C276.76,718.692 275.714,721.146 274.748,723.636 C274.508,724.26 273.759,724.938 274.988,725.598 C280.348,728.478 285.614,731.388 292.028,731.4 C293.689,731.4 294.125,731.154 294.641,729.774 C296.005,726.132 297.664,722.598 298.958,718.932 C299.756,716.67 300.843,715.812 303.418,715.818 C352.214,715.914 401.011,715.872 449.808,715.938 C451.87,715.938 452.7,715.494 453.155,713.334 C457.284,693.768 460.276,674.022 462.518,654.162 C463.841,642.438 464.694,630.672 465.368,618.894 C465.413,618.108 464.962,616.662 466.202,616.704 C468.731,616.782 468.203,615.012 468.325,613.674 C471.118,582.785 471.679,551.822 471.248,520.832 C471.226,519.233 471.64,519.011 473.063,519.217 C477.116,519.803 481.18,520.355 485.255,520.756 C491.869,521.408 498.5,521.697 505.615,521.359 C495.489,506.932 486.902,492.179 481.454,475.358 C486.899,475.817 491.987,475.995 496.988,474.859 C506.371,472.729 513.414,467.889 516.305,458.163 C517.026,455.74 516.616,454.846 513.938,454.291 C503.513,452.132 499.611,447.874 497.834,437.399 C497.635,436.218 497.435,435.035 497.282,433.847 C495.549,420.406 495.925,406.9 496.208,393.411 C496.769,366.726 497.827,340.039 494.978,313.41 C493.141,296.245 489.899,279.428 482.134,263.806 C481.405,262.339 481.976,261.324 482.458,260.164 C496.618,226.066 510.651,191.915 525.012,157.903 C532.565,140.014 539.173,121.726 548.07,104.396 C555.542,89.843 562.736,75.137 569.223,60.107 C570.294,57.625 571.756,57.036 574.362,57.445 C585.612,59.209 596.855,60.962 608.304,61.136 C618.708,61.295 626.814,57.184 633.276,49.25 C640.176,40.784 644.352,31.021 645.096,20.288 C645.768,10.624 642.558,4.367 634.308,2.319" fill="#2F201B"/>
    </g>
    <path d="M284.291,249.862 C296.652,257.054 309.564,262.976 323.335,266.962 C342.396,272.479 361.783,275.173 381.644,273.849 C383.933,273.697 386.262,273.533 388.472,272.977 C390.599,272.441 391.016,273.099 391.051,275.075 C391.225,284.98 390.796,294.865 390.196,304.745 C389.942,308.935 389.577,313.118 389.305,317.306 C389.243,318.254 388.841,319.594 390.098,319.892 C391.37,320.194 391.546,318.845 391.909,317.942 C395.853,308.135 399.568,298.226 403.818,288.552 C407.996,279.043 415.316,272.759 425.548,270.488 C438.161,267.688 449.276,276.145 451.519,289.902 C454.055,305.459 442.981,322.691 427.847,326.791 C422.734,328.176 417.782,327.89 412.952,325.66 C412.186,325.307 411.275,324.533 410.551,325.552 C409.769,326.651 410.767,327.158 411.564,327.569 C412.951,328.285 412.136,329.331 411.908,330.16 C401.609,367.615 380.175,396.631 346.447,416.261 C344.73,417.26 344.122,418.314 344.218,420.243 C344.38,423.535 343.99,426.869 344.337,430.132 C344.701,433.556 343.235,435.64 340.734,437.654 C326.835,448.855 311.412,457.664 295.899,466.315 C287.545,470.972 278.999,475.287 270.524,479.728 C269.675,480.172 268.9,480.886 267.705,480.818 C267.705,476.727 267.564,472.672 267.736,468.631 C268.052,461.191 266.404,453.916 266.078,446.534 C265.968,444.039 265.641,441.548 265.644,439.055 C265.646,437.164 265.061,436.54 263.075,436.454 C242.197,435.545 222.533,429.995 204.158,420.16 C167.445,400.511 146.499,369.805 140.903,328.632 C137.294,302.078 141.377,276.267 149.002,250.861 C150.977,244.279 152.775,237.634 155.385,231.257 C160.524,227.654 166.376,225.703 172.32,223.979 C174.399,223.376 175.324,224.339 175.304,226.398 C175.207,227.818 175.085,229.238 174.85,230.647 C175.35,227.642 175.436,224.478 178.129,222.333 C194.332,218.545 210.269,220.075 226.006,224.849 C240.68,229.301 254.442,235.984 268.29,242.437 C273.62,244.921 279.084,247.114 284.291,249.862" fill="#FBE4DB"/>
    <path d="M212.449,518.996 C210.55,534.08 205.451,548.125 199.014,561.928 C193.396,545.52 185.682,530.873 166.813,525.893 C171.74,519.136 176.91,512.852 182.203,506.674 C185.197,503.179 187.87,499.552 190.09,495.472 C196.234,484.181 204.167,474.397 215.252,467.491 C218.488,465.475 222.012,464.114 225.511,462.658 C233.512,459.33 241.46,455.879 249.432,452.483 C249.872,452.295 250.333,452.157 251.293,451.814 C248.592,457.895 246.318,463.652 244.429,469.556 C241.021,480.208 238.273,491.024 236.13,501.997 C235.963,502.852 235.368,503.791 236.305,504.485 C237.455,505.339 238.151,504.131 238.868,503.638 C247.255,497.864 255.643,492.089 263.922,486.164 C265.684,484.903 266.901,484.711 268.871,485.821 C283.375,493.99 297.97,501.994 312.518,510.083 C314.025,510.921 315.205,511.372 316.745,509.905 C331.243,496.094 345.208,481.811 356.306,465.022 C361.267,457.515 365.606,449.686 366.179,440.167 C373.927,443.363 381.442,446.533 389.21,449.015 C391.671,449.802 389.995,451.127 389.637,452.006 C382.081,470.57 374.824,489.268 366.717,507.589 C360.404,521.855 353.911,536.04 347.963,550.465 C347.422,551.776 346.672,552.168 345.325,552.346 C338.204,553.286 330.965,553.312 323.951,555.09 C315.637,557.198 311.619,561.717 310.654,570.269 C310.189,574.396 309.265,578.351 308.162,582.386 C306.47,588.578 306.184,595.12 302.984,600.972 C302.192,602.418 302.059,604.602 302.448,606.252 C303.558,610.962 302.93,615.408 301.713,619.98 C299.82,627.096 302.331,633.06 307.695,637.686 C309.924,639.606 309.774,641.094 308.773,643.44 C299.584,664.998 290.468,686.592 281.429,708.216 C280.606,710.184 279.616,710.814 277.5,710.808 C258.604,710.718 239.706,710.718 220.81,710.796 C218.532,710.808 217.687,710.478 218.101,707.886 C220.367,693.72 219.107,679.632 216.959,665.556 C215.665,657.072 214.691,648.534 213.686,640.008 C213.511,638.526 213.028,637.404 212.054,636.306 C200.86,623.73 196.318,608.796 196.592,592.19 C196.841,577.178 200.668,562.998 206.773,549.39 C208.655,545.194 210.387,541.045 210.901,536.39 C211.534,530.652 212.561,524.957 213.417,519.242 C213.094,519.16 212.771,519.078 212.449,518.996" fill="#F7C2D8"/>
    <path d="M155.586,543.772 C154.328,539.585 156.756,537.12 159.391,534.695 C160.342,533.819 161.136,532.771 161.987,531.79 C165.65,527.568 165.653,527.553 170.941,529.619 C178.066,532.405 183.492,537.265 187.807,543.478 C190.324,547.103 192.177,551.072 194.048,555.052 C196.772,560.845 197.555,566.339 195.264,572.782 C192.635,580.171 191.693,588.134 191.805,596.09 C191.824,597.441 191.62,598.56 190.701,599.648 C186.375,604.77 181.981,609.816 176.917,614.238 C163.364,626.058 146.558,628.128 132.966,619.638 C126.215,615.414 121.041,609.648 116.923,602.922 C109.354,590.551 103.31,577.39 97.163,564.293 C89.111,547.137 81.473,529.793 74.029,512.364 C73.215,510.457 72.165,509.051 70.28,508.011 C65.265,505.243 60.795,501.631 56.834,497.553 C42.317,482.606 26.155,469.508 10.499,455.839 C8.503,454.096 6.803,452.156 6.034,449.588 C4.717,445.188 7.081,441.971 11.687,441.949 C15.731,441.929 19.29,443.534 22.532,445.772 C27.544,449.229 32.423,452.879 37.424,456.353 C42.19,459.665 42.225,459.61 46.639,456.059 C53.877,450.235 61.096,444.387 68.37,438.608 C70.949,436.559 73.756,434.826 76.654,433.247 C77.236,432.929 77.948,432.456 77.544,431.598 C77.08,430.614 76.082,430.659 75.526,431.228 C71.899,434.944 69.545,431.974 66.886,429.796 C57.383,422.015 47.883,414.215 37.122,408.173 C35.758,407.407 35.623,406.505 35.953,405.23 C36.605,402.706 39.143,400.78 42.235,400.469 C45.556,400.135 48.523,401.221 51.401,402.707 C63.502,408.957 74.54,416.846 85.568,424.759 C92.074,429.427 98.325,434.375 103.94,440.117 C105.714,441.931 105.98,443.068 103.84,444.874 C98.206,449.628 93.994,455.587 90.308,461.926 C89.83,462.749 88.906,463.76 90.116,464.507 C91.39,465.293 91.828,463.912 92.287,463.125 C96.092,456.612 100.552,450.632 106.34,445.73 C107.235,444.973 107.569,443.957 108.019,442.96 C110.933,436.487 113.973,430.076 118.726,424.69 C121.204,421.882 124.037,419.527 127.907,418.897 C131.464,418.319 133.973,420.294 134.253,423.893 C134.511,427.207 133.577,430.329 131.853,433.028 C126.523,441.369 124.868,450.599 125.114,460.232 C125.354,469.637 125.113,479.022 124.606,488.402 C124.358,492.976 125.531,497.023 127.777,500.945 C136.069,515.429 145.386,529.251 154.768,543.034 C154.969,543.329 155.31,543.528 155.586,543.772" fill="#FBE4DB"/>
    <path d="M398.294,648.966 C394.406,645.876 392.588,642.372 391.831,638.22 C387.964,617.028 382.392,596.156 379.745,574.725 C379.205,570.352 377.796,566.191 376.124,562.108 C374.291,557.632 371.125,554.629 366.485,553.473 C364.039,552.863 364.22,551.926 365.008,550.005 C368.032,542.624 371.242,535.291 373.726,527.725 C381.776,503.203 392.682,479.812 401.802,455.72 C402.766,453.173 403.921,452.759 406.327,453.368 C412.706,454.981 419.073,456.612 425.329,458.675 C447.479,465.978 459.937,481.555 464.291,504.11 C466.814,517.174 466.377,530.346 465.989,543.542 C465.733,552.22 466.582,560.913 466.062,569.596 C465.268,582.862 464.344,596.119 463.544,609.384 C463.435,611.19 462.772,611.652 460.982,611.646 C439.988,611.58 418.993,611.55 398,611.67 C395.329,611.688 395.471,610.32 395.421,608.55 C394.93,590.967 394.265,573.388 393.979,555.802 C393.887,550.213 391.223,545.777 389.033,541.027 C388.959,543.884 390.1,546.464 390.802,549.137 C391.181,550.582 391.587,551.99 391.632,553.52 C392.195,572.7 392.841,591.878 393.347,611.058 C393.404,613.212 393.82,614.28 396.151,613.848 C397.853,613.536 398.341,614.304 398.33,615.996 C398.26,626.778 398.294,637.56 398.294,648.966" fill="#F7C2D8"/>
    <path d="M137.839,204.85 C153.585,189.098 170.883,175.392 190.483,164.678 C193.088,163.253 195.906,163.529 198.611,162.991 C204.632,161.792 210.615,160.215 215.552,156.621 C220.15,153.273 225.182,152.574 230.441,152.192 C237.367,151.689 244.198,152.573 250.967,153.989 C251.835,154.171 252.658,154.423 253.308,155.179 C264.751,168.488 279.915,173.584 296.817,174.728 C298.417,174.836 299.665,175.43 300.932,176.232 C327.046,192.755 350.417,212.684 372.652,234.02 C382.243,243.224 391.534,252.724 400.467,262.571 C402.577,264.896 402.505,265.629 399.669,267.226 C395.416,269.621 390.69,270.479 385.927,271.072 C370.295,273.017 354.835,271.776 339.498,268.444 C324.383,264.734 310.88,257.5 297.787,249.366 C280.861,238.85 265.408,226.294 249.446,214.446 C235.547,204.129 220.667,195.736 204.193,190.234 C192.201,186.229 180.297,186.461 168.319,190.216 C158.37,193.335 149.549,198.545 141.094,204.486 C139.172,205.837 139.153,205.81 137.839,204.85" fill="#FEFEFE"/>
    <path d="M439.678,200.074 C424.787,186.592 409.1,174.129 392.332,163.045 C375.842,152.146 358.581,142.634 340.743,134.142 C325.472,126.872 309.092,124.008 292.51,122.031 C281.163,120.678 269.797,120.298 258.497,122.609 C257.325,122.849 256.036,122.927 255.028,123.488 C249.921,126.333 244.644,125.845 239.192,124.831 C235.142,124.078 231.026,124.385 227.02,125.508 C226.039,125.783 225.154,125.864 224.143,125.396 C220.628,123.769 216.895,122.741 213.158,121.743 C213.086,120.677 213.979,120.358 214.499,119.845 C235.601,99.092 260.435,85.412 289.957,81.469 C322.59,77.111 353.8,82.583 383.351,97.073 C399.832,105.154 414.317,115.983 426.559,129.723 C427.217,130.461 427.791,131.275 428.404,132.053 C432.022,139.363 433.655,147.296 435.487,155.143 C438.758,169.163 440.718,183.37 440.783,197.799 C440.787,198.7 441.252,199.905 439.678,200.074" fill="#FEFEFE"/>
    <path d="M325.625,606.156 C322.107,606.192 318.664,606.846 315.251,607.584 C311.948,608.298 308.689,609.234 305.742,611.022 C302.608,602.538 306.164,594.683 314.44,591.694 C322.259,588.87 330.414,587.39 338.551,585.857 C339,585.773 339.449,585.683 339.816,585.289 C329.477,585.741 319.348,587.165 309.667,591.003 C307.759,585.392 310.9,578.738 316.467,577.035 C325.648,574.225 335.113,572.662 344.527,570.893 C345.408,570.727 346.331,570.757 347.149,569.776 C336.148,570.84 325.37,572.055 314.932,575.186 C312.806,575.824 312.458,575.559 312.553,573.437 C312.997,563.509 316.71,558.558 326.486,556.978 C338,555.116 349.584,553.243 361.355,554.586 C368.14,555.36 372.703,558.634 374.989,565.342 C377.629,573.086 378.298,581.15 379.638,589.111 C382.59,606.642 386.843,623.904 390.293,641.328 C390.797,643.872 392.062,645.96 393.778,647.838 C396.068,650.346 398.177,653.046 400.64,655.374 C404.356,658.884 404.486,663.054 403.382,667.518 C402.296,671.916 399.833,675.564 396.521,678.564 C387.307,686.91 376.42,691.422 364.031,692.094 C357.529,692.448 355.069,690.954 352.787,684.918 C350.947,680.046 348.115,676.548 343.664,673.662 C335.036,668.058 330.983,659.568 330.574,649.326 C330.414,645.324 330.758,641.34 330.937,637.344 C331.055,634.716 331.569,631.692 328.625,630.114 C325.217,628.29 321.707,628.35 318.397,630.528 C315.47,632.448 313.735,635.358 312.235,638.43 C301.809,630.882 302.314,624.06 305.416,614.85 C306.065,612.918 307.958,612.384 309.577,611.7 C315.88,609.06 322.542,607.788 329.264,606.78 C328.604,605.772 328.604,605.772 325.625,606.156" fill="#FEFEFE"/>
    <path d="M449.904,337.453 C453.136,328.007 457.211,318.893 460.898,309.627 C466.139,296.46 471.522,283.35 476.836,270.213 C477.056,269.668 477.083,269.017 477.946,268.72 C482.42,277.136 485.125,286.18 487.073,295.469 C489.739,308.179 490.859,321.049 491.477,334.02 C492.068,346.414 492.037,358.799 491.735,371.17 C491.39,385.239 490.736,399.309 490.866,413.378 C490.948,422.224 491.557,431.071 492.982,439.868 C494.441,448.886 499.265,454.697 507.683,457.826 C510.92,459.029 510.944,459.133 508.866,461.986 C504.344,468.193 497.686,470.009 490.54,470.586 C486.351,470.925 482.181,470.45 478.052,469.606 C475.31,469.045 474.733,469.672 475.405,472.382 C478.927,486.602 485.672,499.378 493.139,511.826 C493.807,512.94 494.495,514.04 495.157,515.156 C495.251,515.314 495.248,515.528 495.343,515.951 C492.075,516.864 488.867,515.755 485.705,515.506 C481.456,515.172 477.259,514.175 473.04,513.458 C471.931,513.269 471.06,513.071 470.883,511.543 C469.205,497.03 463.572,484.299 453.507,473.613 C450.712,469.062 450.93,463.825 450.294,458.825 C448.805,447.11 448.605,435.308 449.045,423.533 C449.603,408.578 450.223,393.62 450.965,378.677 C451.577,366.344 450.793,354.152 449.776,341.924 C449.649,340.409 449.938,338.944 449.904,337.453" fill="#A45A00"/>
    <path d="M422.184,267.311 C416.21,266.162 410.24,264.989 404.259,263.878 C402.481,263.548 401.657,262.12 400.595,260.968 C374.512,232.695 346.615,206.441 315.113,184.207 C310.803,181.165 306.362,178.307 301.454,175.01 C305.951,174.819 309.952,174.58 313.898,173.835 C320.952,172.504 327.635,170.38 333.067,165.405 C333.727,164.8 334.397,164.666 335.241,164.779 C352.763,167.107 370.248,169.622 387.034,175.494 C392.439,177.385 397.346,180.128 401.834,183.756 C414.073,193.648 425.808,204.008 434.837,217.069 C435.815,218.483 437.152,219.537 438.505,220.567 C439.476,221.776 439.396,223.178 439.171,224.57 C436.88,238.744 432.963,252.396 426.101,265.097 C425.256,266.662 424.355,268.105 422.184,267.311" fill="#FEFEFE"/>
    <path d="M361.214,694.602 C380.167,694.59 401.89,683.106 405.846,667.62 C409.911,670.914 413.635,674.46 418.461,676.686 C415.73,673.944 413.104,671.094 410.238,668.502 C407.727,666.234 405.678,664.08 406.001,660.228 C406.244,657.336 403.729,655.446 401.956,653.472 C400.745,652.122 400.163,650.814 400.2,648.96 C400.417,638.076 400.563,627.186 400.601,616.296 C400.607,614.316 401.161,613.83 403.117,613.908 C421.383,614.64 439.652,615.306 457.924,615.882 C459.885,615.942 460.189,616.614 460.126,618.36 C459.634,631.842 458.482,645.282 456.928,658.674 C455.042,674.94 452.431,691.092 449.273,707.16 C448.76,709.776 448.013,710.868 444.964,710.844 C422.08,710.664 399.195,710.724 376.31,710.79 C374.43,710.796 373.207,710.316 372.062,708.756 C368.65,704.094 365.048,699.576 361.214,694.602" fill="#FBE4DB"/>
    <path d="M373.951,519.19 C372.329,517.973 370.571,516.85 368.614,516.574 C365.575,516.145 365.494,515.048 366.581,512.41 C393.374,447.385 420.077,382.324 446.785,317.264 C475.912,246.316 505.038,175.367 534.1,104.392 C535.009,102.172 535.855,101.266 538.047,102.772 C538.527,103.102 539.129,103.307 539.704,103.439 C541.639,103.883 541.846,104.79 541.094,106.616 C536.154,118.607 531.337,130.65 526.481,142.676 C476.092,267.477 425.705,392.278 375.286,517.067 C374.989,517.802 375.11,518.921 373.951,519.19" fill="#E9EEF1"/>
    <path d="M268.96,483.311 C278.368,478.324 287.48,473.67 296.425,468.711 C311.959,460.1 327.388,451.302 341.301,440.137 C341.379,440.074 341.458,440.011 341.541,439.957 C345.358,437.503 347.379,434.306 346.664,429.492 C346.244,426.654 346.573,423.706 346.554,420.807 C346.549,420.022 346.309,419.155 347.141,418.638 C348.065,418.065 348.644,418.857 349.209,419.342 C354.403,423.797 358.889,428.881 362.373,434.776 C364.439,438.271 364.103,442.069 363.137,445.833 C361.193,453.413 357.17,459.959 352.746,466.265 C342.134,481.393 329.368,494.609 316.072,507.352 C315.028,508.352 314.284,508.443 313.003,507.728 C298.472,499.618 283.903,491.58 268.96,483.311" fill="#F7C2D8"/>
    <path d="M449.904,337.453 C451.369,341.741 451.385,346.288 451.57,350.677 C451.898,358.433 452.848,366.197 452.291,373.973 C451.558,384.204 451.655,394.468 451.033,404.693 C450.313,416.53 449.689,428.362 449.951,440.215 C450.2,451.436 451.258,462.594 453.508,473.613 C450.1,470.55 446.662,467.538 442.985,464.783 C434.032,458.075 423.359,455.729 412.955,452.684 C410.76,452.042 408.539,451.412 406.286,451.067 C404.197,450.747 404.263,449.939 404.941,448.268 C415.023,423.417 425.044,398.542 435.079,373.673 C439.817,361.932 444.556,350.191 449.304,338.453 C449.448,338.097 449.702,337.786 449.904,337.453" fill="#934F00"/>
    <path d="M330.863,162.051 C333.095,157.857 334.789,153.77 334.997,149.18 C335.326,141.948 333.865,139.484 327.053,137.055 C314.857,132.705 302.18,130.555 289.355,129.22 C280.004,128.246 270.655,127.787 261.262,129.115 C251.02,130.562 248.542,135.758 249.682,145.529 C249.855,147.015 251.978,149.017 249.705,150.055 C247.688,150.975 243.655,148.199 243.152,145.9 C242.794,144.262 242.835,142.527 242.776,140.833 C242.576,135.164 235.655,131.408 230.57,134.182 C229.016,135.029 228.696,136.406 228.569,137.936 C228.368,140.347 227.891,142.682 226.703,144.82 C224.96,147.957 222.247,149.227 218.532,148.941 C219.713,145.94 221.009,143.082 221.966,140.115 C223.436,135.554 222.706,133.635 218.656,131.045 C213.331,127.64 207.28,126.256 201.156,125.351 C183.638,122.764 166.135,122.567 148.708,126.2 C147.941,126.359 147.19,126.588 146.249,126.832 C146.59,124.462 148.338,123.88 150.088,123.328 C159.92,120.221 170.038,119.284 180.276,119.612 C195.418,120.097 210.326,121.94 224.411,128.025 C224.98,128.271 225.493,128.358 226.121,128.142 C232.927,125.801 239.736,126.834 246.523,128.237 C247.527,128.444 248.333,128.619 249.349,128.104 C256.085,124.685 263.401,123.452 270.813,123.386 C298.442,123.137 324.812,128.07 349.702,140.956 C384.607,159.026 416.788,180.724 444.796,208.408 C447.283,210.865 449.585,213.508 452.053,215.986 C453.319,217.256 453.891,218.494 452.973,220.225 C452.035,221.992 450.535,222.621 448.731,222.286 C443.894,221.389 439.403,219.473 436.516,215.408 C427.085,202.135 415.067,191.528 402.512,181.393 C394.325,174.784 384.582,171.994 374.722,169.46 C360.865,165.897 346.729,163.882 332.535,162.242 C332.077,162.19 331.618,162.137 330.863,162.051" fill="#FEFEFE"/>
    <path d="M265.63,163.519 C260.891,160.635 256.561,157.191 253.466,152.588 C250.248,147.802 249.851,142.347 251.275,136.812 C252.406,132.415 256.089,131.304 259.897,130.514 C268.714,128.685 277.608,129.156 286.462,129.989 C299.383,131.205 312.131,133.395 324.562,137.291 C333.676,140.148 335.191,142.741 333.181,153.594 C332.596,156.757 331,159.572 329.221,162.248 C329.178,164.125 327.842,164.996 326.456,165.854 C320.45,169.572 313.742,171.287 306.863,171.881 C294.904,172.915 283.165,171.697 272.029,166.762 C269.84,165.793 267.794,164.539 265.63,163.519" fill="#F7BC8F"/>
    <path d="M637.11,8.057 C640.968,10.697 641.13,14.91 640.962,18.779 C640.416,31.612 635.256,42.455 625.8,51.199 C620.988,55.651 615.12,57.161 608.736,57.185 C598.013,57.226 587.488,55.4 576.93,53.873 C573.708,53.407 570.416,52.426 567.554,54.998 C566.525,50.739 567.637,46.736 569.02,42.767 C570.977,37.2 573.779,32.025 576.509,26.821 C579.041,21.993 582.859,18.966 588.294,17.537 C597.557,15.102 606.9,13.114 616.32,11.465 C619.944,10.831 623.526,9.968 627.198,9.617 C628.434,9.514 629.61,9.1 630.822,8.89 C632.844,8.05 634.86,7.15 637.11,8.057" fill="#E3E7EA"/>
    <path d="M174.594,226.588 C174.908,224.173 173.403,224.326 171.911,224.818 C167.119,226.4 162.328,227.999 157.923,230.539 C157.142,230.988 156.325,231.351 155.385,231.257 C159.004,219.325 163.793,207.839 168.671,196.386 C169.235,195.063 170.331,194.885 171.545,194.636 C184.106,192.06 196.153,194.333 207.94,198.599 C224.457,204.577 238.717,214.405 252.448,225.088 C263.062,233.345 273.026,242.44 284.291,249.862 C278.837,248.547 273.908,245.916 268.868,243.601 C254.686,237.085 240.673,230.17 225.674,225.631 C214.669,222.3 203.426,220.467 191.907,221.114 C187.278,221.374 182.683,222.243 178.072,222.835 C177.656,216.626 185.653,211.321 191.302,214.081 C193.014,214.918 194.49,216.113 195.984,217.452 C195.212,216.262 194.516,215.129 193.669,214.101 C190.014,209.666 185.786,209.345 181.45,213.14 C178.18,216.004 177.043,219.931 175.985,223.915 C175.725,224.893 176.084,226.235 174.594,226.588" fill="#F5D8CE"/>
    <path d="M422.184,267.311 C423.482,267.305 424.334,266.8 424.999,265.561 C431.545,253.369 435.613,240.367 437.951,226.77 C438.307,224.703 438.614,222.662 438.505,220.567 C441.505,222.112 444.385,223.941 447.799,224.513 C451.782,225.18 454.501,223.415 455.528,219.698 C456.044,217.832 455.533,216.487 454.297,215.083 C449.676,209.83 444.523,205.103 439.678,200.074 C441.052,198.785 439.655,197.463 439.66,196.163 C439.738,176.155 435.682,156.826 429.891,137.791 C429.317,135.902 428.896,133.967 428.404,132.053 C441.037,146.402 449.71,162.878 454.006,181.47 C460.927,211.426 459.527,241.323 452.557,271.105 C452.101,273.051 451.401,273.49 449.542,273.038 C446.262,272.24 442.997,271.65 439.949,269.931 C436.021,267.716 431.581,267.425 427.132,267.876 C425.426,268.049 423.764,268.109 422.184,267.311" fill="#F1F1F1"/>
    <path d="M302.035,710.562 C310.641,688.632 319.173,666.888 327.943,644.538 C328.29,648.408 328.361,651.648 328.905,654.804 C330.582,664.524 335.908,671.91 344.256,676.956 C347.049,678.648 348.623,680.838 349.708,683.712 C350.872,686.796 351.901,690.198 354.758,692.04 C361.831,696.588 364.593,704.634 371.041,710.562 C347.579,710.562 324.996,710.562 302.035,710.562" fill="#F7C2D8"/>
    <path d="M159.486,155.097 C156.186,153.533 153.494,151.198 151.103,148.482 C148.141,143.876 146.626,138.976 147.805,133.437 C148.414,130.573 149.606,128.189 152.268,126.736 C167.855,123.791 183.468,123.82 199.103,126.331 C199.202,128.282 197.626,129.319 196.593,130.54 C190.009,138.325 184.212,146.638 179.198,155.516 C178.257,157.183 177.662,159.298 175.398,159.88 C170.722,159.706 166.494,157.903 162.242,156.218 C161.323,155.853 160.42,155.436 159.486,155.097" fill="#FACBA6"/>
    <path d="M637.11,8.057 C635.016,8.429 632.844,8.524 631.014,9.808 C629.154,9.197 627.372,9.973 625.548,10.109 C613.74,11.879 601.932,13.576 590.288,16.33 C583.138,18.02 578.03,21.583 575.213,28.525 C573.569,32.577 571.573,36.492 570.113,40.629 C569.863,41.339 569.275,42.052 569.917,42.854 C568.054,46.693 568.29,50.941 567.554,54.998 C563.79,61.695 561.092,68.896 557.74,75.79 C556.864,77.592 556.255,78.453 554.075,77.288 C551.368,75.842 548.42,74.819 545.518,73.777 C543.985,73.226 543.85,72.595 544.498,71.163 C550.864,57.102 556.501,42.735 562.399,28.477 C565.647,20.624 571.091,14.822 579.427,11.928 C595.252,6.436 611.418,3.591 628.188,5.146 C631.32,5.437 634.512,5.93 637.11,8.057" fill="#D3D8DB"/>
    <path d="M137.839,204.85 C138.911,205.993 139.392,204.701 140.005,204.268 C149.844,197.316 160.172,191.416 171.978,188.354 C185.479,184.853 198.265,186.924 211.104,191.829 C231.778,199.727 248.973,213.005 266.299,226.165 C281.966,238.066 297.829,249.67 315.505,258.505 C322.387,261.944 329.465,264.929 336.802,267.277 C337.729,267.574 338.786,267.629 339.499,268.444 C328.616,266.73 318.253,263.238 308.057,259.198 C291.348,252.577 276.904,242.428 263.266,230.88 C249.313,219.065 234.692,208.135 218.034,200.277 C206.827,194.99 195.131,191.485 182.65,191.318 C167.801,191.12 155.099,196.84 143.69,205.919 C137.254,211.04 131.64,216.996 126.148,223.085 C124.078,225.38 121.868,227.554 119.66,229.72 C119.225,230.146 118.576,230.816 117.845,230.231 C117.091,229.629 117.281,228.799 117.67,228.05 C117.944,227.521 118.268,227.012 118.617,226.527 C124.278,218.641 130.74,211.463 137.839,204.85" fill="#F7C2D8"/>
    <path d="M175.69,159.286 C177.969,157.234 178.937,154.338 180.45,151.801 C185.868,142.721 192.257,134.36 199.103,126.331 C205.597,126.93 211.86,128.411 217.55,131.69 C221.784,134.129 222.21,135.607 220.766,140.323 C219.829,143.384 218.396,146.221 216.938,149.051 C217.137,150.992 216.107,152.219 214.561,153.152 C204.391,159.286 193.469,162.184 181.558,160.808 C180.274,160.66 178.963,160.852 177.7,160.539 C176.913,160.343 175.78,160.626 175.69,159.286" fill="#F7BC8F"/>
    <path d="M121.888,231.251 C134.736,217.119 146.8,202.434 165.637,196.261 C166.275,196.782 165.788,197.189 165.611,197.599 C160.61,209.242 156.068,221.061 152.18,233.123 C151.62,234.861 150.835,235.687 148.898,235.79 C139.582,236.284 130.665,234.682 121.888,231.251" fill="#E2E3E3"/>
    <path d="M15.253,422.078 C19.325,422.222 22.677,423.514 25.864,425.186 C36.15,430.586 45.391,437.564 54.714,444.419 C56.012,445.373 55.537,445.828 54.589,446.582 C50.916,449.503 47.244,452.429 43.674,455.473 C42.424,456.538 41.523,456.383 40.299,455.521 C31.088,449.031 21.832,442.607 12.625,436.111 C11.582,435.375 10.629,434.422 9.865,433.398 C8.09,431.02 7.321,428.372 8.798,425.567 C10.228,422.848 12.85,422.251 15.253,422.078" fill="#FBE4DB"/>
    <path d="M239.213,500.617 C244.696,479.42 248.851,457.91 262.781,440.303 C264.485,453.998 266.364,467.515 265.187,481.197 C265.101,482.204 264.768,482.83 263.96,483.391 C255.7,489.116 247.459,494.871 239.213,500.617" fill="#F7C2D8"/>
    <path d="M69.377,434.818 C65.738,437.657 62.392,440.173 59.167,442.834 C58.085,443.726 57.436,443.628 56.377,442.825 C47.569,436.135 38.588,429.709 29.014,424.117 C26.214,422.482 23.643,420.267 21.945,417.341 C20.524,414.892 19.807,412.279 21.622,409.756 C23.333,407.378 25.884,407.11 28.609,407.488 C31.325,407.864 33.814,408.882 36.14,410.227 C48.1,417.142 58.573,426.061 69.377,434.818" fill="#FBE4DB"/>
    <path d="M443.321,321.266 C431.898,349.099 420.474,376.931 409.051,404.763 C408.863,404.716 408.676,404.668 408.488,404.621 C409.118,401.723 409.671,398.806 410.389,395.93 C415.504,375.439 420.67,354.962 425.774,334.469 C426.544,331.376 427.853,329.122 431.236,328.088 C435.662,326.735 439.342,323.894 443.321,321.266" fill="#934F00"/>
    <path d="M393.184,308.602 C393.184,302.314 393.025,295.359 393.241,288.416 C393.38,283.925 393.758,279.433 393.137,274.978 C392.863,273.003 393.265,272.052 395.221,271.512 C398.4,270.634 401.578,269.623 403.684,266.792 C404.378,265.858 405.136,266.484 405.849,266.619 C410.423,267.486 414.991,268.387 420.201,269.401 C416.717,271.33 413.662,272.869 411.083,275.132 C406.019,279.576 402.434,284.956 400.116,291.306 C397.898,297.379 395.317,303.318 393.184,308.602" fill="#A45A00"/>
    <path d="M462.641,246.493 C464.869,249.421 467.096,252.35 469.325,255.276 C469.876,255.998 469.802,256.753 469.48,257.537 C464.538,269.587 459.599,281.639 454.342,294.463 C453.802,289.276 453.074,284.959 451.127,280.932 C450.392,279.413 451.351,277.769 452.21,276.811 C456.197,272.366 457.144,266.675 458.879,261.335 C460.436,256.549 461.227,251.549 461.885,246.539 C462.137,246.524 462.389,246.509 462.641,246.493" fill="#A45A00"/>
    <path d="M425.119,329.866 C418.45,343.481 410.477,355.847 399.805,366.399 C402.794,360.503 405.784,354.614 408.182,348.448 C410.349,342.874 412.216,337.201 413.877,331.465 C414.419,329.594 414.982,328.869 417.172,329.357 C419.625,329.905 422.242,329.717 425.119,329.866" fill="#934F00"/>
    <path d="M245.622,151.701 C237.791,150.546 230.206,150.677 222.265,152.099 C222.716,151.481 222.869,151.039 223.161,150.909 C228.38,148.593 230.215,144.064 230.689,138.89 C230.96,135.93 232.543,135.497 234.905,135.722 C239.06,136.118 240.496,137.582 240.478,141.692 C240.46,145.885 241.096,149.687 245.622,151.701" fill="#FDFDFD"/>
    <path d="M265.63,163.519 C270.678,165.292 275.342,168.018 280.658,169.162 C294.834,172.211 308.851,172.733 322.535,166.991 C325.073,165.926 327.662,164.768 329.221,162.248 C329.764,163.474 331.313,162.774 332.114,163.896 C328.018,168.053 322.811,170.262 317.249,171.467 C299.921,175.225 283.25,173.441 267.508,164.922 C266.828,164.554 266.254,163.991 265.63,163.519" fill="#C89772"/>
    <path d="M175.69,159.286 C180.156,160.253 184.7,160.721 189.234,160.364 C197.44,159.719 205.293,157.681 212.465,153.463 C214.323,152.37 216.359,151.446 216.938,149.051 C217.822,151.171 219.712,149.72 221.414,150.197 C216.927,154.535 211.831,157.323 206.252,159.212 C190.619,164.505 175.442,162.797 160.653,155.971 C160.222,155.771 159.873,155.392 159.486,155.097 C163.906,156.046 167.98,158.192 172.481,158.858 C173.549,159.016 174.62,159.144 175.69,159.286" fill="#C99873"/>
    <path d="M278.759,722.778 C283.449,723.408 287.879,724.758 291.774,727.53 C292.459,728.016 293.603,728.58 293.213,729.552 C292.872,730.404 291.683,730.338 290.8,730.242 C286.093,729.714 281.687,728.304 277.758,725.598 C277.045,725.112 275.904,724.554 276.175,723.648 C276.502,722.55 277.798,722.838 278.759,722.778" fill="#FBFBFB"/>
    <path d="M152.268,126.736 C146.608,132.874 147.602,139.618 150.455,146.537 C150.715,147.167 150.889,147.833 151.103,148.482 C146.45,144.106 144.373,134.876 146.722,129.204 C147.806,126.586 150.222,127.112 152.268,126.736" fill="#E8BE9E"/>
    <path d="M189.368,164.041 C185.77,166.127 182.659,167.932 179.447,169.794 C181.372,163.348 181.372,163.348 189.368,164.041" fill="#F1F1F1"/>
    <path d="M447.063,275.199 C448.412,275.063 449.491,274.625 449.84,276.05 C449.918,276.368 449.71,277.048 449.525,277.09 C448.254,277.378 447.961,276.242 447.063,275.199" fill="#8D5C25"/>
    <path d="M325.625,606.156 C327.4,605.436 329.239,605.61 331.237,605.694 C330.968,606.996 330.075,606.81 329.264,606.78 C328.212,605.634 326.767,606.78 325.625,606.156" fill="#848383"/>
    <path d="M251.303,152.822 C251.147,152.903 250.873,153.155 250.747,153.094 C250.439,152.946 250.201,152.654 249.934,152.42 C250.144,152.302 250.349,152.096 250.566,152.081 C250.953,152.056 251.311,152.188 251.303,152.822" fill="#9E9E9E"/>
    <path d="M338.914,307.448 C339.203,312.269 336.03,315.041 332.917,317.11 C324.794,322.507 315.77,324.034 306.469,320.568 C296.539,316.867 293.674,307.841 303.631,300.461 C311.209,294.844 325.133,293.322 333.159,298.333 C336.531,300.438 339.445,303.067 338.914,307.448" fill="#F9D1D0"/>
    <path d="M196.994,351.85 C195.801,356.447 194.708,361.073 193.367,365.627 C192.812,367.514 193.225,368.414 194.939,369.378 C205.319,375.214 216.697,377.73 228.301,379.181 C248.363,381.689 267.938,379.734 286.682,371.668 C296.687,367.361 305.555,361.36 313.463,353.874 C314.905,352.508 314.991,351.653 313.442,350.416 C312.201,349.423 311.137,348.206 310.011,347.072 C309.475,346.532 309.202,345.901 309.753,345.217 C310.377,344.441 310.985,344.822 311.518,345.343 C313.448,347.228 315.366,349.126 317.28,351.026 C318.638,352.374 317.363,353.185 316.58,353.977 C310.87,359.759 304.574,364.81 297.484,368.803 C295.751,369.779 294.617,371.077 293.664,372.788 C288.142,382.703 281.752,391.963 272.815,399.175 C271.039,400.609 269.108,401.885 267.131,403.031 C259.274,407.587 251.585,407.764 243.819,402.492 C235.31,396.715 228.072,389.597 221.226,382.034 C219.931,380.603 218.538,379.866 216.708,379.48 C208.489,377.746 200.533,375.306 193.168,371.086 C190.781,369.718 189.863,368.591 191.092,365.758 C193.083,361.163 194.567,356.35 196.265,351.629 C196.508,351.703 196.751,351.776 196.994,351.85" fill="#2F201B"/>
    <path d="M171.493,317.698 C165.969,317.147 160.662,315.989 156.497,311.917 C154.22,309.692 152.288,307.138 153.103,303.754 C153.999,300.034 157,298.016 160.457,297.536 C168.112,296.475 175.406,297.267 181.088,303.497 C185.365,308.186 183.944,314.314 177.925,316.408 C175.865,317.124 173.761,317.816 171.493,317.698" fill="#F9D1D0"/>
    <path d="M199.79,273.334 C200.054,273.442 200.54,273.538 200.548,273.661 C200.779,277.654 200.827,281.653 199.081,285.377 C197.444,288.868 194.832,289.081 192.441,286.024 C187.793,280.079 186.685,266.5 190.489,260.11 C191.162,258.98 190.999,258.463 190.285,257.609 C189.494,256.664 188.881,255.571 188.343,254.428 C190.723,256.083 193.108,257.74 195.182,259.583 C198.548,262.573 200.159,266.724 199.766,271.414 C199.13,271.419 198.659,271.039 198.167,270.718 C196.937,269.917 195.902,270.209 195.089,271.329 C194.504,272.134 194.528,273.02 195.178,273.788 C196.06,274.83 197.12,275.084 198.322,274.305 C198.815,273.986 199.191,273.492 199.79,273.334" fill="#2F211D"/>
    <path d="M283.742,269.644 C285.463,272.961 284.264,281.32 281.744,283.579 C280.043,285.103 278.174,284.788 276.45,282.472 C273.744,278.839 272.659,274.571 272.318,270.166 C271.948,265.397 271.661,260.554 274.499,256.264 C275.025,255.468 274.598,255.006 274.179,254.428 C273.482,253.466 272.837,252.464 272.101,251.375 C279.479,254.369 284.468,261.471 283.759,267.83 C283.125,267.823 282.652,267.443 282.154,267.13 C281.095,266.464 280.097,266.419 279.257,267.459 C278.56,268.323 278.44,269.283 279.175,270.171 C280.045,271.22 281.114,271.487 282.319,270.693 C282.812,270.369 283.165,269.854 283.742,269.644" fill="#2F201B"/>
    <path d="M429.778,278.579 C430.796,278.557 431.746,278.344 431.913,279.455 C432.078,280.552 431.149,280.693 430.366,280.858 C420.043,283.024 416.149,291.19 412.684,299.77 C412.137,301.123 413.002,301.184 413.948,301.423 C417.47,302.308 420.21,304.073 420.661,308.054 C421.142,312.305 419.165,315.34 415.706,317.545 C415.007,317.989 414.124,318.806 413.416,317.617 C412.751,316.501 413.729,316.048 414.488,315.568 C414.741,315.409 414.995,315.248 415.229,315.064 C417.475,313.291 418.964,311.094 418.399,308.118 C417.8,304.958 415.254,303.664 412.493,303.508 C409.346,303.331 409.397,302.076 410.234,299.705 C412.487,293.323 415.435,287.407 420.655,282.882 C423.354,280.543 426.467,279.087 429.778,278.579" fill="#30211D"/>
    <path d="M174.594,226.588 C175.255,224.094 175.825,221.57 176.614,219.118 C177.035,217.807 177.725,216.546 178.48,215.384 C183.602,207.508 191.374,207.772 195.941,215.957 C196.511,216.979 196.96,218.069 197.853,219.944 C193.73,216.791 190.85,212.638 185.738,214.249 C181.611,215.55 179.425,218.895 178.072,222.835 C176.462,225.468 175.999,228.546 174.594,232.099 C174.594,229.754 174.594,228.171 174.594,226.588" fill="#30211D"/>
    <path d="M221.221,305.068 C217.729,304.813 214.87,304.586 212.008,304.4 C209.527,304.24 208.186,305.48 207.548,307.849 C206.282,312.553 207.727,316.658 210.047,320.64 C210.534,321.475 212.01,322.458 210.583,323.381 C209.054,324.372 208.601,322.612 208.033,321.715 C205.02,316.961 203.857,311.914 205.619,306.363 C206.455,303.728 208.129,302.34 210.831,302.329 C214.306,302.316 217.644,302.952 221.221,305.068" fill="#31231E"/>
    <path d="M283.742,269.644 C283.406,271.632 282.037,272.255 280.285,271.964 C278.776,271.712 277.837,270.647 277.764,269.063 C277.692,267.487 278.507,266.39 279.986,265.92 C281.81,265.34 283.024,266.156 283.759,267.83 C283.753,268.435 283.748,269.039 283.742,269.644" fill="#FBFBFB"/>
    <path d="M199.79,273.334 C199.437,275.305 198.086,275.9 196.334,275.6 C194.818,275.341 193.913,274.238 193.815,272.722 C193.715,271.189 194.524,270.045 195.998,269.593 C197.746,269.056 199.072,269.645 199.766,271.414 C199.775,272.054 199.783,272.694 199.79,273.334" fill="#FCFCFC"/>
    <path d="M267.249,491.079 C267.338,491.529 267.655,491.663 268.066,491.668 C268.956,493.429 268.83,495.211 268.18,497.005 C267.811,497.218 267.441,497.429 267.072,497.642 C266.252,498.059 265.388,498.166 264.484,498.029 C262.459,497.721 261.092,496.121 261.236,494.12 C261.388,492.031 262.66,490.967 264.642,490.657 C265.547,490.515 266.41,490.75 267.249,491.079" fill="#FDFDFD"/>
    <path d="M256.015,537.313 C256.445,537.206 256.875,537.099 257.305,536.992 C259.684,535.784 261.332,536.066 262.513,538.075 C263.463,539.69 263.299,541.269 261.835,542.606 C260.167,544.128 258.472,543.961 256.132,542.009 L256.152,542.021 C255.107,540.481 255.581,538.897 256.015,537.313" fill="#FDFDFD"/>
    <path d="M270.424,523.304 C271.971,513.267 273.161,503.199 272.995,493.01 C274.444,503.678 273.104,514.159 270.988,524.588 C269.845,524.579 270.32,523.86 270.424,523.304" fill="#3A2C29"/>
    <path d="M256.132,542.009 C256.624,542.291 257.108,542.584 257.606,542.852 C259.082,543.644 260.459,543.469 261.647,542.303 C262.633,541.335 263.053,540.138 262.483,538.81 C261.847,537.326 260.732,536.452 259.028,536.625 C258.448,536.684 257.879,536.866 257.305,536.992 C257.905,535.204 259.25,535.492 260.544,535.911 C262.436,536.524 263.396,537.844 263.434,539.888 C263.47,541.815 262.631,543.328 260.89,543.784 C259.102,544.254 256.925,544.69 256.132,542.009" fill="#615959"/>
    <path d="M264.72,513.701 C266.809,514.658 267.299,516.398 266.759,518.406 C266.242,520.331 264.749,521.503 262.807,521.507 C260.626,521.511 259.046,520.358 258.589,518.048 C258.8,517.848 259.052,517.76 259.342,517.781 C259.433,517.814 259.54,517.828 259.615,517.884 C260.994,518.905 262.265,520.556 264.224,519.103 C266.216,517.625 264.865,515.945 264.324,514.342 C264.308,514.037 264.441,513.823 264.72,513.701" fill="#666061"/>
    <path d="M267.249,491.079 C267.155,491.11 267.059,491.171 266.967,491.166 C263.319,490.957 261.509,492.041 261.545,494.42 C261.581,496.763 263.294,497.762 267.071,497.642 C265.078,499.43 263.214,498.706 261.755,497.042 C260.283,495.364 260.32,493.297 261.809,491.622 C263.347,489.893 265.259,489.487 267.249,491.079" fill="#5A5352"/>
    <path d="M270.424,523.304 C270.612,523.732 270.8,524.16 270.988,524.588 C270.188,528.981 269.389,533.374 268.59,537.767 C268.057,537.898 267.77,537.798 268.034,537.178 C268.585,532.511 269.227,527.859 270.424,523.304" fill="#605556"/>
    <path d="M268.034,537.178 C268.22,537.374 268.405,537.571 268.59,537.767 C268.201,539.962 267.811,542.158 267.422,544.353 C266.879,544.556 266.648,544.418 266.842,543.82 C266.96,541.556 267.209,539.315 268.034,537.178" fill="#908489"/>
    <path d="M268.18,497.005 C268.142,495.226 268.104,493.447 268.066,491.668 C269.833,493.409 269.794,495.19 268.18,497.005" fill="#7D7778"/>
    <path d="M266.842,543.82 C267.035,543.998 267.229,544.176 267.422,544.353 C267.045,546.016 267.089,547.796 266.036,549.286 C266.065,547.421 265.987,545.553 266.842,543.82" fill="#C0A8B2"/>
    <path d="M256.015,537.313 C256.061,538.883 256.106,540.452 256.152,542.021 C254.456,540.277 254.447,539.95 256.015,537.313" fill="#7E7577"/>
    <path d="M259.166,518.043 C258.974,518.044 258.781,518.046 258.589,518.048 C258.268,516.095 258.778,514.546 260.707,513.685 C260.99,513.763 261.13,513.948 261.13,514.241 C260.62,515.582 260.047,516.892 259.166,518.043" fill="#5B5555"/>
    <path d="M260.707,513.685 C262.048,512.87 263.386,512.845 264.719,513.701 C264.553,513.803 264.437,513.947 264.374,514.133 C263.255,514.745 262.148,514.755 261.056,514.066 C260.974,513.907 260.858,513.78 260.707,513.685" fill="#4A4140"/>
    <path d="M569.917,42.854 C568.591,42.55 569.291,41.609 569.467,41.034 C571.287,35.107 573.506,29.351 576.699,23.993 C578.789,20.486 581.645,18.151 585.58,16.903 C596.396,13.472 607.572,11.954 618.75,10.437 C621.024,10.129 623.316,9.975 625.602,9.751 C626.286,9.74 627.204,8.964 627.45,10.331 C614.028,12.707 600.576,14.926 587.444,18.718 C583.254,19.927 580.223,22.251 578.034,25.951 C574.835,31.355 572.041,36.941 569.917,42.854" fill="#31231E"/>
    <path d="M627.45,10.331 C626.832,10.138 626.22,9.944 625.602,9.751 C627.414,9.162 629.22,8.616 631.014,9.809 C629.826,9.983 628.638,10.157 627.45,10.331" fill="#686565"/>
    <path d="M245.892,400.931 C237.256,395.76 230.534,388.46 223.107,380.8 C246.892,384.368 269.252,382.418 291.419,372.151 C288.174,377.621 285.305,382.465 281.46,386.681 C279.05,387.827 276.393,387.606 273.856,388.034 C266.026,389.354 258.454,391.304 251.77,395.876 C249.609,397.354 248.146,399.593 245.892,400.931" fill="#F7C2D8"/>
    <path d="M245.892,400.931 C247.892,396.962 251.528,394.771 255.231,392.886 C263.439,388.708 272.243,386.75 281.46,386.681 C276.671,393.167 271.004,398.663 263.65,402.182 C257.522,405.114 251.554,405.004 245.892,400.931" fill="#FEFEFE"/>
    <path d="M261.056,514.066 C262.169,513.735 263.277,513.666 264.374,514.133 C266.602,516.664 266.697,518.315 264.704,519.859 C262.902,521.255 261.105,520.666 259.166,518.043 C259.04,516.358 259.873,515.129 261.056,514.066" fill="#FCFCFC"/>
  </g>
</svg>
